SplineFontDB: 3.0
FontName: Padauk
FullName: Padauk
FamilyName: Padauk
Weight: Normal
Copyright: Copyright (c) 2002-2010 SIL International.
UComments: "2012-11-23: Created." 
Version: 6.000
ItalicAngle: 0
UnderlinePosition: -450
UnderlineWidth: 50
Ascent: 819
Descent: 205
LayerCount: 2
Layer: 0 0 "Back"  1
Layer: 1 0 "Fore"  0
XUID: [1021 184 1374219540 2009808]
FSType: 0
OS2Version: 0
OS2_WeightWidthSlopeOnly: 0
OS2_UseTypoMetrics: 0
CreationTime: 1353655977
ModificationTime: 1354003195
PfmFamily: 16
TTFWeight: 400
TTFWidth: 5
LineGap: 0
VLineGap: 92
Panose: 2 0 4 0 2 0 0 2 0 4
OS2TypoAscent: 1010
OS2TypoAOffset: 0
OS2TypoDescent: -500
OS2TypoDOffset: 0
OS2TypoLinegap: 0
OS2WinAscent: 1010
OS2WinAOffset: 0
OS2WinDescent: -500
OS2WinDOffset: 0
HheadAscent: 1010
HheadAOffset: 0
HheadDescent: -500
HheadDOffset: 0
OS2SubXSize: 214
OS2SubYSize: 214
OS2SubXOff: 0
OS2SubYOff: 300
OS2SupXSize: 214
OS2SupYSize: 214
OS2SupXOff: 0
OS2SupYOff: 300
OS2StrikeYSize: 52
OS2StrikeYPos: 262
OS2Vendor: 'SIL '
OS2CodePages: 00000001.00000000
Lookup: 4 0 0 "ngakinzi"  {"cligContextualLigaturesinMyanma subtable"  } ['clig' ('mymr' <'KHT ' 'KSW ' 'KYU ' 'dflt' > ) ]
Lookup: 2 0 0 "insert25cc"  {"sub_mult_cligmymr_0 subtable"  } ['clig' ('mymr' <'KHT ' 'KSW ' 'KYU ' 'dflt' > ) ]
Lookup: 4 0 0 "remove25ccAsat-Ligature"  {"LigatureSubstitutionlookup103 subtable"  } []
Lookup: 6 0 0 "remove25ccAsat"  {"sub_chain_cligmymr_0 contextual 0"  "sub_chain_cligmymr_0 contextual 1"  "sub_chain_cligmymr_0 contextual 2"  "sub_chain_cligmymr_0 contextual 3"  "sub_chain_cligmymr_0 contextual 4"  "sub_chain_cligmymr_0 contextual 5"  "sub_chain_cligmymr_0 contextual 6"  "sub_chain_cligmymr_0 contextual 7"  "sub_chain_cligmymr_0 contextual 8"  "sub_chain_cligmymr_0 contextual 9"  } ['clig' ('mymr' <'KHT ' 'KSW ' 'KYU ' 'dflt' > ) ]
Lookup: 4 0 0 "remove25cc1039-Ligature"  {"LigatureSubstitutionlookup104 subtable"  } []

StartChar: .notdef
Encoding: 0 -1 0
Width: 1
VWidth: 0
GlyphClass: 2
Flags: HW
LayerCount: 2
Fore
SplineSet
525 461 m 0
 525 -3 l 0
 55 -3 l 0
 55 461 l 0
 525 461 l 0
107 410 m 0
 107 49 l 0
 475 49 l 0
 475 410 l 0
 107 410 l 0
EndSplineSet
EndChar

StartChar: exclam
Encoding: 4 33 2
Width: 251
VWidth: 0
GlyphClass: 2
Flags: HW
LayerCount: 2
Fore
SplineSet
196 50 m 0
 196 13 163 -18 126 -18 c 0
 89 -18 56 13 56 50 c 0
 56 88 89 118 126 118 c 0
 163 118 196 88 196 50 c 0
126 813 m 0
 150 813 167 793 169 755 c 0
 170 736 171 713 171 688 c 0
 171 533 163 386 148 268 c 0
 140 201 138 190 126 190 c 0
 114 190 112 201 104 268 c 0
 89 386 81 533 81 688 c 0
 81 713 82 736 83 755 c 0
 85 793 102 813 126 813 c 0
EndSplineSet
Comment: "GDL_order: 0+AAoA-mark: 80+AAoA" 
EndChar

StartChar: quotedbl
Encoding: 5 34 3
Width: 423
VWidth: 0
GlyphClass: 2
Flags: HW
LayerCount: 2
Fore
SplineSet
360 643 m 0
 338 386 l 0
 274 386 l 0
 253 643 l 0
 360 643 l 0
169 643 m 0
 147 386 l 0
 83 386 l 0
 62 643 l 0
 169 643 l 0
EndSplineSet
Comment: "mark: 1+AAoA" 
EndChar

StartChar: numbersign
Encoding: 6 35 4
Width: 535
VWidth: 0
GlyphClass: 2
Flags: HW
LayerCount: 2
Fore
SplineSet
479 99 m 0
 374 99 l 0
 358 -28 l 0
 286 -28 l 0
 302 99 l 0
 200 99 l 0
 184 -28 l 0
 112 -28 l 0
 128 99 l 0
 55 99 l 0
 55 171 l 0
 137 171 l 0
 150 273 l 0
 55 273 l 0
 55 345 l 0
 160 345 l 0
 178 487 l 0
 250 487 l 0
 231 345 l 0
 334 345 l 0
 352 487 l 0
 424 487 l 0
 405 345 l 0
 479 345 l 0
 479 273 l 0
 396 273 l 0
 383 171 l 0
 479 171 l 0
 479 99 l 0
324 273 m 0
 222 273 l 0
 209 171 l 0
 311 171 l 0
 324 273 l 0
EndSplineSet
Comment: "GDL_order: 0+AAoA-mark: 80+AAoA" 
EndChar

StartChar: dollar
Encoding: 7 36 5
Width: 502
VWidth: 0
GlyphClass: 2
Flags: HW
LayerCount: 2
Fore
SplineSet
473 177 m 0
 473 48 375 -4 275 -12 c 0
 275 -93 l 0
 229 -93 l 0
 229 -13 l 0
 98 -9 29 70 29 191 c 0
 129 191 l 0
 129 126 154 76 229 73 c 0
 229 283 l 0
 126 312 40 334 40 462 c 0
 40 565 118 642 229 642 c 0
 229 708 l 0
 275 708 l 0
 275 643 l 0
 390 643 450 563 450 465 c 0
 350 465 l 0
 350 530 330 555 275 557 c 0
 275 367 l 0
 352 347 473 330 473 177 c 0
229 380 m 0
 229 556 l 0
 150 552 139 513 139 465 c 0
 139 405 171 398 229 380 c 0
374 169 m 0
 374 245 335 258 275 275 c 0
 275 74 l 0
 337 78 374 102 374 169 c 0
EndSplineSet
Comment: "mark: 1+AAoA" 
EndChar

StartChar: percent
Encoding: 8 37 6
Width: 682
VWidth: 0
GlyphClass: 2
Flags: HW
LayerCount: 2
Fore
SplineSet
553 452 m 0
 185 -68 l 0
 130 -22 l 0
 494 496 l 0
 553 452 l 0
296 340 m 0
 296 274 237 212 169 212 c 0
 99 212 40 274 40 340 c 0
 40 410 99 470 169 470 c 0
 237 470 296 410 296 340 c 0
642 89 m 0
 642 22 583 -40 515 -40 c 0
 446 -40 387 22 387 89 c 0
 387 159 446 218 515 218 c 0
 583 218 642 159 642 89 c 0
232 340 m 0
 232 375 202 406 169 406 c 0
 131 406 103 375 103 340 c 0
 103 305 132 275 169 275 c 0
 202 275 232 305 232 340 c 0
579 89 m 0
 579 124 548 155 515 155 c 0
 478 155 449 124 449 89 c 0
 449 54 478 23 515 23 c 0
 548 23 579 54 579 89 c 0
EndSplineSet
Comment: "GDL_order: 0+AAoA-mark: 80+AAoA" 
EndChar

StartChar: ampersand
Encoding: 9 38 7
Width: 689
VWidth: 0
GlyphClass: 2
Flags: HW
LayerCount: 2
Fore
SplineSet
681 0 m 0
 547 0 l 0
 484 57 l 0
 438 18 366 -12 280 -12 c 0
 161 -12 51 57 51 181 c 0
 51 282 109 335 189 372 c 0
 146 413 116 464 116 516 c 0
 116 604 198 655 284 655 c 0
 374 655 453 612 453 532 c 0
 453 441 375 395 316 359 c 0
 362 301 415 246 475 189 c 0
 488 225 492 260 492 297 c 0
 492 316 491 336 489 357 c 0
 592 357 l 0
 591 270 577 195 541 125 c 0
 565 95 634 34 681 0 c 0
367 520 m 0
 367 552 332 582 294 582 c 0
 238 582 213 551 213 517 c 0
 213 485 233 452 268 411 c 0
 321 436 367 479 367 520 c 0
426 115 m 0
 355 180 290 250 236 314 c 0
 189 293 153 236 153 187 c 0
 153 132 210 67 283 67 c 0
 336 67 386 79 426 115 c 0
EndSplineSet
Comment: "mark: 1+AAoA" 
EndChar

StartChar: quotesingle
Encoding: 10 39 8
Width: 341
VWidth: 0
GlyphClass: 2
Flags: HW
LayerCount: 2
Fore
SplineSet
223 643 m 0
 202 386 l 0
 137 386 l 0
 116 643 l 0
 223 643 l 0
EndSplineSet
Comment: "mark: 1+AAoA" 
EndChar

StartChar: parenleft
Encoding: 11 40 9
Width: 418
VWidth: 0
GlyphClass: 2
Flags: HW
LayerCount: 2
Fore
SplineSet
368 -457 m 0
 289 -457 l 0
 133 -263 74 -47 74 215 c 0
 74 485 141 701 291 910 c 0
 368 910 l 0
 217 703 146 486 146 215 c 0
 146 -35 212 -265 368 -457 c 0
EndSplineSet
Comment: "GDL_order: 0+AAoA-mark: 80+AAoA" 
EndChar

StartChar: parenright
Encoding: 12 41 10
Width: 419
VWidth: 0
GlyphClass: 2
Flags: HW
LayerCount: 2
Fore
SplineSet
344 223 m 0
 344 -39 286 -255 129 -449 c 0
 50 -449 l 0
 206 -258 272 -26 272 223 c 0
 272 494 201 711 50 918 c 0
 127 918 l 0
 276 709 344 493 344 223 c 0
EndSplineSet
Comment: "GDL_order: 1+AAoA-mark: 80+AAoA" 
EndChar

StartChar: asterisk
Encoding: 13 42 11
Width: 566
VWidth: 0
GlyphClass: 2
Flags: HW
LayerCount: 2
Fore
SplineSet
511 371 m 0
 472 305 l 0
 322 393 l 0
 322 218 l 0
 247 218 l 0
 247 393 l 0
 95 305 l 0
 55 370 l 0
 209 458 l 0
 55 547 l 0
 95 610 l 0
 244 524 l 0
 244 699 l 0
 322 699 l 0
 322 524 l 0
 472 610 l 0
 511 546 l 0
 357 458 l 0
 511 371 l 0
EndSplineSet
Comment: "GDL_order: 0+AAoA-mark: 80+AAoA" 
EndChar

StartChar: plus
Encoding: 14 43 12
Width: 574
VWidth: 0
GlyphClass: 2
Flags: HW
LayerCount: 2
Fore
SplineSet
481 259 m 0
 481 187 l 0
 323 187 l 0
 323 30 l 0
 251 30 l 0
 251 187 l 0
 93 187 l 0
 93 259 l 0
 251 259 l 0
 251 419 l 0
 323 419 l 0
 323 259 l 0
 481 259 l 0
EndSplineSet
Comment: "GDL_order: 0+AAoA-mark: 80+AAoA" 
EndChar

StartChar: comma
Encoding: 15 44 13
Width: 240
VWidth: 0
GlyphClass: 2
Flags: HW
LayerCount: 2
Fore
SplineSet
200 58 m 0
 200 -39 143 -125 92 -149 c 0
 78 -137 l 0
 114 -111 141 -61 141 -4 c 0
 141 11 140 16 138 22 c 0
 128 14 87 -3 67 -3 c 0
 48 -3 40 30 40 58 c 0
 40 106 79 142 120 142 c 0
 164 142 200 107 200 58 c 0
EndSplineSet
Comment: "GDL_order: 0+AAoA-mark: 80+AAoA" 
EndChar

StartChar: hyphen
Encoding: 16 45 14
Width: 499
VWidth: 0
GlyphClass: 2
Flags: HW
LayerCount: 2
Fore
SplineSet
443 257 m 0
 443 185 l 0
 55 185 l 0
 55 257 l 0
 443 257 l 0
EndSplineSet
Comment: "GDL_order: 0+AAoA-mark: 80+AAoA" 
EndChar

StartChar: period
Encoding: 17 46 15
Width: 221
VWidth: 0
GlyphClass: 2
Flags: HW
LayerCount: 2
Fore
SplineSet
181 50 m 0
 181 13 147 -18 111 -18 c 0
 74 -18 40 13 40 50 c 0
 40 88 74 118 111 118 c 0
 147 118 181 88 181 50 c 0
EndSplineSet
Comment: "GDL_order: 0+AAoA-mark: 80+AAoA" 
EndChar

StartChar: slash
Encoding: 18 47 16
Width: 516
VWidth: 0
GlyphClass: 2
Flags: HW
LayerCount: 2
Fore
SplineSet
460 766 m 0
 110 -233 l 0
 55 -178 l 0
 405 819 l 0
 460 766 l 0
EndSplineSet
Comment: "GDL_order: 0+AAoA-mark: 80+AAoA" 
EndChar

StartChar: zero
Encoding: 19 48 17
Width: 502
VWidth: 0
GlyphClass: 2
Flags: HW
LayerCount: 2
Fore
SplineSet
462 330 m 0
 462 155 423 -13 251 -13 c 0
 79 -13 40 155 40 330 c 0
 40 505 79 655 251 655 c 0
 423 655 462 505 462 330 c 0
362 330 m 0
 362 461 350 576 251 576 c 0
 150 576 140 460 140 330 c 0
 140 199 150 66 251 66 c 0
 350 66 362 199 362 330 c 0
EndSplineSet
Comment: "mark: 1+AAoA" 
EndChar

StartChar: one
Encoding: 20 49 18
Width: 502
VWidth: 0
GlyphClass: 2
Flags: HW
LayerCount: 2
Fore
SplineSet
345 0 m 0
 250 0 l 0
 250 529 l 0
 208 493 159 466 106 452 c 0
 106 538 l 0
 165 558 213 596 248 643 c 0
 345 643 l 0
 345 0 l 0
EndSplineSet
Comment: "mark: 1+AAoA" 
EndChar

StartChar: two
Encoding: 21 50 19
Width: 502
VWidth: 0
GlyphClass: 2
Flags: HW
LayerCount: 2
Fore
SplineSet
456 0 m 0
 46 0 l 0
 46 93 l 0
 336 313 354 411 354 468 c 0
 354 534 326 573 263 573 c 0
 203 573 169 537 163 467 c 0
 59 467 l 0
 65 578 137 655 262 655 c 0
 385 655 456 570 456 479 c 0
 456 383 429 287 157 80 c 0
 456 80 l 0
 456 0 l 0
EndSplineSet
Comment: "mark: 1+AAoA" 
EndChar

StartChar: three
Encoding: 22 51 20
Width: 502
VWidth: 0
GlyphClass: 2
Flags: HW
LayerCount: 2
Fore
SplineSet
460 174 m 0
 460 66 366 -13 249 -13 c 0
 104 -13 41 71 41 173 c 0
 146 173 l 0
 150 118 177 65 248 65 c 0
 306 65 359 111 359 173 c 0
 359 270 315 295 219 295 c 0
 219 375 l 0
 308 375 347 402 347 483 c 0
 347 553 293 577 248 577 c 0
 193 577 159 540 151 475 c 0
 50 475 l 0
 60 589 131 655 247 655 c 0
 369 655 449 580 449 481 c 0
 449 397 410 361 364 337 c 0
 418 311 460 276 460 174 c 0
EndSplineSet
Comment: "mark: 1+AAoA" 
EndChar

StartChar: four
Encoding: 23 52 21
Width: 502
VWidth: 0
GlyphClass: 2
Flags: HW
LayerCount: 2
Fore
SplineSet
478 151 m 0
 398 151 l 0
 398 0 l 0
 303 0 l 0
 303 151 l 0
 23 151 l 0
 23 251 l 0
 281 643 l 0
 398 643 l 0
 398 235 l 0
 478 235 l 0
 478 151 l 0
303 235 m 0
 303 538 l 0
 108 235 l 0
 303 235 l 0
EndSplineSet
Comment: "mark: 1+AAoA" 
EndChar

StartChar: five
Encoding: 24 53 22
Width: 502
VWidth: 0
GlyphClass: 2
Flags: HW
LayerCount: 2
Fore
SplineSet
459 215 m 0
 459 101 369 -12 252 -12 c 0
 126 -12 45 50 42 158 c 0
 145 158 l 0
 145 97 185 67 245 67 c 0
 308 67 357 124 357 212 c 0
 357 297 329 350 257 350 c 0
 200 350 167 315 143 265 c 0
 52 265 l 0
 66 643 l 0
 420 643 l 0
 420 559 l 0
 163 559 l 0
 153 369 l 0
 183 405 218 425 283 425 c 0
 395 425 459 325 459 215 c 0
EndSplineSet
Comment: "mark: 1+AAoA" 
EndChar

StartChar: six
Encoding: 25 54 23
Width: 502
VWidth: 0
GlyphClass: 2
Flags: HW
LayerCount: 2
Fore
SplineSet
464 200 m 0
 464 112 419 -13 256 -13 c 0
 67 -13 38 112 38 301 c 0
 38 466 73 655 263 655 c 0
 376 655 435 595 448 488 c 0
 350 488 l 0
 346 551 313 577 263 577 c 0
 150 577 137 399 137 321 c 0
 166 366 201 401 279 401 c 0
 428 401 464 281 464 200 c 0
361 196 m 0
 361 280 330 326 257 326 c 0
 182 326 151 280 151 196 c 0
 151 112 182 65 257 65 c 0
 330 65 361 112 361 196 c 0
EndSplineSet
Comment: "mark: 1+AAoA" 
EndChar

StartChar: seven
Encoding: 26 55 24
Width: 502
VWidth: 0
GlyphClass: 2
Flags: HW
LayerCount: 2
Fore
SplineSet
455 542 m 0
 242 0 l 0
 128 0 l 0
 362 561 l 0
 47 561 l 0
 47 643 l 0
 455 643 l 0
 455 542 l 0
EndSplineSet
Comment: "mark: 1+AAoA" 
EndChar

StartChar: eight
Encoding: 27 56 25
Width: 502
VWidth: 0
GlyphClass: 2
Flags: HW
LayerCount: 2
Fore
SplineSet
467 165 m 0
 467 33 351 -12 251 -12 c 0
 150 -12 36 35 36 165 c 0
 36 266 100 318 158 342 c 0
 106 364 52 409 52 495 c 0
 52 609 158 655 251 655 c 0
 346 655 451 611 451 494 c 0
 451 414 394 363 340 342 c 0
 394 323 467 268 467 165 c 0
352 478 m 0
 352 540 314 577 251 577 c 0
 189 577 151 540 151 478 c 0
 151 418 196 380 251 380 c 0
 307 380 352 418 352 478 c 0
366 185 m 0
 366 252 325 301 251 301 c 0
 179 301 136 251 136 185 c 0
 136 118 173 66 251 66 c 0
 332 66 366 119 366 185 c 0
EndSplineSet
Comment: "mark: 1+AAoA" 
EndChar

StartChar: nine
Encoding: 28 57 26
Width: 502
VWidth: 0
GlyphClass: 2
Flags: HW
LayerCount: 2
Fore
SplineSet
464 341 m 0
 464 176 425 -13 239 -13 c 0
 129 -13 63 49 53 155 c 0
 152 155 l 0
 155 91 190 65 239 65 c 0
 349 65 365 238 365 321 c 0
 334 269 290 241 222 241 c 0
 70 241 38 365 38 442 c 0
 38 533 86 655 246 655 c 0
 438 655 464 526 464 341 c 0
350 446 m 0
 350 531 320 577 245 577 c 0
 171 577 141 531 141 446 c 0
 141 362 171 316 245 316 c 0
 320 316 350 362 350 446 c 0
EndSplineSet
Comment: "mark: 1+AAoA" 
EndChar

StartChar: colon
Encoding: 29 58 27
Width: 221
VWidth: 0
GlyphClass: 2
Flags: HW
LayerCount: 2
Fore
SplineSet
181 392 m 0
 181 355 147 324 111 324 c 0
 74 324 40 355 40 392 c 0
 40 430 74 461 111 461 c 0
 147 461 181 430 181 392 c 0
181 51 m 0
 181 14 147 -18 111 -18 c 0
 74 -18 40 14 40 51 c 0
 40 89 74 119 111 119 c 0
 147 119 181 89 181 51 c 0
EndSplineSet
Comment: "GDL_order: 0+AAoA-mark: 80+AAoA" 
EndChar

StartChar: semicolon
Encoding: 30 59 28
Width: 226
VWidth: 0
GlyphClass: 2
Flags: HW
LayerCount: 2
Fore
SplineSet
181 393 m 0
 181 356 147 324 111 324 c 0
 74 324 40 356 40 393 c 0
 40 431 74 461 111 461 c 0
 147 461 181 431 181 393 c 0
179 44 m 0
 179 -29 131 -92 93 -116 c 0
 81 -106 l 0
 108 -86 130 -47 130 3 c 0
 130 8 130 12 129 16 c 0
 108 6 76 -4 65 -4 c 0
 53 -4 40 16 40 49 c 0
 40 86 72 119 107 119 c 0
 147 119 179 85 179 44 c 0
EndSplineSet
Comment: "GDL_order: 0+AAoA-mark: 80+AAoA" 
EndChar

StartChar: less
Encoding: 31 60 29
Width: 891
VWidth: 0
GlyphClass: 2
Flags: HW
LayerCount: 2
Fore
SplineSet
712 100 m 0
 712 34 l 0
 178 238 l 0
 178 295 l 0
 712 499 l 0
 712 434 l 0
 263 267 l 0
 712 100 l 0
EndSplineSet
Comment: "mark: 1+AAoA" 
EndChar

StartChar: equal
Encoding: 32 61 30
Width: 581
VWidth: 0
GlyphClass: 2
Flags: HW
LayerCount: 2
Fore
SplineSet
535 166 m 0
 535 95 l 0
 45 95 l 0
 45 166 l 0
 535 166 l 0
535 350 m 0
 535 278 l 0
 45 278 l 0
 45 350 l 0
 535 350 l 0
EndSplineSet
Comment: "GDL_order: 0+AAoA-mark: 80+AAoA" 
EndChar

StartChar: greater
Encoding: 33 62 31
Width: 891
VWidth: 0
GlyphClass: 2
Flags: HW
LayerCount: 2
Fore
SplineSet
712 295 m 0
 712 238 l 0
 178 34 l 0
 178 100 l 0
 627 267 l 0
 178 434 l 0
 178 499 l 0
 712 295 l 0
EndSplineSet
Comment: "mark: 1+AAoA" 
EndChar

StartChar: question
Encoding: 34 63 32
Width: 447
VWidth: 0
GlyphClass: 2
Flags: HW
LayerCount: 2
Fore
SplineSet
268 56 m 0
 268 20 239 -4 209 -4 c 0
 178 -4 150 21 150 56 c 0
 150 92 178 114 209 114 c 0
 239 114 268 92 268 56 c 0
392 587 m 0
 392 435 245 453 245 345 c 0
 245 200 l 0
 173 200 l 0
 173 360 l 0
 173 486 320 481 320 587 c 0
 320 643 268 701 209 701 c 0
 140 701 99 627 99 589 c 0
 99 551 l 0
 27 551 l 0
 27 589 l 0
 27 646 81 773 209 773 c 0
 320 773 392 681 392 587 c 0
EndSplineSet
Comment: "GDL_order: 0+AAoA-mark: 80+AAoA" 
EndChar

StartChar: at
Encoding: 35 64 33
Width: 903
VWidth: 0
GlyphClass: 2
Flags: HW
LayerCount: 2
Fore
SplineSet
855 268 m 0
 855 141 784 13 671 13 c 0
 613 13 574 42 550 94 c 0
 518 44 480 17 418 17 c 0
 318 17 247 114 247 228 c 0
 247 353 315 442 415 442 c 0
 467 442 501 427 537 383 c 0
 537 433 l 0
 632 433 l 0
 632 135 l 0
 632 102 660 96 679 96 c 0
 712 96 757 142 757 256 c 0
 757 464 639 556 455 556 c 0
 301 556 145 456 145 244 c 0
 145 50 264 -80 455 -80 c 0
 534 -80 573 -77 630 -60 c 0
 630 -148 l 0
 558 -167 524 -169 473 -169 c 0
 254 -169 47 -55 47 247 c 0
 47 494 243 643 453 643 c 0
 689 643 855 506 855 268 c 0
535 236 m 0
 535 313 506 370 441 370 c 0
 372 370 346 298 346 233 c 0
 346 165 366 89 440 89 c 0
 507 89 535 167 535 236 c 0
EndSplineSet
Comment: "mark: 1+AAoA" 
EndChar

StartChar: A
Encoding: 36 65 34
Width: 656
VWidth: 0
GlyphClass: 2
Flags: HW
LayerCount: 2
Fore
SplineSet
644 0 m 0
 539 0 l 0
 474 160 l 0
 179 160 l 0
 116 0 l 0
 12 0 l 0
 271 643 l 0
 381 643 l 0
 644 0 l 0
437 244 m 0
 325 528 l 0
 215 244 l 0
 437 244 l 0
EndSplineSet
Comment: "mark: 1+AAoA" 
EndChar

StartChar: B
Encoding: 37 66 35
Width: 600
VWidth: 0
GlyphClass: 2
Flags: HW
LayerCount: 2
Fore
SplineSet
548 174 m 0
 548 69 445 0 347 0 c 0
 69 0 l 0
 69 643 l 0
 329 643 l 0
 431 643 522 593 522 485 c 0
 522 408 465 360 406 340 c 0
 483 318 548 264 548 174 c 0
422 467 m 0
 422 522 385 557 298 557 c 0
 172 557 l 0
 172 376 l 0
 294 376 l 0
 383 376 422 415 422 467 c 0
444 190 m 0
 444 259 385 294 294 294 c 0
 172 294 l 0
 172 86 l 0
 297 86 l 0
 382 86 444 124 444 190 c 0
EndSplineSet
Comment: "mark: 1+AAoA" 
EndChar

StartChar: C
Encoding: 38 67 36
Width: 620
VWidth: 0
GlyphClass: 2
Flags: HW
LayerCount: 2
Fore
SplineSet
568 186 m 0
 563 71 463 -13 322 -13 c 0
 122 -13 51 144 51 318 c 0
 51 495 126 655 323 655 c 0
 485 655 559 575 563 460 c 0
 460 460 l 0
 457 535 417 574 323 574 c 0
 209 574 157 487 157 318 c 0
 157 141 212 68 321 68 c 0
 403 68 456 108 460 186 c 0
 568 186 l 0
EndSplineSet
Comment: "mark: 1+AAoA" 
EndChar

StartChar: D
Encoding: 39 68 37
Width: 643
VWidth: 0
GlyphClass: 2
Flags: HW
LayerCount: 2
Fore
SplineSet
592 322 m 0
 592 147 494 0 267 0 c 0
 69 0 l 0
 69 643 l 0
 267 643 l 0
 497 643 592 499 592 322 c 0
489 322 m 0
 489 476 407 557 268 557 c 0
 172 557 l 0
 172 86 l 0
 268 86 l 0
 407 86 489 169 489 322 c 0
EndSplineSet
Comment: "mark: 1+AAoA" 
EndChar

StartChar: E
Encoding: 40 69 38
Width: 546
VWidth: 0
GlyphClass: 2
Flags: HW
LayerCount: 2
Fore
SplineSet
484 0 m 0
 69 0 l 0
 69 643 l 0
 475 643 l 0
 475 557 l 0
 170 557 l 0
 170 372 l 0
 463 372 l 0
 463 289 l 0
 170 289 l 0
 170 86 l 0
 484 86 l 0
 484 0 l 0
EndSplineSet
Comment: "mark: 1+AAoA" 
EndChar

StartChar: F
Encoding: 41 70 39
Width: 511
VWidth: 0
GlyphClass: 2
Flags: HW
LayerCount: 2
Fore
SplineSet
436 287 m 0
 172 287 l 0
 172 0 l 0
 69 0 l 0
 69 643 l 0
 454 643 l 0
 454 557 l 0
 172 557 l 0
 172 372 l 0
 436 372 l 0
 436 287 l 0
EndSplineSet
Comment: "mark: 1+AAoA" 
EndChar

StartChar: G
Encoding: 42 71 40
Width: 682
VWidth: 0
GlyphClass: 2
Flags: HW
LayerCount: 2
Fore
SplineSet
613 30 m 0
 527 2 435 -13 380 -13 c 0
 128 -13 51 160 51 336 c 0
 51 516 176 655 368 655 c 0
 536 655 619 562 619 469 c 0
 514 469 l 0
 513 520 455 569 371 569 c 0
 217 569 158 461 158 334 c 0
 158 193 220 74 372 74 c 0
 414 74 463 80 509 92 c 0
 509 255 l 0
 373 255 l 0
 373 343 l 0
 613 343 l 0
 613 30 l 0
EndSplineSet
Comment: "mark: 1+AAoA" 
EndChar

StartChar: H
Encoding: 43 72 41
Width: 633
VWidth: 0
GlyphClass: 2
Flags: HW
LayerCount: 2
Fore
SplineSet
565 0 m 0
 461 0 l 0
 461 289 l 0
 171 289 l 0
 171 0 l 0
 69 0 l 0
 69 643 l 0
 171 643 l 0
 171 374 l 0
 461 374 l 0
 461 643 l 0
 565 643 l 0
 565 0 l 0
EndSplineSet
Comment: "mark: 1+AAoA" 
EndChar

StartChar: I
Encoding: 44 73 42
Width: 241
VWidth: 0
GlyphClass: 2
Flags: HW
LayerCount: 2
Fore
SplineSet
172 0 m 0
 69 0 l 0
 69 643 l 0
 172 643 l 0
 172 0 l 0
EndSplineSet
Comment: "mark: 1+AAoA" 
EndChar

StartChar: J
Encoding: 45 74 43
Width: 524
VWidth: 0
GlyphClass: 2
Flags: HW
LayerCount: 2
Fore
SplineSet
455 191 m 0
 455 67 363 -13 248 -13 c 0
 119 -13 51 63 51 182 c 0
 155 182 l 0
 156 101 196 74 250 74 c 0
 310 74 351 111 351 194 c 0
 351 644 l 0
 455 644 l 0
 455 191 l 0
EndSplineSet
Comment: "mark: 1+AAoA" 
EndChar

StartChar: K
Encoding: 46 75 44
Width: 601
VWidth: 0
GlyphClass: 2
Flags: HW
LayerCount: 2
Fore
SplineSet
576 0 m 0
 442 0 l 0
 172 333 l 0
 172 0 l 0
 69 0 l 0
 69 643 l 0
 172 643 l 0
 172 368 l 0
 420 643 l 0
 545 643 l 0
 287 362 l 0
 576 0 l 0
EndSplineSet
Comment: "mark: 1+AAoA" 
EndChar

StartChar: L
Encoding: 47 76 45
Width: 483
VWidth: 0
GlyphClass: 2
Flags: HW
LayerCount: 2
Fore
SplineSet
459 0 m 0
 69 0 l 0
 69 643 l 0
 172 643 l 0
 172 86 l 0
 459 86 l 0
 459 0 l 0
EndSplineSet
Comment: "mark: 1+AAoA" 
EndChar

StartChar: M
Encoding: 48 77 46
Width: 809
VWidth: 0
GlyphClass: 2
Flags: HW
LayerCount: 2
Fore
SplineSet
740 0 m 0
 639 0 l 0
 639 550 l 0
 448 0 l 0
 358 0 l 0
 169 547 l 0
 169 0 l 0
 69 0 l 0
 69 643 l 0
 234 643 l 0
 404 142 l 0
 575 644 l 0
 740 644 l 0
 740 0 l 0
EndSplineSet
Comment: "mark: 1+AAoA" 
EndChar

StartChar: N
Encoding: 49 78 47
Width: 657
VWidth: 0
GlyphClass: 2
Flags: HW
LayerCount: 2
Fore
SplineSet
589 0 m 0
 441 0 l 0
 169 522 l 0
 169 0 l 0
 69 0 l 0
 69 643 l 0
 215 643 l 0
 487 120 l 0
 487 643 l 0
 589 643 l 0
 589 0 l 0
EndSplineSet
Comment: "mark: 1+AAoA" 
EndChar

StartChar: O
Encoding: 50 79 48
Width: 695
VWidth: 0
GlyphClass: 2
Flags: HW
LayerCount: 2
Fore
SplineSet
643 330 m 0
 643 143 545 -13 348 -13 c 0
 148 -13 51 146 51 330 c 0
 51 517 152 655 348 655 c 0
 548 655 643 513 643 330 c 0
536 330 m 0
 536 471 490 569 348 569 c 0
 206 569 158 471 158 330 c 0
 158 188 206 74 348 74 c 0
 490 74 536 188 536 330 c 0
EndSplineSet
Comment: "mark: 1+AAoA" 
EndChar

StartChar: P
Encoding: 51 80 49
Width: 565
VWidth: 0
GlyphClass: 2
Flags: HW
LayerCount: 2
Fore
SplineSet
512 452 m 0
 512 296 388 263 266 263 c 0
 172 263 l 0
 172 0 l 0
 69 0 l 0
 69 643 l 0
 266 643 l 0
 392 643 512 606 512 452 c 0
411 452 m 0
 411 530 357 557 257 557 c 0
 172 557 l 0
 172 349 l 0
 257 349 l 0
 355 349 411 375 411 452 c 0
EndSplineSet
Comment: "mark: 1+AAoA" 
EndChar

StartChar: Q
Encoding: 52 81 50
Width: 714
VWidth: 0
GlyphClass: 2
Flags: HW
LayerCount: 2
Fore
SplineSet
685 0 m 0
 447 0 l 0
 401 -9 371 -13 348 -13 c 0
 147 -13 51 147 51 330 c 0
 51 517 151 655 348 655 c 0
 548 655 643 513 643 330 c 0
 643 227 613 133 554 76 c 0
 685 76 l 0
 685 0 l 0
536 330 m 0
 536 471 490 569 348 569 c 0
 206 569 158 471 158 330 c 0
 158 188 206 74 348 74 c 0
 490 74 536 188 536 330 c 0
EndSplineSet
Comment: "mark: 1+AAoA" 
EndChar

StartChar: R
Encoding: 53 82 51
Width: 576
VWidth: 0
GlyphClass: 2
Flags: HW
LayerCount: 2
Fore
SplineSet
540 0 m 0
 434 0 l 0
 415 76 416 97 405 154 c 0
 383 266 364 282 262 282 c 0
 172 282 l 0
 172 0 l 0
 69 0 l 0
 69 643 l 0
 287 643 l 0
 443 643 524 594 524 468 c 0
 524 398 462 353 399 325 c 0
 438 316 469 300 486 258 c 0
 507 206 506 86 540 0 c 0
420 461 m 0
 420 532 361 557 286 557 c 0
 172 557 l 0
 172 367 l 0
 283 367 l 0
 358 367 420 394 420 461 c 0
EndSplineSet
Comment: "mark: 1+AAoA" 
EndChar

StartChar: S
Encoding: 54 83 52
Width: 595
VWidth: 0
GlyphClass: 2
Flags: HW
LayerCount: 2
Fore
SplineSet
543 181 m 0
 543 36 399 -13 279 -13 c 0
 153 -13 51 64 51 195 c 0
 157 195 l 0
 158 122 207 74 279 74 c 0
 346 74 441 88 441 172 c 0
 441 354 63 215 63 472 c 0
 63 590 187 655 290 655 c 0
 408 655 520 606 520 475 c 0
 415 475 l 0
 415 552 352 571 287 571 c 0
 223 571 166 544 166 475 c 0
 166 321 543 430 543 181 c 0
EndSplineSet
Comment: "mark: 1+AAoA" 
EndChar

StartChar: T
Encoding: 55 84 53
Width: 553
VWidth: 0
GlyphClass: 2
Flags: HW
LayerCount: 2
Fore
SplineSet
532 557 m 0
 328 557 l 0
 328 0 l 0
 224 0 l 0
 224 557 l 0
 21 557 l 0
 21 643 l 0
 532 643 l 0
 532 557 l 0
EndSplineSet
Comment: "mark: 1+AAoA" 
EndChar

StartChar: U
Encoding: 56 85 54
Width: 661
VWidth: 0
GlyphClass: 2
Flags: HW
LayerCount: 2
Fore
SplineSet
594 279 m 0
 594 79 502 -13 329 -13 c 0
 151 -13 69 82 69 279 c 0
 69 643 l 0
 172 643 l 0
 172 279 l 0
 172 111 239 74 330 74 c 0
 420 74 489 110 489 279 c 0
 489 643 l 0
 594 643 l 0
 594 279 l 0
EndSplineSet
Comment: "mark: 1+AAoA" 
EndChar

StartChar: V
Encoding: 57 86 55
Width: 607
VWidth: 0
GlyphClass: 2
Flags: HW
LayerCount: 2
Fore
SplineSet
594 643 m 0
 361 0 l 0
 243 0 l 0
 12 643 l 0
 126 643 l 0
 303 126 l 0
 481 643 l 0
 594 643 l 0
EndSplineSet
Comment: "mark: 1+AAoA" 
EndChar

StartChar: W
Encoding: 58 87 56
Width: 874
VWidth: 0
GlyphClass: 2
Flags: HW
LayerCount: 2
Fore
SplineSet
862 643 m 0
 681 0 l 0
 577 0 l 0
 436 517 l 0
 296 0 l 0
 192 0 l 0
 12 643 l 0
 122 643 l 0
 245 142 l 0
 378 643 l 0
 496 643 l 0
 628 142 l 0
 751 643 l 0
 862 643 l 0
EndSplineSet
Comment: "mark: 1+AAoA" 
EndChar

StartChar: X
Encoding: 59 88 57
Width: 624
VWidth: 0
GlyphClass: 2
Flags: HW
LayerCount: 2
Fore
SplineSet
605 0 m 0
 479 0 l 0
 304 267 l 0
 132 0 l 0
 17 0 l 0
 249 340 l 0
 44 643 l 0
 170 643 l 0
 318 413 l 0
 463 643 l 0
 579 643 l 0
 372 340 l 0
 605 0 l 0
EndSplineSet
Comment: "mark: 1+AAoA" 
EndChar

StartChar: Y
Encoding: 60 89 58
Width: 590
VWidth: 0
GlyphClass: 2
Flags: HW
LayerCount: 2
Fore
SplineSet
577 643 m 0
 346 252 l 0
 346 0 l 0
 243 0 l 0
 243 252 l 0
 12 643 l 0
 134 643 l 0
 298 347 l 0
 461 643 l 0
 577 643 l 0
EndSplineSet
Comment: "mark: 1+AAoA" 
EndChar

StartChar: Z
Encoding: 61 90 59
Width: 554
VWidth: 0
GlyphClass: 2
Flags: HW
LayerCount: 2
Fore
SplineSet
513 0 m 0
 40 0 l 0
 40 102 l 0
 389 557 l 0
 58 557 l 0
 58 643 l 0
 505 643 l 0
 505 540 l 0
 156 86 l 0
 513 86 l 0
 513 0 l 0
EndSplineSet
Comment: "mark: 1+AAoA" 
EndChar

StartChar: bracketleft
Encoding: 62 91 60
Width: 351
VWidth: 0
GlyphClass: 2
Flags: HW
LayerCount: 2
Fore
SplineSet
264 -177 m 0
 87 -177 l 0
 87 643 l 0
 264 643 l 0
 264 585 l 0
 174 585 l 0
 174 -120 l 0
 264 -120 l 0
 264 -177 l 0
EndSplineSet
Comment: "mark: 1+AAoA" 
EndChar

StartChar: backslash
Encoding: 63 92 61
Width: 516
VWidth: 0
GlyphClass: 2
Flags: HW
LayerCount: 2
Fore
SplineSet
460 -178 m 0
 406 -233 l 0
 55 766 l 0
 110 819 l 0
 460 -178 l 0
EndSplineSet
Comment: "GDL_order: 0+AAoA-mark: 80+AAoA" 
EndChar

StartChar: bracketright
Encoding: 64 93 62
Width: 351
VWidth: 0
GlyphClass: 2
Flags: HW
LayerCount: 2
Fore
SplineSet
264 -177 m 0
 87 -177 l 0
 87 -120 l 0
 178 -120 l 0
 178 585 l 0
 87 585 l 0
 87 643 l 0
 264 643 l 0
 264 -177 l 0
EndSplineSet
Comment: "mark: 1+AAoA" 
EndChar

StartChar: asciicircum
Encoding: 65 94 63
Width: 494
VWidth: 0
GlyphClass: 4
Flags: HW
AnchorPoint: "U" 247 485 mark 0
AnchorPoint: "UM" 226 495 basemark 0
LayerCount: 2
Fore
SplineSet
476 630 m 0
 437 591 l 0
 247 780 l 0
 57 591 l 0
 18 630 l 0
 247 859 l 0
 476 630 l 0
EndSplineSet
Comment: "GDL_order: 0+AAoA-mark: 80+AAoA" 
EndChar

StartChar: underscore
Encoding: 66 95 64
Width: 576
VWidth: 0
GlyphClass: 4
Flags: HW
LayerCount: 2
Fore
SplineSet
576 -158 m 0
 0 -158 l 0
 0 -86 l 0
 576 -86 l 0
 576 -158 l 0
EndSplineSet
Comment: "GDL_order: 0+AAoA-mark: 80+AAoA" 
EndChar

StartChar: grave
Encoding: 67 96 65
Width: 211
VWidth: 0
GlyphClass: 4
Flags: HW
LayerCount: 2
Fore
SplineSet
162 534 m 0
 105 534 l 0
 -23 689 l 0
 76 689 l 0
 162 534 l 0
EndSplineSet
Comment: "mark: 1+AAoA" 
EndChar

StartChar: a
Encoding: 68 97 66
Width: 491
VWidth: 0
GlyphClass: 4
Flags: HW
LayerCount: 2
Fore
SplineSet
443 0 m 0
 353 0 l 0
 349 19 345 40 342 60 c 0
 296 9 264 -12 207 -12 c 0
 128 -12 42 34 42 119 c 0
 42 251 170 284 274 284 c 0
 337 284 l 0
 338 291 338 298 338 304 c 0
 338 357 318 393 248 393 c 0
 200 393 162 374 159 324 c 0
 64 324 l 0
 64 420 149 456 247 456 c 0
 310 456 397 443 421 376 c 0
 428 356 430 309 430 267 c 0
 430 137 l 0
 430 88 433 28 443 0 c 0
336 220 m 0
 325 221 305 222 292 222 c 0
 227 222 138 200 138 129 c 0
 138 84 175 54 220 54 c 0
 319 54 336 131 336 220 c 0
EndSplineSet
Comment: "mark: 1+AAoA" 
EndChar

StartChar: b
Encoding: 69 98 67
Width: 532
VWidth: 0
GlyphClass: 4
Flags: HW
LayerCount: 2
Fore
SplineSet
490 233 m 0
 490 78 397 -12 295 -12 c 0
 230 -12 182 17 154 52 c 0
 154 0 l 0
 60 0 l 0
 60 643 l 0
 152 643 l 0
 152 391 l 0
 177 423 219 456 297 456 c 0
 447 456 490 321 490 233 c 0
392 227 m 0
 392 308 362 397 272 397 c 0
 191 397 153 321 153 228 c 0
 153 128 190 54 272 54 c 0
 345 54 391 127 392 227 c 0
EndSplineSet
Comment: "mark: 1+AAoA" 
EndChar

StartChar: c
Encoding: 70 99 68
Width: 462
VWidth: 0
GlyphClass: 4
Flags: HW
LayerCount: 2
Fore
SplineSet
420 154 m 0
 420 61 370 -12 240 -12 c 0
 107 -12 43 66 43 220 c 0
 43 376 104 456 234 456 c 0
 359 456 417 401 417 313 c 0
 417 309 417 304 417 300 c 0
 325 300 l 0
 325 304 326 309 326 313 c 0
 326 371 280 391 232 391 c 0
 172 391 134 349 134 221 c 0
 134 98 168 53 238 53 c 0
 308 53 327 111 327 154 c 0
 420 154 l 0
EndSplineSet
Comment: "mark: 1+AAoA" 
EndChar

StartChar: d
Encoding: 71 100 69
Width: 533
VWidth: 0
GlyphClass: 4
Flags: HW
LayerCount: 2
Fore
SplineSet
471 0 m 0
 378 0 l 0
 378 54 l 0
 349 19 303 -12 250 -12 c 0
 135 -12 43 87 43 215 c 0
 43 337 100 456 232 456 c 0
 293 456 344 437 378 393 c 0
 378 643 l 0
 471 643 l 0
 471 0 l 0
377 219 m 0
 377 320 328 396 252 396 c 0
 166 396 137 298 137 222 c 0
 137 137 181 57 258 57 c 0
 343 57 377 149 377 219 c 0
EndSplineSet
Comment: "mark: 1+AAoA" 
EndChar

StartChar: e
Encoding: 72 101 70
Width: 495
VWidth: 0
GlyphClass: 4
Flags: HW
LayerCount: 2
Fore
SplineSet
447 141 m 0
 435 59 375 -12 247 -12 c 0
 97 -12 43 110 43 221 c 0
 43 341 101 456 253 456 c 0
 417 456 452 331 452 245 c 0
 452 233 451 218 449 206 c 0
 141 206 l 0
 141 117 167 52 249 52 c 0
 318 52 343 98 349 141 c 0
 447 141 l 0
351 270 m 0
 351 275 352 281 352 286 c 0
 352 346 324 394 248 394 c 0
 172 394 146 328 141 270 c 0
 351 270 l 0
EndSplineSet
Comment: "mark: 1+AAoA" 
EndChar

StartChar: f
Encoding: 73 102 71
Width: 301
VWidth: 0
GlyphClass: 4
Flags: HW
LayerCount: 2
Fore
SplineSet
301 572 m 0
 287 579 271 584 252 584 c 0
 206 584 189 563 189 510 c 0
 189 445 l 0
 291 445 l 0
 291 381 l 0
 189 381 l 0
 189 0 l 0
 94 0 l 0
 94 381 l 0
 9 381 l 0
 9 445 l 0
 94 445 l 0
 94 513 l 0
 94 621 142 652 229 652 c 0
 252 652 276 649 301 642 c 0
 301 572 l 0
EndSplineSet
Comment: "mark: 1+AAoA" 
EndChar

StartChar: g
Encoding: 74 103 72
Width: 532
VWidth: 0
GlyphClass: 4
Flags: HW
LayerCount: 2
Fore
SplineSet
471 18 m 0
 471 -98 395 -177 253 -177 c 0
 101 -177 66 -89 66 -40 c 0
 161 -40 l 0
 161 -90 210 -115 263 -115 c 0
 345 -115 377 -69 377 80 c 0
 348 35 293 8 243 8 c 0
 118 8 43 86 43 230 c 0
 43 365 120 456 234 456 c 0
 305 456 348 440 377 399 c 0
 377 445 l 0
 471 445 l 0
 471 18 l 0
377 230 m 0
 377 329 341 394 255 394 c 0
 164 394 138 312 138 230 c 0
 138 139 176 73 256 73 c 0
 344 73 377 153 377 230 c 0
EndSplineSet
Comment: "mark: 1+AAoA" 
EndChar

StartChar: h
Encoding: 75 104 73
Width: 517
VWidth: 0
GlyphClass: 4
Flags: HW
LayerCount: 2
Fore
SplineSet
457 0 m 0
 362 0 l 0
 362 276 l 0
 362 358 324 394 274 394 c 0
 196 394 154 332 154 288 c 0
 154 0 l 0
 60 0 l 0
 60 643 l 0
 154 643 l 0
 154 392 l 0
 183 432 227 456 296 456 c 0
 409 456 457 397 457 285 c 0
 457 0 l 0
EndSplineSet
Comment: "mark: 1+AAoA" 
EndChar

StartChar: i
Encoding: 76 105 74
Width: 214
VWidth: 0
GlyphClass: 4
Flags: HW
LayerCount: 2
Fore
SplineSet
159 549 m 0
 55 549 l 0
 55 643 l 0
 159 643 l 0
 159 549 l 0
154 0 m 0
 60 0 l 0
 60 445 l 0
 154 445 l 0
 154 0 l 0
EndSplineSet
Comment: "mark: 1+AAoA" 
EndChar

StartChar: j
Encoding: 77 106 75
Width: 275
VWidth: 0
GlyphClass: 4
Flags: HW
LayerCount: 2
Fore
SplineSet
218 588 m 0
 161 549 l 0
 116 604 l 0
 172 643 l 0
 218 588 l 0
214 -72 m 0
 214 -133 179 -188 97 -188 c 0
 59 -188 8 -172 -24 -142 c 0
 28 -83 l 0
 42 -99 61 -108 80 -108 c 0
 108 -108 120 -86 120 -45 c 0
 120 445 l 0
 214 445 l 0
 214 -72 l 0
EndSplineSet
Comment: "mark: 1+AAoA" 
EndChar

StartChar: k
Encoding: 78 107 76
Width: 459
VWidth: 0
GlyphClass: 4
Flags: HW
LayerCount: 2
Fore
SplineSet
443 0 m 0
 323 0 l 0
 154 235 l 0
 154 0 l 0
 60 0 l 0
 60 643 l 0
 154 643 l 0
 154 262 l 0
 314 445 l 0
 429 445 l 0
 256 252 l 0
 443 0 l 0
EndSplineSet
Comment: "mark: 1+AAoA" 
EndChar

StartChar: l
Encoding: 79 108 77
Width: 214
VWidth: 0
GlyphClass: 4
Flags: HW
LayerCount: 2
Fore
SplineSet
154 0 m 0
 60 0 l 0
 60 643 l 0
 154 643 l 0
 154 0 l 0
EndSplineSet
Comment: "mark: 1+AAoA" 
EndChar

StartChar: m
Encoding: 80 109 78
Width: 803
VWidth: 0
GlyphClass: 4
Flags: HW
LayerCount: 2
Fore
SplineSet
742 0 m 0
 648 0 l 0
 648 287 l 0
 648 349 617 394 556 394 c 0
 495 394 449 331 449 280 c 0
 449 0 l 0
 355 0 l 0
 355 287 l 0
 355 343 321 394 265 394 c 0
 198 394 154 327 154 278 c 0
 154 0 l 0
 60 0 l 0
 60 445 l 0
 154 445 l 0
 154 384 l 0
 188 430 229 456 289 456 c 0
 368 456 404 433 435 377 c 0
 477 436 521 456 581 456 c 0
 712 456 742 369 742 289 c 0
 742 0 l 0
EndSplineSet
Comment: "mark: 1+AAoA" 
EndChar

StartChar: n
Encoding: 81 110 79
Width: 518
VWidth: 0
GlyphClass: 4
Flags: HW
LayerCount: 2
Fore
SplineSet
453 0 m 0
 359 0 l 0
 359 286 l 0
 359 352 317 397 260 397 c 0
 198 397 150 347 150 273 c 0
 150 0 l 0
 56 0 l 0
 56 445 l 0
 150 445 l 0
 150 389 l 0
 179 432 217 456 289 456 c 0
 406 456 453 391 453 296 c 0
 453 0 l 0
EndSplineSet
Comment: "mark: 1+AAoA" 
EndChar

StartChar: o
Encoding: 82 111 80
Width: 531
VWidth: 0
GlyphClass: 4
Flags: HW
LayerCount: 2
Fore
SplineSet
488 222 m 0
 488 70 390 -12 266 -12 c 0
 138 -12 43 72 43 222 c 0
 43 374 140 456 266 456 c 0
 393 456 488 372 488 222 c 0
392 222 m 0
 392 313 352 394 266 394 c 0
 178 394 138 312 138 222 c 0
 138 133 178 52 266 52 c 0
 352 52 392 131 392 222 c 0
EndSplineSet
Comment: "mark: 1+AAoA" 
EndChar

StartChar: p
Encoding: 83 112 81
Width: 538
VWidth: 0
GlyphClass: 4
Flags: HW
LayerCount: 2
Fore
SplineSet
495 224 m 0
 495 86 432 -13 291 -13 c 0
 232 -13 193 11 154 44 c 0
 154 -177 l 0
 60 -177 l 0
 60 445 l 0
 154 445 l 0
 154 387 l 0
 195 429 234 456 288 456 c 0
 433 456 495 354 495 224 c 0
398 224 m 0
 398 308 363 393 275 393 c 0
 186 393 154 304 154 223 c 0
 154 126 189 51 274 51 c 0
 364 51 398 141 398 224 c 0
EndSplineSet
Comment: "mark: 1+AAoA" 
EndChar

StartChar: q
Encoding: 84 113 82
Width: 538
VWidth: 0
GlyphClass: 4
Flags: HW
LayerCount: 2
Fore
SplineSet
476 -177 m 0
 382 -177 l 0
 382 44 l 0
 342 11 305 -13 245 -13 c 0
 105 -13 43 86 43 224 c 0
 43 355 104 456 248 456 c 0
 305 456 345 429 382 387 c 0
 382 445 l 0
 476 445 l 0
 476 -177 l 0
384 223 m 0
 384 305 349 393 262 393 c 0
 173 393 139 306 139 224 c 0
 139 139 173 51 264 51 c 0
 348 51 384 126 384 223 c 0
EndSplineSet
Comment: "mark: 1+AAoA" 
EndChar

StartChar: r
Encoding: 85 114 83
Width: 330
VWidth: 0
GlyphClass: 4
Flags: HW
LayerCount: 2
Fore
SplineSet
314 367 m 0
 203 367 154 321 154 242 c 0
 154 0 l 0
 60 0 l 0
 60 445 l 0
 154 445 l 0
 154 381 l 0
 180 427 209 449 314 449 c 0
 314 367 l 0
EndSplineSet
Comment: "mark: 1+AAoA" 
EndChar

StartChar: s
Encoding: 86 115 84
Width: 453
VWidth: 0
GlyphClass: 4
Flags: HW
LayerCount: 2
Fore
SplineSet
410 133 m 0
 410 24 310 -12 214 -12 c 0
 119 -12 43 27 43 132 c 0
 137 132 l 0
 139 72 172 52 225 52 c 0
 270 52 316 77 316 124 c 0
 316 230 54 148 54 331 c 0
 54 396 104 456 225 456 c 0
 328 456 397 425 397 322 c 0
 303 322 l 0
 303 359 290 394 222 394 c 0
 180 394 147 368 147 332 c 0
 147 232 410 306 410 133 c 0
EndSplineSet
Comment: "mark: 1+AAoA" 
EndChar

StartChar: t
Encoding: 87 116 85
Width: 332
VWidth: 0
GlyphClass: 4
Flags: HW
LayerCount: 2
Fore
SplineSet
307 1 m 0
 282 -7 258 -12 232 -12 c 0
 155 -12 109 22 109 114 c 0
 109 382 l 0
 26 382 l 0
 26 445 l 0
 109 445 l 0
 109 527 l 0
 203 570 l 0
 203 445 l 0
 304 445 l 0
 304 382 l 0
 203 382 l 0
 203 125 l 0
 203 72 223 57 258 57 c 0
 276 57 292 59 307 64 c 0
 307 1 l 0
EndSplineSet
Comment: "mark: 1+AAoA" 
EndChar

StartChar: u
Encoding: 88 117 86
Width: 517
VWidth: 0
GlyphClass: 4
Flags: HW
LayerCount: 2
Fore
SplineSet
457 0 m 0
 362 0 l 0
 362 58 l 0
 334 13 296 -12 224 -12 c 0
 112 -12 60 46 60 148 c 0
 60 445 l 0
 154 445 l 0
 154 159 l 0
 154 92 197 48 252 48 c 0
 316 48 362 94 362 171 c 0
 362 445 l 0
 457 445 l 0
 457 0 l 0
EndSplineSet
Comment: "mark: 1+AAoA" 
EndChar

StartChar: v
Encoding: 89 118 87
Width: 479
VWidth: 0
GlyphClass: 4
Flags: HW
LayerCount: 2
Fore
SplineSet
467 445 m 0
 289 0 l 0
 190 0 l 0
 12 445 l 0
 117 445 l 0
 243 110 l 0
 367 445 l 0
 467 445 l 0
EndSplineSet
Comment: "mark: 1+AAoA" 
EndChar

StartChar: w
Encoding: 90 119 88
Width: 737
VWidth: 0
GlyphClass: 4
Flags: HW
LayerCount: 2
Fore
SplineSet
725 445 m 0
 580 0 l 0
 479 0 l 0
 369 350 l 0
 258 0 l 0
 157 0 l 0
 12 445 l 0
 110 445 l 0
 209 115 l 0
 310 445 l 0
 427 445 l 0
 528 115 l 0
 628 445 l 0
 725 445 l 0
EndSplineSet
Comment: "mark: 1+AAoA" 
EndChar

StartChar: x
Encoding: 91 120 89
Width: 487
VWidth: 0
GlyphClass: 4
Flags: HW
LayerCount: 2
Fore
SplineSet
472 0 m 0
 357 0 l 0
 236 170 l 0
 121 0 l 0
 15 0 l 0
 186 233 l 0
 29 445 l 0
 143 445 l 0
 250 294 l 0
 353 445 l 0
 459 445 l 0
 302 233 l 0
 472 0 l 0
EndSplineSet
Comment: "mark: 1+AAoA" 
EndChar

StartChar: y
Encoding: 92 121 90
Width: 479
VWidth: 0
GlyphClass: 4
Flags: HW
LayerCount: 2
Fore
SplineSet
467 445 m 0
 258 -101 l 0
 241 -148 206 -182 141 -182 c 0
 84 -182 39 -152 15 -101 c 0
 82 -59 l 0
 94 -86 112 -102 138 -102 c 0
 156 -102 168 -84 180 -51 c 0
 198 0 l 0
 12 445 l 0
 119 445 l 0
 247 126 l 0
 366 445 l 0
 467 445 l 0
EndSplineSet
Comment: "mark: 1+AAoA" 
EndChar

StartChar: z
Encoding: 93 122 91
Width: 429
VWidth: 0
GlyphClass: 4
Flags: HW
LayerCount: 2
Fore
SplineSet
385 0 m 0
 43 0 l 0
 43 80 l 0
 279 378 l 0
 56 378 l 0
 56 445 l 0
 381 445 l 0
 381 365 l 0
 144 66 l 0
 385 66 l 0
 385 0 l 0
EndSplineSet
Comment: "mark: 1+AAoA" 
EndChar

StartChar: braceleft
Encoding: 94 123 92
Width: 418
VWidth: 0
GlyphClass: 4
Flags: HW
LayerCount: 2
Fore
SplineSet
363 -428 m 0
 187 -428 175 -215 175 54 c 0
 175 146 70 172 70 225 c 0
 70 277 175 305 175 397 c 0
 175 665 187 878 363 878 c 0
 363 808 l 0
 263 808 247 656 247 382 c 0
 247 273 149 239 149 225 c 0
 149 211 247 178 247 68 c 0
 247 -205 263 -358 363 -358 c 0
 363 -428 l 0
EndSplineSet
Comment: "GDL_order: 0+AAoA-mark: 80+AAoA" 
EndChar

StartChar: bar
Encoding: 95 124 93
Width: 321
VWidth: 0
GlyphClass: 4
Flags: HW
LayerCount: 2
Fore
SplineSet
194 -230 m 0
 127 -230 l 0
 127 709 l 0
 194 709 l 0
 194 -230 l 0
EndSplineSet
Comment: "mark: 1+AAoA" 
EndChar

StartChar: braceright
Encoding: 96 125 94
Width: 418
VWidth: 0
GlyphClass: 4
Flags: HW
LayerCount: 2
Fore
SplineSet
347 225 m 0
 347 172 243 146 243 54 c 0
 243 -215 231 -428 55 -428 c 0
 55 -357 l 0
 155 -357 171 -205 171 68 c 0
 171 177 269 211 269 225 c 0
 269 239 171 272 171 382 c 0
 171 656 155 809 55 809 c 0
 55 878 l 0
 231 878 243 666 243 397 c 0
 243 305 347 278 347 225 c 0
EndSplineSet
Comment: "GDL_order: 0+AAoA-mark: 80+AAoA" 
EndChar

StartChar: asciitilde
Encoding: 97 126 95
Width: 567
VWidth: 0
GlyphClass: 4
Flags: HW
LayerCount: 2
Fore
SplineSet
511 236 m 0
 465 192 416 173 372 173 c 0
 289 173 242 234 197 234 c 0
 167 234 137 225 77 174 c 0
 55 231 l 0
 105 278 149 295 197 295 c 0
 275 295 303 235 372 235 c 0
 402 235 431 249 472 282 c 0
 511 236 l 0
EndSplineSet
Comment: "GDL_order: 0+AAoA-mark: 80+AAoA" 
EndChar

StartChar: multiply
Encoding: 98 215 96
Width: 512
VWidth: 0
GlyphClass: 4
Flags: HW
LayerCount: 2
Fore
SplineSet
418 111 m 0
 368 60 l 0
 257 172 l 0
 145 60 l 0
 93 112 l 0
 205 224 l 0
 94 335 l 0
 144 386 l 0
 256 274 l 0
 368 387 l 0
 420 335 l 0
 307 223 l 0
 418 111 l 0
EndSplineSet
Comment: "GDL_order: 0+AAoA-mark: 80+AAoA" 
EndChar

StartChar: u1000
Encoding: 99 4096 97
Width: 993
VWidth: 0
GlyphClass: 2
Flags: HW
AnchorPoint: "R" 0 0 mark 0
AnchorPoint: "BS" 702 -53 basechar 0
AnchorPoint: "L" 702 -53 basechar 0
AnchorPoint: "BD" 502 -53 basechar 0
AnchorPoint: "U" 702 495 basechar 0
LayerCount: 2
Fore
SplineSet
938 222 m 0
 938 90 830 -18 702 -18 c 0
 683 -18 653 -15 631 -4 c 0
 659 62 l 0
 673 57 687 54 702 54 c 0
 793 54 866 130 866 222 c 0
 866 313 793 390 702 390 c 0
 612 390 534 284 534 197 c 0
 533 94 500 32 439 -18 c 0
 397 42 l 0
 439 84 462 128 462 204 c 0
 462 307 391 388 295 388 c 0
 199 388 127 307 127 204 c 0
 127 128 151 84 192 42 c 0
 150 -18 l 0
 89 34 55 97 55 204 c 0
 55 352 161 460 295 460 c 0
 385 460 463 411 502 331 c 0
 542 404 615 461 702 461 c 0
 830 461 938 352 938 222 c 0
EndSplineSet
Substitution2: "sub_single_cligmymr_2 subtable" u1000.kham
Ligature2: "LigatureSubstitutionlookup169 subtable" u1000 u103C
Ligature2: "LigatureSubstitutionlookup167 subtable" u1000 u103C u1031
Ligature2: "LigatureSubstitutionlookup167 subtable" u1000 u103C.wide u1031
Ligature2: "LigatureSubstitutionlookup167 subtable" u1000 u103C_u103D.narr u1031
Ligature2: "LigatureSubstitutionlookup167 subtable" u1000 u103C_u103D.wide u1031
Ligature2: "LigatureSubstitutionlookup165 subtable" u1000 u103C
Ligature2: "LigatureSubstitutionlookup165 subtable" u1000 u103C_u103D.narr
Ligature2: "LigatureSubstitutionlookup165 subtable" u1000 u103C_u102F.narr
Ligature2: "LigatureSubstitutionlookup163 subtable" u1000 u1031
Ligature2: "LigatureSubstitutionlookup163 subtable" u1000 u1084
Ligature2: "LigatureSubstitutionlookup162 subtable" u1000 u103D
Ligature2: "LigatureSubstitutionlookup162 subtable" u1000 u103E
Ligature2: "LigatureSubstitutionlookup162 subtable" u1000 u103D_u103E
Ligature2: "LigatureSubstitutionlookup162 subtable" u1000
Ligature2: "LigatureSubstitutionlookup162 subtable" u1000 u105F
Ligature2: "LigatureSubstitutionlookup162 subtable" u1000 u1060
Ligature2: "LigatureSubstitutionlookup162 subtable" u1000 u1082
Ligature2: "LigatureSubstitutionlookup158 subtable" u1000 u1039
Ligature2: "LigatureSubstitutionlookup130 subtable" u1004.kinzi u200D u1000
Ligature2: "LigatureSubstitutionlookup130 subtable" u101B.kinzi u200D u1000
Ligature2: "LigatureSubstitutionlookup127 subtable" u1004.kinzi u200D u1000
Ligature2: "LigatureSubstitutionlookup127 subtable" u101B.kinzi u200D u1000
Ligature2: "LigatureSubstitutionlookup124 subtable" u1004.kinzi u200D u1000
Ligature2: "LigatureSubstitutionlookup124 subtable" u101B.kinzi u200D u1000
MultipleSubs2: "MultipleSubstitutionlookup139 subtable" u200C u1031 u1000
MultipleSubs2: "MultipleSubstitutionlookup137 subtable" u200C u1084 u1000
MultipleSubs2: "MultipleSubstitutionlookup136 subtable" u200C u103C_u103D.wide u1000
MultipleSubs2: "MultipleSubstitutionlookup135 subtable" u200C u103C_u102F.wide u1000
MultipleSubs2: "MultipleSubstitutionlookup134 subtable" u200C u103C.wide u1000
MultipleSubs2: "MultipleSubstitutionlookup129 subtable" u1000 u101B.kinzi
MultipleSubs2: "MultipleSubstitutionlookup128 subtable" u1000 u1004.kinzi
Comment: "GDL_order: 1+AAoA-mark: 80+AAoA" 
EndChar

StartChar: u1000.med
Encoding: 100 -1 98
Width: 0
VWidth: 0
GlyphClass: 4
Flags: HW
AnchorPoint: "LLM" -876 -53 basemark 0
AnchorPoint: "BD" -392 -53 mark 0
AnchorPoint: "LM" 95 -53 basemark 0
AnchorPoint: "BDM" -393 -53 basemark 0
AnchorPoint: "BSM" 886 -53 mark 0
AnchorPoint: "BSM" 88 -53 basemark 0
AnchorPoint: "BDM" -393 -53 mark 0
LayerCount: 2
Fore
SplineSet
-55 -272 m 0
 -55 -375 -138 -457 -237 -457 c 0
 -258 -457 -276 -454 -292 -446 c 0
 -269 -395 l 0
 -260 -400 -249 -401 -237 -401 c 0
 -168 -401 -110 -342 -110 -272 c 0
 -110 -202 -168 -143 -237 -143 c 0
 -306 -143 -366 -222 -366 -292 c 0
 -366 -370 -393 -418 -439 -457 c 0
 -472 -411 l 0
 -440 -377 -422 -344 -422 -286 c 0
 -422 -203 -477 -143 -551 -143 c 0
 -625 -143 -680 -203 -680 -286 c 0
 -680 -344 -661 -377 -629 -411 c 0
 -662 -457 l 0
 -710 -417 -736 -367 -736 -286 c 0
 -736 -173 -655 -88 -551 -88 c 0
 -482 -88 -422 -125 -391 -188 c 0
 -360 -130 -304 -88 -237 -88 c 0
 -138 -88 -55 -170 -55 -272 c 0
EndSplineSet
Ligature2: "LigatureSubstitutionlookup179 subtable" u1000.med u102D
Ligature2: "LigatureSubstitutionlookup179 subtable" u1000.med u102E
Ligature2: "LigatureSubstitutionlookup179 subtable" u1000.med u1032
Ligature2: "LigatureSubstitutionlookup179 subtable" u1000.med u103A
Ligature2: "LigatureSubstitutionlookup171 subtable" u1000.med u103C u1031
Ligature2: "LigatureSubstitutionlookup159 subtable" u1000.med u1031
Ligature2: "LigatureSubstitutionlookup159 subtable" u1000.med u103C
Ligature2: "sub_ligature_cligmymr_0 subtable" u1039 u1000
MultipleSubs2: "MultipleSubstitutionlookup138 subtable" u1039 u1000.med
Comment: "GDL_order: 2+AAoA-mark: 80+AAoA" 
EndChar

StartChar: u1000_u1001_u103B
Encoding: 101 -1 99
Width: 1151
VWidth: 0
GlyphClass: 2
Flags: HW
AnchorPoint: "R" 0 0 mark 0
AnchorPoint: "BS" 1245 -53 basechar 0
AnchorPoint: "LL" 377 -53 basechar 0
AnchorPoint: "L" 1245 -53 basechar 0
AnchorPoint: "U" 916 495 basechar 0
AnchorPoint: "BD" 1236 -53 basechar 0
LayerCount: 2
Fore
SplineSet
1095 -457 m 0
 833 -390 l 0
 801 -422 756 -442 706 -442 c 0
 603 -442 527 -361 527 -304 c 0
 575 -269 620 -256 657 -256 c 0
 706 -256 774 -288 805 -334 c 0
 825 -312 834 -286 834 -257 c 0
 834 -198 787 -129 706 -129 c 0
 660 -129 613 -151 583 -203 c 0
 536 -176 l 0
 570 -101 651 -72 706 -72 c 0
 813 -72 889 -161 889 -257 c 0
 889 -281 884 -304 873 -325 c 0
 1024 -364 l 0
 1024 444 l 0
 1095 444 l 0
 1095 -457 l 0
938 222 m 0
 938 90 831 -18 702 -18 c 0
 683 -18 653 -13 631 -4 c 0
 659 62 l 0
 673 59 687 54 702 54 c 0
 793 54 866 130 866 222 c 0
 866 313 793 390 702 390 c 0
 612 390 535 284 534 197 c 0
 533 95 500 32 439 -18 c 0
 397 42 l 0
 438 84 462 128 462 204 c 0
 462 308 391 388 295 388 c 0
 199 388 127 308 127 204 c 0
 127 128 152 84 192 42 c 0
 150 -18 l 0
 89 33 55 98 55 204 c 0
 55 352 161 460 295 460 c 0
 385 460 462 410 502 331 c 0
 542 403 616 461 702 461 c 0
 831 461 938 352 938 222 c 0
742 -355 m 0
 722 -325 686 -306 644 -306 c 0
 642 -306 640 -306 638 -306 c 0
 631 -319 627 -327 618 -336 c 0
 637 -365 676 -381 713 -381 c 0
 716 -381 720 -381 723 -381 c 0
 733 -373 740 -362 742 -355 c 0
EndSplineSet
Ligature2: "sub_ligature_cligmymr_4 subtable" u1000 u1001.med u103B
Comment: "GDL_order: 1+AAoA-mark: 80+AAoA" 
EndChar

StartChar: u1000_u103B_u1015_u103A
Encoding: 102 -1 100
Width: 1736
VWidth: 0
GlyphClass: 2
Flags: HW
AnchorPoint: "R" 0 0 mark 0
LayerCount: 2
Fore
SplineSet
1105 -457 m 0
 766 -370 l 0
 766 -9 l 0
 745 -15 724 -18 702 -18 c 0
 680 -18 652 -14 631 -4 c 0
 659 62 l 0
 673 56 687 54 702 54 c 0
 793 54 866 130 866 222 c 0
 866 313 793 390 702 390 c 0
 612 390 534 284 534 197 c 0
 533 94 500 32 439 -18 c 0
 397 42 l 0
 439 84 462 128 462 204 c 0
 462 307 391 388 295 388 c 0
 199 388 127 307 127 204 c 0
 127 128 151 84 192 42 c 0
 150 -18 l 0
 89 34 55 97 55 204 c 0
 55 352 161 460 295 460 c 0
 385 460 461 411 502 331 c 0
 542 404 615 461 702 461 c 0
 830 461 938 352 938 222 c 0
 938 140 898 70 837 28 c 0
 837 -313 l 0
 1034 -364 l 0
 1034 444 l 0
 1105 444 l 0
 1105 -457 l 0
1680 239 m 0
 1680 91 1574 -18 1440 -18 c 0
 1307 -18 1201 91 1201 239 c 0
 1201 343 1233 408 1296 460 c 0
 1338 400 l 0
 1296 358 1273 314 1273 239 c 0
 1273 135 1344 54 1440 54 c 0
 1537 54 1608 135 1608 239 c 0
 1608 314 1585 358 1543 400 c 0
 1585 460 l 0
 1646 408 1680 343 1680 239 c 0
1664 832 m 0
 1625 799 l 0
 1601 835 1564 855 1529 855 c 0
 1470 855 1400 808 1400 725 c 0
 1400 628 1499 589 1530 589 c 0
 1530 535 l 0
 1451 535 1345 608 1345 725 c 0
 1345 836 1435 910 1529 910 c 0
 1581 910 1637 884 1664 832 c 0
EndSplineSet
Comment: "GDL_order: 1+AAoA-mark: 80+AAoA" 
EndChar

StartChar: u1001
Encoding: 103 4097 101
Width: 584
VWidth: 0
GlyphClass: 2
Flags: HW
AnchorPoint: "R" 0 0 mark 0
AnchorPoint: "BS" 289 -53 basechar 0
AnchorPoint: "L" 289 -53 basechar 0
AnchorPoint: "U" 289 495 basechar 0
AnchorPoint: "BD" 283 -53 basechar 0
LayerCount: 2
Fore
SplineSet
529 222 m 0
 529 92 426 -18 289 -18 c 0
 181 -18 67 53 56 164 c 0
 120 205 181 221 223 221 c 0
 301 221 380 176 420 121 c 0
 443 148 457 182 457 222 c 0
 457 297 394 390 289 390 c 0
 228 390 164 355 130 292 c 0
 68 327 l 0
 108 411 198 461 289 461 c 0
 429 461 529 344 529 222 c 0
372 75 m 0
 344 123 285 156 225 156 c 0
 200 156 168 150 137 136 c 0
 175 78 234 54 289 54 c 0
 321 54 347 61 372 75 c 0
EndSplineSet
Ligature2: "LigatureSubstitutionlookup169 subtable" u1001 u103C
Ligature2: "LigatureSubstitutionlookup167 subtable" u1001 u103C u1031
Ligature2: "LigatureSubstitutionlookup167 subtable" u1001 u103C.wide u1031
Ligature2: "LigatureSubstitutionlookup167 subtable" u1001 u103C_u103D.narr u1031
Ligature2: "LigatureSubstitutionlookup167 subtable" u1001 u103C_u103D.wide u1031
Ligature2: "LigatureSubstitutionlookup165 subtable" u1001 u103C
Ligature2: "LigatureSubstitutionlookup165 subtable" u1001 u103C_u103D.narr
Ligature2: "LigatureSubstitutionlookup165 subtable" u1001 u103C_u102F.narr
Ligature2: "LigatureSubstitutionlookup163 subtable" u1001 u1031
Ligature2: "LigatureSubstitutionlookup163 subtable" u1001 u1084
Ligature2: "LigatureSubstitutionlookup162 subtable" u1001 u103D
Ligature2: "LigatureSubstitutionlookup162 subtable" u1001 u103E
Ligature2: "LigatureSubstitutionlookup162 subtable" u1001 u103D_u103E
Ligature2: "LigatureSubstitutionlookup162 subtable" u1001
Ligature2: "LigatureSubstitutionlookup162 subtable" u1001 u105F
Ligature2: "LigatureSubstitutionlookup162 subtable" u1001 u1060
Ligature2: "LigatureSubstitutionlookup162 subtable" u1001 u1082
Ligature2: "LigatureSubstitutionlookup158 subtable" u1001 u1039
Ligature2: "LigatureSubstitutionlookup130 subtable" u1004.kinzi u200D u1001
Ligature2: "LigatureSubstitutionlookup130 subtable" u101B.kinzi u200D u1001
Ligature2: "LigatureSubstitutionlookup127 subtable" u1004.kinzi u200D u1001
Ligature2: "LigatureSubstitutionlookup127 subtable" u101B.kinzi u200D u1001
Ligature2: "LigatureSubstitutionlookup124 subtable" u1004.kinzi u200D u1001
Ligature2: "LigatureSubstitutionlookup124 subtable" u101B.kinzi u200D u1001
MultipleSubs2: "MultipleSubstitutionlookup139 subtable" u200C u1031 u1001
MultipleSubs2: "MultipleSubstitutionlookup137 subtable" u200C u1084 u1001
MultipleSubs2: "MultipleSubstitutionlookup136 subtable" u200C u103C_u103D.narr u1001
MultipleSubs2: "MultipleSubstitutionlookup135 subtable" u200C u103C_u102F.narr u1001
MultipleSubs2: "MultipleSubstitutionlookup134 subtable" u200C u103C u1001
MultipleSubs2: "MultipleSubstitutionlookup129 subtable" u1001 u101B.kinzi
MultipleSubs2: "MultipleSubstitutionlookup128 subtable" u1001 u1004.kinzi
PairPos2: "PairwisePositioningkerninglooku subtable" uAA60.med.kham dx=-90 dy=0 dh=0 dv=0 dx=0 dy=0 dh=90 dv=0
PairPos2: "PairwisePositioningkerninglooku subtable" uAA60.med dx=-90 dy=0 dh=0 dv=0 dx=0 dy=0 dh=90 dv=0
PairPos2: "PairwisePositioningkerninglooku subtable" u1021.med dx=-90 dy=0 dh=0 dv=0 dx=0 dy=0 dh=90 dv=0
PairPos2: "PairwisePositioningkerninglooku subtable" u101E.med dx=-90 dy=0 dh=0 dv=0 dx=0 dy=0 dh=90 dv=0
PairPos2: "PairwisePositioningkerninglooku subtable" u101C.med dx=-90 dy=0 dh=0 dv=0 dx=0 dy=0 dh=90 dv=0
PairPos2: "PairwisePositioningkerninglooku subtable" u101A.med dx=-90 dy=0 dh=0 dv=0 dx=0 dy=0 dh=90 dv=0
PairPos2: "PairwisePositioningkerninglooku subtable" u1018.med dx=-90 dy=0 dh=0 dv=0 dx=0 dy=0 dh=90 dv=0
PairPos2: "PairwisePositioningkerninglooku subtable" u1011.med dx=-90 dy=0 dh=0 dv=0 dx=0 dy=0 dh=90 dv=0
PairPos2: "PairwisePositioningkerninglooku subtable" u1010.med dx=-90 dy=0 dh=0 dv=0 dx=0 dy=0 dh=90 dv=0
PairPos2: "PairwisePositioningkerninglooku subtable" u100F.med dx=-90 dy=0 dh=0 dv=0 dx=0 dy=0 dh=90 dv=0
PairPos2: "PairwisePositioningkerninglooku subtable" u100C.med dx=-90 dy=0 dh=0 dv=0 dx=0 dy=0 dh=90 dv=0
PairPos2: "PairwisePositioningkerninglooku subtable" u100A.med dx=-90 dy=0 dh=0 dv=0 dx=0 dy=0 dh=90 dv=0
PairPos2: "PairwisePositioningkerninglooku subtable" u1006.med dx=-90 dy=0 dh=0 dv=0 dx=0 dy=0 dh=90 dv=0
PairPos2: "PairwisePositioningkerninglooku subtable" u1003.med dx=-90 dy=0 dh=0 dv=0 dx=0 dy=0 dh=90 dv=0
PairPos2: "PairwisePositioningkerninglooku subtable" u1000.med dx=-90 dy=0 dh=0 dv=0 dx=0 dy=0 dh=90 dv=0
Position2: "SinglePositioninglookup48 per glyph data 0" dx=100 dy=0 dh=50 dv=0
Position2: "SinglePositioninglookup30 subtable" dx=140 dy=0 dh=140 dv=0
Comment: "GDL_order: 1+AAoA-mark: 80+AAoA" 
EndChar

StartChar: u1001.med
Encoding: 104 -1 102
Width: 0
VWidth: 0
GlyphClass: 4
Flags: HW
AnchorPoint: "BS" -239 -53 mark 0
AnchorPoint: "LLM" -570 -53 basemark 0
AnchorPoint: "BSM" -239 -53 mark 0
AnchorPoint: "LM" 94 -53 basemark 0
AnchorPoint: "BS" -237 -53 basemark 0
AnchorPoint: "BSM" -237 -53 basemark 0
LayerCount: 2
Fore
SplineSet
-56 -272 m 0
 -56 -376 -137 -457 -239 -457 c 0
 -339 -457 -419 -379 -419 -315 c 0
 -374 -285 -328 -272 -289 -272 c 0
 -238 -272 -175 -300 -141 -349 c 0
 -120 -327 -111 -302 -111 -273 c 0
 -111 -204 -166 -143 -239 -143 c 0
 -287 -143 -335 -169 -363 -218 c 0
 -409 -191 l 0
 -378 -123 -305 -87 -239 -87 c 0
 -132 -87 -56 -176 -56 -272 c 0
-174 -384 m 0
 -197 -346 -242 -319 -291 -319 c 0
 -313 -319 -335 -324 -358 -336 c 0
 -333 -381 -281 -401 -239 -401 c 0
 -216 -401 -193 -394 -174 -384 c 0
EndSplineSet
Ligature2: "LigatureSubstitutionlookup179 subtable" u1001.med u102D
Ligature2: "LigatureSubstitutionlookup179 subtable" u1001.med u102E
Ligature2: "LigatureSubstitutionlookup179 subtable" u1001.med u1032
Ligature2: "LigatureSubstitutionlookup179 subtable" u1001.med u103A
Ligature2: "LigatureSubstitutionlookup171 subtable" u1001.med u103C u1031
Ligature2: "LigatureSubstitutionlookup159 subtable" u1001.med u1031
Ligature2: "LigatureSubstitutionlookup159 subtable" u1001.med u103C
Ligature2: "sub_ligature_cligmymr_0 subtable" u1039 u1001
MultipleSubs2: "MultipleSubstitutionlookup138 subtable" u1039 u1001.med
Comment: "GDL_order: 2+AAoA-mark: 80+AAoA" 
EndChar

StartChar: u1002
Encoding: 105 4098 103
Width: 590
VWidth: 0
GlyphClass: 2
Flags: HW
AnchorPoint: "R" 0 0 mark 0
AnchorPoint: "BS" 295 -53 basechar 0
AnchorPoint: "L" 295 -53 basechar 0
AnchorPoint: "U" 295 495 basechar 0
AnchorPoint: "BD" 292 -53 basechar 0
LayerCount: 2
Fore
SplineSet
535 204 m 0
 535 97 502 34 439 -18 c 0
 397 42 l 0
 439 84 462 128 462 204 c 0
 462 307 391 388 295 388 c 0
 199 388 127 307 127 204 c 0
 127 128 151 84 192 42 c 0
 150 -18 l 0
 89 34 55 97 55 204 c 0
 55 352 161 460 295 460 c 0
 422 460 535 358 535 204 c 0
EndSplineSet
Substitution2: "sub_single_cligmymr_2 subtable" u1002.kham
Ligature2: "LigatureSubstitutionlookup169 subtable" u1002 u103C
Ligature2: "LigatureSubstitutionlookup167 subtable" u1002 u103C u1031
Ligature2: "LigatureSubstitutionlookup167 subtable" u1002 u103C.wide u1031
Ligature2: "LigatureSubstitutionlookup167 subtable" u1002 u103C_u103D.narr u1031
Ligature2: "LigatureSubstitutionlookup167 subtable" u1002 u103C_u103D.wide u1031
Ligature2: "LigatureSubstitutionlookup165 subtable" u1002 u103C
Ligature2: "LigatureSubstitutionlookup165 subtable" u1002 u103C_u103D.narr
Ligature2: "LigatureSubstitutionlookup165 subtable" u1002 u103C_u102F.narr
Ligature2: "LigatureSubstitutionlookup163 subtable" u1002 u1031
Ligature2: "LigatureSubstitutionlookup163 subtable" u1002 u1084
Ligature2: "LigatureSubstitutionlookup162 subtable" u1002 u103D
Ligature2: "LigatureSubstitutionlookup162 subtable" u1002 u103E
Ligature2: "LigatureSubstitutionlookup162 subtable" u1002 u103D_u103E
Ligature2: "LigatureSubstitutionlookup162 subtable" u1002
Ligature2: "LigatureSubstitutionlookup162 subtable" u1002 u105F
Ligature2: "LigatureSubstitutionlookup162 subtable" u1002 u1060
Ligature2: "LigatureSubstitutionlookup162 subtable" u1002 u1082
Ligature2: "LigatureSubstitutionlookup158 subtable" u1002 u1039
Ligature2: "LigatureSubstitutionlookup130 subtable" u1004.kinzi u200D u1002
Ligature2: "LigatureSubstitutionlookup130 subtable" u101B.kinzi u200D u1002
Ligature2: "LigatureSubstitutionlookup127 subtable" u1004.kinzi u200D u1002
Ligature2: "LigatureSubstitutionlookup127 subtable" u101B.kinzi u200D u1002
Ligature2: "LigatureSubstitutionlookup124 subtable" u1004.kinzi u200D u1002
Ligature2: "LigatureSubstitutionlookup124 subtable" u101B.kinzi u200D u1002
MultipleSubs2: "MultipleSubstitutionlookup139 subtable" u200C u1031 u1002
MultipleSubs2: "MultipleSubstitutionlookup137 subtable" u200C u1084 u1002
MultipleSubs2: "MultipleSubstitutionlookup136 subtable" u200C u103C_u103D.narr u1002
MultipleSubs2: "MultipleSubstitutionlookup135 subtable" u200C u103C_u102F.narr u1002
MultipleSubs2: "MultipleSubstitutionlookup134 subtable" u200C u103C u1002
MultipleSubs2: "MultipleSubstitutionlookup129 subtable" u1002 u101B.kinzi
MultipleSubs2: "MultipleSubstitutionlookup128 subtable" u1002 u1004.kinzi
PairPos2: "PairwisePositioningkerninglooku subtable" uAA60.med.kham dx=-90 dy=0 dh=0 dv=0 dx=0 dy=0 dh=90 dv=0
PairPos2: "PairwisePositioningkerninglooku subtable" uAA60.med dx=-90 dy=0 dh=0 dv=0 dx=0 dy=0 dh=90 dv=0
PairPos2: "PairwisePositioningkerninglooku subtable" u1021.med dx=-90 dy=0 dh=0 dv=0 dx=0 dy=0 dh=90 dv=0
PairPos2: "PairwisePositioningkerninglooku subtable" u101E.med dx=-90 dy=0 dh=0 dv=0 dx=0 dy=0 dh=90 dv=0
PairPos2: "PairwisePositioningkerninglooku subtable" u101C.med dx=-90 dy=0 dh=0 dv=0 dx=0 dy=0 dh=90 dv=0
PairPos2: "PairwisePositioningkerninglooku subtable" u101A.med dx=-90 dy=0 dh=0 dv=0 dx=0 dy=0 dh=90 dv=0
PairPos2: "PairwisePositioningkerninglooku subtable" u1018.med dx=-90 dy=0 dh=0 dv=0 dx=0 dy=0 dh=90 dv=0
PairPos2: "PairwisePositioningkerninglooku subtable" u1011.med dx=-90 dy=0 dh=0 dv=0 dx=0 dy=0 dh=90 dv=0
PairPos2: "PairwisePositioningkerninglooku subtable" u1010.med dx=-90 dy=0 dh=0 dv=0 dx=0 dy=0 dh=90 dv=0
PairPos2: "PairwisePositioningkerninglooku subtable" u100F.med dx=-90 dy=0 dh=0 dv=0 dx=0 dy=0 dh=90 dv=0
PairPos2: "PairwisePositioningkerninglooku subtable" u100C.med dx=-90 dy=0 dh=0 dv=0 dx=0 dy=0 dh=90 dv=0
PairPos2: "PairwisePositioningkerninglooku subtable" u100A.med dx=-90 dy=0 dh=0 dv=0 dx=0 dy=0 dh=90 dv=0
PairPos2: "PairwisePositioningkerninglooku subtable" u1006.med dx=-90 dy=0 dh=0 dv=0 dx=0 dy=0 dh=90 dv=0
PairPos2: "PairwisePositioningkerninglooku subtable" u1003.med dx=-90 dy=0 dh=0 dv=0 dx=0 dy=0 dh=90 dv=0
PairPos2: "PairwisePositioningkerninglooku subtable" u1000.med dx=-90 dy=0 dh=0 dv=0 dx=0 dy=0 dh=90 dv=0
Position2: "SinglePositioninglookup48 per glyph data 0" dx=100 dy=0 dh=50 dv=0
Position2: "SinglePositioninglookup30 subtable" dx=140 dy=0 dh=140 dv=0
Comment: "GDL_order: 1+AAoA-mark: 80+AAoA" 
EndChar

StartChar: u1002.med
Encoding: 106 -1 104
Width: 0
VWidth: 0
GlyphClass: 4
Flags: HW
AnchorPoint: "BS" -240 -53 mark 0
AnchorPoint: "LLM" -576 -53 basemark 0
AnchorPoint: "BSM" -240 -53 mark 0
AnchorPoint: "LM" 94 -53 basemark 0
AnchorPoint: "BS" 238 -53 basemark 0
AnchorPoint: "BSM" 565 -53 basemark 0
LayerCount: 2
Fore
SplineSet
-56 -286 m 0
 -56 -368 -81 -417 -129 -457 c 0
 -162 -411 l 0
 -129 -378 -112 -339 -112 -286 c 0
 -112 -214 -160 -143 -241 -143 c 0
 -316 -143 -370 -206 -370 -285 c 0
 -370 -339 -351 -378 -319 -411 c 0
 -352 -457 l 0
 -400 -417 -426 -368 -426 -286 c 0
 -426 -173 -345 -88 -241 -88 c 0
 -137 -88 -56 -173 -56 -286 c 0
EndSplineSet
Ligature2: "LigatureSubstitutionlookup179 subtable" u1002.med u102D
Ligature2: "LigatureSubstitutionlookup179 subtable" u1002.med u102E
Ligature2: "LigatureSubstitutionlookup179 subtable" u1002.med u1032
Ligature2: "LigatureSubstitutionlookup179 subtable" u1002.med u103A
Ligature2: "LigatureSubstitutionlookup171 subtable" u1002.med u103C u1031
Ligature2: "LigatureSubstitutionlookup159 subtable" u1002.med u1031
Ligature2: "LigatureSubstitutionlookup159 subtable" u1002.med u103C
Ligature2: "sub_ligature_cligmymr_0 subtable" u1039 u1002
MultipleSubs2: "MultipleSubstitutionlookup138 subtable" u1039 u1002.med
Comment: "GDL_order: 2+AAoA-mark: 80+AAoA" 
EndChar

StartChar: u1003
Encoding: 107 4099 105
Width: 989
VWidth: 0
GlyphClass: 2
Flags: HW
AnchorPoint: "R" 0 0 mark 0
AnchorPoint: "BS" 698 -53 basechar 0
AnchorPoint: "L" 698 -53 basechar 0
AnchorPoint: "BD" 491 -53 basechar 0
AnchorPoint: "U" 698 495 basechar 0
LayerCount: 2
Fore
SplineSet
934 222 m 0
 934 90 826 -18 697 -18 c 0
 610 -18 536 38 495 112 c 0
 454 31 376 -18 287 -18 c 0
 145 -18 55 86 55 167 c 0
 55 302 194 285 194 340 c 0
 194 378 171 392 151 392 c 0
 130 392 114 373 112 364 c 0
 55 398 l 0
 62 427 110 459 151 459 c 0
 207 459 261 419 261 340 c 0
 261 239 127 249 127 167 c 0
 127 140 176 54 287 54 c 0
 389 54 455 139 455 248 c 0
 455 310 427 367 390 400 c 0
 432 460 l 0
 491 414 527 342 527 238 c 0
 527 157 611 54 697 54 c 0
 788 54 862 130 862 222 c 0
 862 313 788 390 697 390 c 0
 684 390 668 387 655 381 c 0
 627 447 l 0
 647 457 673 461 697 461 c 0
 826 461 934 353 934 222 c 0
EndSplineSet
Ligature2: "LigatureSubstitutionlookup169 subtable" u1003 u103C
Ligature2: "LigatureSubstitutionlookup167 subtable" u1003 u103C u1031
Ligature2: "LigatureSubstitutionlookup167 subtable" u1003 u103C.wide u1031
Ligature2: "LigatureSubstitutionlookup167 subtable" u1003 u103C_u103D.narr u1031
Ligature2: "LigatureSubstitutionlookup167 subtable" u1003 u103C_u103D.wide u1031
Ligature2: "LigatureSubstitutionlookup165 subtable" u1003 u103C
Ligature2: "LigatureSubstitutionlookup165 subtable" u1003 u103C_u103D.narr
Ligature2: "LigatureSubstitutionlookup165 subtable" u1003 u103C_u102F.narr
Ligature2: "LigatureSubstitutionlookup163 subtable" u1003 u1031
Ligature2: "LigatureSubstitutionlookup163 subtable" u1003 u1084
Ligature2: "LigatureSubstitutionlookup162 subtable" u1003 u103D
Ligature2: "LigatureSubstitutionlookup162 subtable" u1003 u103E
Ligature2: "LigatureSubstitutionlookup162 subtable" u1003 u103D_u103E
Ligature2: "LigatureSubstitutionlookup162 subtable" u1003
Ligature2: "LigatureSubstitutionlookup162 subtable" u1003 u105F
Ligature2: "LigatureSubstitutionlookup162 subtable" u1003 u1060
Ligature2: "LigatureSubstitutionlookup162 subtable" u1003 u1082
Ligature2: "LigatureSubstitutionlookup158 subtable" u1003 u1039
Ligature2: "LigatureSubstitutionlookup130 subtable" u1004.kinzi u200D u1003
Ligature2: "LigatureSubstitutionlookup130 subtable" u101B.kinzi u200D u1003
Ligature2: "LigatureSubstitutionlookup127 subtable" u1004.kinzi u200D u1003
Ligature2: "LigatureSubstitutionlookup127 subtable" u101B.kinzi u200D u1003
Ligature2: "LigatureSubstitutionlookup124 subtable" u1004.kinzi u200D u1003
Ligature2: "LigatureSubstitutionlookup124 subtable" u101B.kinzi u200D u1003
MultipleSubs2: "MultipleSubstitutionlookup139 subtable" u200C u1031 u1003
MultipleSubs2: "MultipleSubstitutionlookup137 subtable" u200C u1084 u1003
MultipleSubs2: "MultipleSubstitutionlookup136 subtable" u200C u103C_u103D.wide u1003
MultipleSubs2: "MultipleSubstitutionlookup135 subtable" u200C u103C_u102F.wide u1003
MultipleSubs2: "MultipleSubstitutionlookup134 subtable" u200C u103C.wide u1003
MultipleSubs2: "MultipleSubstitutionlookup129 subtable" u1003 u101B.kinzi
MultipleSubs2: "MultipleSubstitutionlookup128 subtable" u1003 u1004.kinzi
Comment: "GDL_order: 1+AAoA-mark: 80+AAoA" 
EndChar

StartChar: u1003.med
Encoding: 108 -1 106
Width: 0
VWidth: 0
GlyphClass: 4
Flags: HW
AnchorPoint: "LLM" -882 -53 basemark 0
AnchorPoint: "BD" -396 -53 mark 0
AnchorPoint: "BSM" 96 -53 basemark 0
AnchorPoint: "LM" 94 -53 basemark 0
AnchorPoint: "BSM" 883 -53 mark 0
AnchorPoint: "BDM" -401 -53 mark 0
AnchorPoint: "BD" 394 -53 basemark 0
LayerCount: 2
Fore
SplineSet
-56 -272 m 0
 -56 -374 -138 -457 -237 -457 c 0
 -303 -457 -360 -414 -393 -357 c 0
 -424 -420 -485 -457 -553 -457 c 0
 -662 -457 -732 -376 -732 -315 c 0
 -732 -215 -625 -222 -625 -178 c 0
 -625 -150 -642 -141 -658 -141 c 0
 -674 -141 -686 -152 -688 -162 c 0
 -732 -136 l 0
 -728 -112 -692 -89 -658 -89 c 0
 -615 -89 -573 -121 -573 -181 c 0
 -573 -258 -677 -250 -677 -315 c 0
 -677 -336 -639 -401 -553 -401 c 0
 -475 -401 -425 -336 -425 -253 c 0
 -425 -209 -448 -160 -475 -135 c 0
 -441 -88 l 0
 -398 -124 -367 -174 -367 -259 c 0
 -367 -325 -303 -401 -237 -401 c 0
 -167 -401 -111 -342 -111 -272 c 0
 -111 -202 -167 -143 -237 -143 c 0
 -246 -143 -259 -145 -269 -151 c 0
 -291 -100 l 0
 -276 -90 -257 -88 -237 -88 c 0
 -138 -88 -56 -170 -56 -272 c 0
EndSplineSet
Ligature2: "LigatureSubstitutionlookup179 subtable" u1003.med u102D
Ligature2: "LigatureSubstitutionlookup179 subtable" u1003.med u102E
Ligature2: "LigatureSubstitutionlookup179 subtable" u1003.med u1032
Ligature2: "LigatureSubstitutionlookup179 subtable" u1003.med u103A
Ligature2: "LigatureSubstitutionlookup171 subtable" u1003.med u103C u1031
Ligature2: "LigatureSubstitutionlookup159 subtable" u1003.med u1031
Ligature2: "LigatureSubstitutionlookup159 subtable" u1003.med u103C
Ligature2: "sub_ligature_cligmymr_0 subtable" u1039 u1003
MultipleSubs2: "MultipleSubstitutionlookup138 subtable" u1039 u1003.med
Comment: "GDL_order: 2+AAoA-mark: 80+AAoA" 
EndChar

StartChar: u1004
Encoding: 109 4100 107
Width: 571
VWidth: 0
GlyphClass: 2
Flags: HW
AnchorPoint: "R" 0 0 mark 0
AnchorPoint: "BS" 294 -53 basechar 0
AnchorPoint: "L" 294 -53 basechar 0
AnchorPoint: "U" 294 495 basechar 0
AnchorPoint: "BD" 292 -53 basechar 0
LayerCount: 2
Fore
SplineSet
516 117 m 0
 476 30 384 -18 294 -18 c 0
 163 -18 55 90 55 222 c 0
 55 352 163 461 294 461 c 0
 381 461 476 415 516 327 c 0
 453 292 l 0
 417 356 358 390 294 390 c 0
 203 390 127 313 127 222 c 0
 127 130 203 54 294 54 c 0
 359 54 419 89 453 151 c 0
 516 117 l 0
EndSplineSet
Substitution2: "sub_single_cligmymr_2 subtable" u1004.kham
Ligature2: "LigatureSubstitutionlookup169 subtable" u1004 u103C
Ligature2: "LigatureSubstitutionlookup167 subtable" u1004 u103C u1031
Ligature2: "LigatureSubstitutionlookup167 subtable" u1004 u103C.wide u1031
Ligature2: "LigatureSubstitutionlookup167 subtable" u1004 u103C_u103D.narr u1031
Ligature2: "LigatureSubstitutionlookup167 subtable" u1004 u103C_u103D.wide u1031
Ligature2: "LigatureSubstitutionlookup165 subtable" u1004 u103C
Ligature2: "LigatureSubstitutionlookup165 subtable" u1004 u103C_u103D.narr
Ligature2: "LigatureSubstitutionlookup165 subtable" u1004 u103C_u102F.narr
Ligature2: "LigatureSubstitutionlookup163 subtable" u1004 u1031
Ligature2: "LigatureSubstitutionlookup163 subtable" u1004 u1084
Ligature2: "LigatureSubstitutionlookup162 subtable" u1004 u103D
Ligature2: "LigatureSubstitutionlookup162 subtable" u1004 u103E
Ligature2: "LigatureSubstitutionlookup162 subtable" u1004 u103D_u103E
Ligature2: "LigatureSubstitutionlookup162 subtable" u1004
Ligature2: "LigatureSubstitutionlookup162 subtable" u1004 u105F
Ligature2: "LigatureSubstitutionlookup162 subtable" u1004 u1060
Ligature2: "LigatureSubstitutionlookup162 subtable" u1004 u1082
Ligature2: "LigatureSubstitutionlookup158 subtable" u1004 u1039
Ligature2: "LigatureSubstitutionlookup130 subtable" u1004.kinzi u200D u1004
Ligature2: "LigatureSubstitutionlookup130 subtable" u101B.kinzi u200D u1004
Ligature2: "LigatureSubstitutionlookup127 subtable" u1004.kinzi u200D u1004
Ligature2: "LigatureSubstitutionlookup127 subtable" u101B.kinzi u200D u1004
Ligature2: "LigatureSubstitutionlookup124 subtable" u1004.kinzi u200D u1004
Ligature2: "LigatureSubstitutionlookup124 subtable" u101B.kinzi u200D u1004
MultipleSubs2: "MultipleSubstitutionlookup139 subtable" u200C u1031 u1004
MultipleSubs2: "MultipleSubstitutionlookup137 subtable" u200C u1084 u1004
MultipleSubs2: "MultipleSubstitutionlookup136 subtable" u200C u103C_u103D.narr u1004
MultipleSubs2: "MultipleSubstitutionlookup135 subtable" u200C u103C_u102F.narr u1004
MultipleSubs2: "MultipleSubstitutionlookup134 subtable" u200C u103C u1004
MultipleSubs2: "MultipleSubstitutionlookup129 subtable" u1004 u101B.kinzi
MultipleSubs2: "MultipleSubstitutionlookup128 subtable" u1004 u1004.kinzi
PairPos2: "PairwisePositioningkerninglooku subtable" uAA60.med.kham dx=-90 dy=0 dh=0 dv=0 dx=0 dy=0 dh=90 dv=0
PairPos2: "PairwisePositioningkerninglooku subtable" uAA60.med dx=-90 dy=0 dh=0 dv=0 dx=0 dy=0 dh=90 dv=0
PairPos2: "PairwisePositioningkerninglooku subtable" u1021.med dx=-90 dy=0 dh=0 dv=0 dx=0 dy=0 dh=90 dv=0
PairPos2: "PairwisePositioningkerninglooku subtable" u101E.med dx=-90 dy=0 dh=0 dv=0 dx=0 dy=0 dh=90 dv=0
PairPos2: "PairwisePositioningkerninglooku subtable" u101C.med dx=-90 dy=0 dh=0 dv=0 dx=0 dy=0 dh=90 dv=0
PairPos2: "PairwisePositioningkerninglooku subtable" u101A.med dx=-90 dy=0 dh=0 dv=0 dx=0 dy=0 dh=90 dv=0
PairPos2: "PairwisePositioningkerninglooku subtable" u1018.med dx=-90 dy=0 dh=0 dv=0 dx=0 dy=0 dh=90 dv=0
PairPos2: "PairwisePositioningkerninglooku subtable" u1011.med dx=-90 dy=0 dh=0 dv=0 dx=0 dy=0 dh=90 dv=0
PairPos2: "PairwisePositioningkerninglooku subtable" u1010.med dx=-90 dy=0 dh=0 dv=0 dx=0 dy=0 dh=90 dv=0
PairPos2: "PairwisePositioningkerninglooku subtable" u100F.med dx=-90 dy=0 dh=0 dv=0 dx=0 dy=0 dh=90 dv=0
PairPos2: "PairwisePositioningkerninglooku subtable" u100C.med dx=-90 dy=0 dh=0 dv=0 dx=0 dy=0 dh=90 dv=0
PairPos2: "PairwisePositioningkerninglooku subtable" u100A.med dx=-90 dy=0 dh=0 dv=0 dx=0 dy=0 dh=90 dv=0
PairPos2: "PairwisePositioningkerninglooku subtable" u1006.med dx=-90 dy=0 dh=0 dv=0 dx=0 dy=0 dh=90 dv=0
PairPos2: "PairwisePositioningkerninglooku subtable" u1003.med dx=-90 dy=0 dh=0 dv=0 dx=0 dy=0 dh=90 dv=0
PairPos2: "PairwisePositioningkerninglooku subtable" u1000.med dx=-90 dy=0 dh=0 dv=0 dx=0 dy=0 dh=90 dv=0
Position2: "SinglePositioninglookup48 per glyph data 0" dx=100 dy=0 dh=50 dv=0
Position2: "SinglePositioninglookup30 subtable" dx=140 dy=0 dh=140 dv=0
Comment: "GDL_order: 1+AAoA-mark: 80+AAoA" 
EndChar

StartChar: u1004.med
Encoding: 110 -1 108
Width: 0
VWidth: 0
GlyphClass: 4
Flags: HW
AnchorPoint: "BS" -221 -53 mark 0
AnchorPoint: "LLM" -524 -53 basemark 0
AnchorPoint: "BSM" -221 -53 mark 0
AnchorPoint: "LM" 84 -53 basemark 0
AnchorPoint: "BS" -174 -53 basemark 0
AnchorPoint: "BSM" 111 -53 basemark 0
LayerCount: 2
Fore
SplineSet
-49 -356 m 0
 -83 -426 -150 -457 -221 -457 c 0
 -322 -457 -406 -373 -406 -272 c 0
 -406 -171 -322 -88 -221 -88 c 0
 -150 -88 -83 -119 -49 -189 c 0
 -96 -217 l 0
 -123 -169 -168 -142 -219 -142 c 0
 -292 -142 -351 -202 -351 -272 c 0
 -351 -342 -292 -401 -220 -401 c 0
 -170 -401 -124 -377 -96 -327 c 0
 -49 -356 l 0
EndSplineSet
Ligature2: "LigatureSubstitutionlookup179 subtable" u1004.med u102D
Ligature2: "LigatureSubstitutionlookup179 subtable" u1004.med u102E
Ligature2: "LigatureSubstitutionlookup179 subtable" u1004.med u1032
Ligature2: "LigatureSubstitutionlookup179 subtable" u1004.med u103A
Ligature2: "LigatureSubstitutionlookup171 subtable" u1004.med u103C u1031
Ligature2: "LigatureSubstitutionlookup159 subtable" u1004.med u1031
Ligature2: "LigatureSubstitutionlookup159 subtable" u1004.med u103C
Ligature2: "sub_ligature_cligmymr_0 subtable" u1039 u1004
MultipleSubs2: "MultipleSubstitutionlookup138 subtable" u1039 u1004.med
Comment: "GDL_order: 2+AAoA-mark: 80+AAoA" 
EndChar

StartChar: u1004.kinzi
Encoding: 111 -1 109
Width: 55
VWidth: 0
GlyphClass: 4
Flags: HW
AnchorPoint: "Y" -26 495 mark 0
AnchorPoint: "U" -95 495 mark 0
AnchorPoint: "UM" -92 495 basemark 0
LayerCount: 2
Fore
SplineSet
0 592 m 0
 -20 555 -56 537 -95 537 c 0
 -151 537 -199 586 -199 641 c 0
 -199 679 -183 705 -157 724 c 0
 -183 743 -199 768 -199 806 c 0
 -199 864 -152 910 -95 910 c 0
 -52 910 -27 888 -13 862 c 0
 -53 831 l 0
 -62 848 -74 859 -96 859 c 0
 -124 859 -149 836 -149 806 c 0
 -149 776 -122 747 -96 747 c 0
 -58 747 -20 725 0 691 c 0
 -42 668 l 0
 -57 687 -72 697 -94 697 c 0
 -119 697 -148 674 -148 641 c 0
 -148 612 -120 587 -94 587 c 0
 -72 587 -57 597 -42 616 c 0
 0 592 l 0
EndSplineSet
Substitution2: "SingleSubstitutionlookup177 subtable" u1004.kinzi_u1036
Substitution2: "SingleSubstitutionlookup176 subtable" u1004.kinzi_u103A
Substitution2: "SingleSubstitutionlookup175 subtable" u1004.kinzi_u1032
Substitution2: "Single Substitution lookup 151 subtable" u1004.kinzi_u102E
Substitution2: "SingleSubstitutionlookup173 subtable" u1004.kinzi_u102D
Ligature2: "LigatureSubstitutionlookup118 subtable" circledash u1004.kinzi
Ligature2: "cligContextualLigaturesinMyanma subtable" u1004 u103A u1039
Ligature2: "cligContextualLigaturesinMyanma subtable" u105A u103A u1039
MultipleSubs2: "MultipleSubstitutionlookup121 subtable" u1004.kinzi u200D
MultipleSubs2: "sub_mult_cligmymr_0 subtable" circledash u1004.kinzi
Comment: "GDL_order: 8+AAoA-mark: 80+AAoA" 
EndChar

StartChar: u1004.kinzi_u102D
Encoding: 112 -1 110
Width: 55
VWidth: 0
GlyphClass: 4
Flags: HW
AnchorPoint: "Y" -28 495 mark 0
AnchorPoint: "U" -300 495 mark 0
AnchorPoint: "UM" -296 495 basemark 0
LayerCount: 2
Fore
SplineSet
0 724 m 0
 0 623 -80 539 -180 539 c 0
 -279 539 -361 623 -361 724 c 0
 -361 825 -279 909 -181 909 c 0
 -80 909 0 825 0 724 c 0
-55 724 m 0
 -55 794 -111 853 -180 853 c 0
 -249 853 -306 794 -306 724 c 0
 -306 655 -249 595 -181 595 c 0
 -111 595 -55 655 -55 724 c 0
-399 592 m 0
 -419 555 -455 537 -494 537 c 0
 -550 537 -598 586 -598 641 c 0
 -598 679 -582 705 -556 724 c 0
 -582 743 -598 768 -598 806 c 0
 -598 865 -551 910 -494 910 c 0
 -451 910 -426 888 -412 862 c 0
 -452 831 l 0
 -461 848 -473 859 -495 859 c 0
 -523 859 -548 836 -548 806 c 0
 -548 775 -521 747 -495 747 c 0
 -457 747 -419 725 -399 691 c 0
 -441 668 l 0
 -456 687 -471 697 -493 697 c 0
 -518 697 -547 674 -547 641 c 0
 -547 612 -519 587 -493 587 c 0
 -471 587 -456 597 -441 616 c 0
 -399 592 l 0
EndSplineSet
Ligature2: "LigatureSubstitutionlookup182 subtable" u1004.kinzi_u102D u102F
Ligature2: "sub_ligature_cligmymr_8 subtable" u1004.kinzi u102D
Ligature2: "sub_ligature_cligmymr_6 subtable" u1004.kinzi_u102D u200C u102D
Position2: "Single Positioning lookup 43 subtable" dx=180 dy=0 dh=0 dv=0
Comment: "GDL_order: 8+AAoA-mark: 80+AAoA" 
EndChar

StartChar: u1004.kinzi_u102E
Encoding: 113 -1 111
Width: 55
VWidth: 0
GlyphClass: 4
Flags: HW
AnchorPoint: "Y" -28 495 mark 0
AnchorPoint: "U" -300 495 mark 0
AnchorPoint: "UM" -296 495 basemark 0
LayerCount: 2
Fore
SplineSet
0 723 m 0
 0 621 -80 540 -180 540 c 0
 -279 540 -361 622 -361 725 c 0
 -361 827 -279 910 -181 910 c 0
 -80 910 0 824 0 723 c 0
-61 692 m 0
 -57 703 -55 716 -55 729 c 0
 -57 796 -112 854 -180 854 c 0
 -247 854 -304 796 -306 728 c 0
 -306 716 -304 705 -299 691 c 0
 -260 726 -218 736 -180 736 c 0
 -143 736 -97 726 -61 692 c 0
-79 647 m 0
 -111 680 -154 690 -180 690 c 0
 -205 690 -245 680 -280 647 c 0
 -258 618 -220 595 -181 595 c 0
 -139 595 -102 614 -79 647 c 0
-399 592 m 0
 -419 555 -455 537 -494 537 c 0
 -550 537 -598 586 -598 641 c 0
 -598 679 -582 705 -556 724 c 0
 -582 744 -598 768 -598 807 c 0
 -598 865 -551 910 -494 910 c 0
 -451 910 -426 889 -412 862 c 0
 -452 831 l 0
 -461 849 -473 860 -495 860 c 0
 -523 860 -548 837 -548 807 c 0
 -548 776 -520 747 -495 747 c 0
 -457 747 -419 725 -399 691 c 0
 -441 668 l 0
 -456 687 -471 697 -493 697 c 0
 -518 697 -547 674 -547 642 c 0
 -547 612 -519 588 -493 588 c 0
 -471 588 -456 597 -441 616 c 0
 -399 592 l 0
EndSplineSet
Ligature2: "sub_ligature_cligmymr_8 subtable" u1004.kinzi u102E
Ligature2: "sub_ligature_cligmymr_6 subtable" u1004.kinzi_u102E u200C u102E
Position2: "Single Positioning lookup 43 subtable" dx=180 dy=0 dh=0 dv=0
Comment: "GDL_order: 8+AAoA-mark: 80+AAoA" 
EndChar

StartChar: u1004.kinzi_u1032
Encoding: 114 -1 112
Width: 55
VWidth: 0
GlyphClass: 4
Flags: HW
AnchorPoint: "U" -300 485 mark 0
AnchorPoint: "UM" -296 495 basemark 0
LayerCount: 2
Fore
SplineSet
0 634 m 0
 -33 590 l 0
 -334 829 l 0
 -302 874 l 0
 0 634 l 0
-399 592 m 0
 -419 555 -455 537 -494 537 c 0
 -550 537 -598 586 -598 641 c 0
 -598 679 -582 705 -556 724 c 0
 -582 744 -598 768 -598 807 c 0
 -598 865 -551 910 -494 910 c 0
 -451 910 -426 889 -412 862 c 0
 -452 831 l 0
 -461 849 -473 860 -495 860 c 0
 -523 860 -548 837 -548 807 c 0
 -548 776 -519 747 -495 747 c 0
 -457 747 -419 725 -399 691 c 0
 -441 668 l 0
 -456 687 -471 697 -493 697 c 0
 -518 697 -547 674 -547 642 c 0
 -547 612 -519 588 -493 588 c 0
 -471 588 -456 597 -441 616 c 0
 -399 592 l 0
EndSplineSet
Ligature2: "sub_ligature_cligmymr_8 subtable" u1004.kinzi u1032
Comment: "GDL_order: 8+AAoA-mark: 80+AAoA" 
EndChar

StartChar: u1004.kinzi_u1033
Encoding: 115 -1 113
Width: 55
VWidth: 0
GlyphClass: 4
Flags: HW
AnchorPoint: "Y" -28 495 mark 0
AnchorPoint: "U" -300 495 mark 0
AnchorPoint: "UM" -296 495 basemark 0
LayerCount: 2
Fore
SplineSet
0 725 m 0
 0 623 -80 540 -179 540 c 0
 -280 540 -361 623 -361 725 c 0
 -361 825 -281 909 -182 909 c 0
 -80 909 0 825 0 725 c 0
-55 725 m 0
 -55 794 -110 854 -179 854 c 0
 -250 854 -306 794 -306 725 c 0
 -306 654 -250 595 -182 595 c 0
 -110 595 -55 654 -55 725 c 0
-112 725 m 0
 -112 689 -143 656 -179 656 c 0
 -215 656 -245 689 -245 725 c 0
 -245 761 -215 793 -179 793 c 0
 -143 793 -112 761 -112 725 c 0
-148 725 m 0
 -148 742 -162 756 -179 756 c 0
 -197 756 -210 742 -210 725 c 0
 -210 707 -197 692 -179 692 c 0
 -162 692 -148 707 -148 725 c 0
-399 592 m 0
 -419 555 -455 537 -494 537 c 0
 -550 537 -598 586 -598 641 c 0
 -598 679 -582 705 -556 724 c 0
 -582 744 -598 768 -598 807 c 0
 -598 865 -551 910 -494 910 c 0
 -451 910 -426 889 -412 862 c 0
 -452 831 l 0
 -461 849 -473 860 -495 860 c 0
 -523 860 -548 837 -548 807 c 0
 -548 776 -521 747 -495 747 c 0
 -457 747 -419 725 -399 691 c 0
 -441 668 l 0
 -456 687 -471 697 -493 697 c 0
 -518 697 -547 674 -547 642 c 0
 -547 612 -519 588 -493 588 c 0
 -471 588 -456 597 -441 616 c 0
 -399 592 l 0
EndSplineSet
Ligature2: "sub_ligature_cligmymr_8 subtable" u1004.kinzi u1033
Position2: "Single Positioning lookup 43 subtable" dx=180 dy=0 dh=0 dv=0
Comment: "GDL_order: 8+AAoA-mark: 80+AAoA" 
EndChar

StartChar: u1004.kinzi_u1036
Encoding: 116 -1 114
Width: 55
VWidth: 0
GlyphClass: 4
Flags: HW
AnchorPoint: "U" -246 495 mark 0
AnchorPoint: "UM" -258 495 basemark 0
LayerCount: 2
Fore
SplineSet
0 678 m 0
 0 629 -40 590 -87 590 c 0
 -134 590 -174 629 -174 678 c 0
 -174 724 -134 764 -87 764 c 0
 -40 764 0 724 0 678 c 0
-41 678 m 0
 -41 701 -62 722 -87 722 c 0
 -114 722 -133 701 -133 678 c 0
 -133 651 -114 630 -87 630 c 0
 -62 630 -41 650 -41 678 c 0
-189 592 m 0
 -208 555 -245 538 -284 538 c 0
 -339 538 -388 587 -388 642 c 0
 -388 679 -371 706 -346 724 c 0
 -371 744 -388 769 -388 807 c 0
 -388 865 -341 910 -284 910 c 0
 -240 910 -216 889 -202 862 c 0
 -241 832 l 0
 -251 849 -263 860 -285 860 c 0
 -313 860 -337 837 -337 807 c 0
 -337 776 -311 748 -285 748 c 0
 -246 748 -209 726 -189 691 c 0
 -231 669 l 0
 -246 688 -260 698 -283 698 c 0
 -308 698 -337 675 -337 642 c 0
 -337 612 -309 588 -283 588 c 0
 -261 588 -246 597 -231 616 c 0
 -189 592 l 0
EndSplineSet
Ligature2: "sub_ligature_cligmymr_8 subtable" u1004.kinzi u1036
Ligature2: "sub_ligature_cligmymr_6 subtable" u1004.kinzi_u1036 u200C u1036
Position2: "Single Positioning lookup 43 subtable" dx=180 dy=0 dh=0 dv=0
Comment: "GDL_order: 10+AAoA-mark: 80+AAoA" 
EndChar

StartChar: u1004.kinzi_u103A
Encoding: 117 -1 115
Width: 55
VWidth: 0
GlyphClass: 4
Flags: HW
AnchorPoint: "Y" -28 495 mark 0
AnchorPoint: "U" -300 495 mark 0
AnchorPoint: "UM" -296 495 basemark 0
LayerCount: 2
Fore
SplineSet
0 832 m 0
 -40 799 l 0
 -62 835 -100 855 -136 855 c 0
 -195 855 -264 808 -264 725 c 0
 -264 628 -168 589 -134 589 c 0
 -134 535 l 0
 -213 535 -319 608 -319 725 c 0
 -319 836 -229 910 -137 910 c 0
 -83 910 -28 884 0 832 c 0
-399 592 m 0
 -419 555 -455 537 -494 537 c 0
 -550 537 -598 586 -598 641 c 0
 -598 679 -582 705 -556 724 c 0
 -582 744 -598 768 -598 807 c 0
 -598 865 -551 910 -494 910 c 0
 -451 910 -426 889 -412 862 c 0
 -452 831 l 0
 -461 849 -473 860 -495 860 c 0
 -523 860 -548 837 -548 807 c 0
 -548 776 -521 747 -495 747 c 0
 -457 747 -419 725 -399 691 c 0
 -441 668 l 0
 -456 687 -471 697 -493 697 c 0
 -518 697 -547 674 -547 642 c 0
 -547 612 -519 588 -493 588 c 0
 -471 588 -456 597 -441 616 c 0
 -399 592 l 0
EndSplineSet
Ligature2: "sub_ligature_cligmymr_8 subtable" u1004.kinzi u103A
Position2: "Single Positioning lookup 43 subtable" dx=180 dy=0 dh=0 dv=0
Comment: "GDL_order: 8+AAoA-mark: 80+AAoA" 
EndChar

StartChar: u1004.kinzi_u102D_u1036
Encoding: 118 -1 116
Width: 55
VWidth: 0
GlyphClass: 4
Flags: HW
AnchorPoint: "Y" -135 495 mark 0
AnchorPoint: "U" -390 495 mark 0
AnchorPoint: "UM" -376 495 basemark 0
LayerCount: 2
Fore
SplineSet
-188 724 m 0
 -188 623 -269 539 -368 539 c 0
 -467 539 -549 623 -549 724 c 0
 -549 825 -467 909 -369 909 c 0
 -269 909 -188 825 -188 724 c 0
-243 724 m 0
 -243 794 -299 853 -368 853 c 0
 -438 853 -494 794 -494 724 c 0
 -494 655 -437 595 -369 595 c 0
 -299 595 -243 655 -243 724 c 0
0 638 m 0
 0 589 -40 550 -87 550 c 0
 -134 550 -174 589 -174 638 c 0
 -174 685 -134 724 -87 724 c 0
 -40 724 0 685 0 638 c 0
-41 638 m 0
 -41 662 -62 682 -87 682 c 0
 -114 682 -133 662 -133 638 c 0
 -133 612 -114 590 -87 590 c 0
 -62 590 -41 611 -41 638 c 0
-587 592 m 0
 -607 555 -644 537 -683 537 c 0
 -738 537 -786 586 -786 641 c 0
 -786 679 -770 705 -745 724 c 0
 -770 744 -786 768 -786 807 c 0
 -786 865 -739 910 -682 910 c 0
 -639 910 -614 889 -601 862 c 0
 -640 831 l 0
 -650 849 -662 860 -683 860 c 0
 -711 860 -736 837 -736 807 c 0
 -736 775 -708 747 -683 747 c 0
 -644 747 -607 725 -587 691 c 0
 -629 668 l 0
 -644 687 -659 697 -681 697 c 0
 -706 697 -735 674 -735 642 c 0
 -735 612 -708 588 -681 588 c 0
 -659 588 -645 597 -629 616 c 0
 -587 592 l 0
EndSplineSet
Ligature2: "sub_ligature_cligmymr_8 subtable" u1004.kinzi u102D_u1036
Comment: "GDL_order: 8+AAoA-mark: 80+AAoA" 
EndChar

StartChar: u1005
Encoding: 119 4101 117
Width: 581
VWidth: 0
GlyphClass: 2
Flags: HW
AnchorPoint: "R" 0 0 mark 0
AnchorPoint: "BS" 290 -53 basechar 0
AnchorPoint: "L" 290 -53 basechar 0
AnchorPoint: "U" 290 495 basechar 0
AnchorPoint: "BD" 288 -53 basechar 0
LayerCount: 2
Fore
SplineSet
525 222 m 0
 525 90 421 -18 291 -18 c 0
 159 -18 55 90 55 222 c 0
 55 352 159 461 289 461 c 0
 422 461 525 352 525 222 c 0
453 222 m 0
 453 311 382 388 295 390 c 0
 278 390 263 386 248 380 c 0
 295 330 309 272 309 222 c 0
 309 172 294 114 248 63 c 0
 263 58 278 54 293 54 c 0
 382 57 453 131 453 222 c 0
244 222 m 0
 244 256 231 307 189 352 c 0
 152 322 127 273 127 222 c 0
 127 168 150 122 188 92 c 0
 230 136 244 186 244 222 c 0
EndSplineSet
Ligature2: "LigatureSubstitutionlookup169 subtable" u1005 u103C
Ligature2: "LigatureSubstitutionlookup167 subtable" u1005 u103C u1031
Ligature2: "LigatureSubstitutionlookup167 subtable" u1005 u103C.wide u1031
Ligature2: "LigatureSubstitutionlookup167 subtable" u1005 u103C_u103D.narr u1031
Ligature2: "LigatureSubstitutionlookup167 subtable" u1005 u103C_u103D.wide u1031
Ligature2: "LigatureSubstitutionlookup165 subtable" u1005 u103C
Ligature2: "LigatureSubstitutionlookup165 subtable" u1005 u103C_u103D.narr
Ligature2: "LigatureSubstitutionlookup165 subtable" u1005 u103C_u102F.narr
Ligature2: "LigatureSubstitutionlookup163 subtable" u1005 u1031
Ligature2: "LigatureSubstitutionlookup163 subtable" u1005 u1084
Ligature2: "LigatureSubstitutionlookup162 subtable" u1005 u103D
Ligature2: "LigatureSubstitutionlookup162 subtable" u1005 u103E
Ligature2: "LigatureSubstitutionlookup162 subtable" u1005 u103D_u103E
Ligature2: "LigatureSubstitutionlookup162 subtable" u1005
Ligature2: "LigatureSubstitutionlookup162 subtable" u1005 u105F
Ligature2: "LigatureSubstitutionlookup162 subtable" u1005 u1060
Ligature2: "LigatureSubstitutionlookup162 subtable" u1005 u1082
Ligature2: "LigatureSubstitutionlookup158 subtable" u1005 u1039
Ligature2: "LigatureSubstitutionlookup130 subtable" u1004.kinzi u200D u1005
Ligature2: "LigatureSubstitutionlookup130 subtable" u101B.kinzi u200D u1005
Ligature2: "LigatureSubstitutionlookup127 subtable" u1004.kinzi u200D u1005
Ligature2: "LigatureSubstitutionlookup127 subtable" u101B.kinzi u200D u1005
Ligature2: "LigatureSubstitutionlookup124 subtable" u1004.kinzi u200D u1005
Ligature2: "LigatureSubstitutionlookup124 subtable" u101B.kinzi u200D u1005
MultipleSubs2: "MultipleSubstitutionlookup139 subtable" u200C u1031 u1005
MultipleSubs2: "MultipleSubstitutionlookup137 subtable" u200C u1084 u1005
MultipleSubs2: "MultipleSubstitutionlookup136 subtable" u200C u103C_u103D.narr u1005
MultipleSubs2: "MultipleSubstitutionlookup135 subtable" u200C u103C_u102F.narr u1005
MultipleSubs2: "MultipleSubstitutionlookup134 subtable" u200C u103C u1005
MultipleSubs2: "MultipleSubstitutionlookup129 subtable" u1005 u101B.kinzi
MultipleSubs2: "MultipleSubstitutionlookup128 subtable" u1005 u1004.kinzi
PairPos2: "PairwisePositioningkerninglooku subtable" uAA60.med.kham dx=-90 dy=0 dh=0 dv=0 dx=0 dy=0 dh=90 dv=0
PairPos2: "PairwisePositioningkerninglooku subtable" uAA60.med dx=-90 dy=0 dh=0 dv=0 dx=0 dy=0 dh=90 dv=0
PairPos2: "PairwisePositioningkerninglooku subtable" u1021.med dx=-90 dy=0 dh=0 dv=0 dx=0 dy=0 dh=90 dv=0
PairPos2: "PairwisePositioningkerninglooku subtable" u101E.med dx=-90 dy=0 dh=0 dv=0 dx=0 dy=0 dh=90 dv=0
PairPos2: "PairwisePositioningkerninglooku subtable" u101C.med dx=-90 dy=0 dh=0 dv=0 dx=0 dy=0 dh=90 dv=0
PairPos2: "PairwisePositioningkerninglooku subtable" u101A.med dx=-90 dy=0 dh=0 dv=0 dx=0 dy=0 dh=90 dv=0
PairPos2: "PairwisePositioningkerninglooku subtable" u1018.med dx=-90 dy=0 dh=0 dv=0 dx=0 dy=0 dh=90 dv=0
PairPos2: "PairwisePositioningkerninglooku subtable" u1011.med dx=-90 dy=0 dh=0 dv=0 dx=0 dy=0 dh=90 dv=0
PairPos2: "PairwisePositioningkerninglooku subtable" u1010.med dx=-90 dy=0 dh=0 dv=0 dx=0 dy=0 dh=90 dv=0
PairPos2: "PairwisePositioningkerninglooku subtable" u100F.med dx=-90 dy=0 dh=0 dv=0 dx=0 dy=0 dh=90 dv=0
PairPos2: "PairwisePositioningkerninglooku subtable" u100C.med dx=-90 dy=0 dh=0 dv=0 dx=0 dy=0 dh=90 dv=0
PairPos2: "PairwisePositioningkerninglooku subtable" u100A.med dx=-90 dy=0 dh=0 dv=0 dx=0 dy=0 dh=90 dv=0
PairPos2: "PairwisePositioningkerninglooku subtable" u1006.med dx=-90 dy=0 dh=0 dv=0 dx=0 dy=0 dh=90 dv=0
PairPos2: "PairwisePositioningkerninglooku subtable" u1003.med dx=-90 dy=0 dh=0 dv=0 dx=0 dy=0 dh=90 dv=0
PairPos2: "PairwisePositioningkerninglooku subtable" u1000.med dx=-90 dy=0 dh=0 dv=0 dx=0 dy=0 dh=90 dv=0
Position2: "SinglePositioninglookup48 per glyph data 0" dx=100 dy=0 dh=50 dv=0
Position2: "SinglePositioninglookup30 subtable" dx=140 dy=0 dh=140 dv=0
Comment: "GDL_order: 1+AAoA-mark: 80+AAoA" 
EndChar

StartChar: u1005.med
Encoding: 120 -1 118
Width: 0
VWidth: 0
GlyphClass: 4
Flags: HW
AnchorPoint: "BS" -235 -53 mark 0
AnchorPoint: "LLM" -566 -53 basemark 0
AnchorPoint: "BSM" -235 -53 mark 0
AnchorPoint: "LM" 95 -53 basemark 0
AnchorPoint: "BS" 234 -53 basemark 0
AnchorPoint: "BSM" 556 -53 basemark 0
LayerCount: 2
Fore
SplineSet
-55 -272 m 0
 -55 -375 -136 -457 -235 -457 c 0
 -335 -457 -416 -375 -416 -272 c 0
 -416 -170 -335 -87 -236 -87 c 0
 -136 -87 -55 -170 -55 -272 c 0
-110 -272 m 0
 -110 -203 -165 -144 -232 -143 c 0
 -246 -143 -256 -145 -267 -149 c 0
 -231 -189 -221 -234 -221 -272 c 0
 -221 -310 -234 -357 -269 -395 c 0
 -257 -399 -246 -401 -232 -401 c 0
 -165 -400 -110 -341 -110 -272 c 0
-267 -272 m 0
 -267 -246 -278 -205 -310 -170 c 0
 -341 -192 -361 -230 -361 -272 c 0
 -361 -314 -342 -352 -311 -373 c 0
 -279 -338 -267 -300 -267 -272 c 0
EndSplineSet
Ligature2: "LigatureSubstitutionlookup179 subtable" u1005.med u102D
Ligature2: "LigatureSubstitutionlookup179 subtable" u1005.med u102E
Ligature2: "LigatureSubstitutionlookup179 subtable" u1005.med u1032
Ligature2: "LigatureSubstitutionlookup179 subtable" u1005.med u103A
Ligature2: "LigatureSubstitutionlookup171 subtable" u1005.med u103C u1031
Ligature2: "LigatureSubstitutionlookup159 subtable" u1005.med u1031
Ligature2: "LigatureSubstitutionlookup159 subtable" u1005.med u103C
Ligature2: "sub_ligature_cligmymr_0 subtable" u1039 u1005
MultipleSubs2: "MultipleSubstitutionlookup138 subtable" u1039 u1005.med
Comment: "GDL_order: 2+AAoA-mark: 80+AAoA" 
EndChar

StartChar: u1006
Encoding: 121 4102 119
Width: 982
VWidth: 0
GlyphClass: 2
Flags: HW
AnchorPoint: "R" 0 0 mark 0
AnchorPoint: "BS" 692 -53 basechar 0
AnchorPoint: "L" 692 -53 basechar 0
AnchorPoint: "BD" 492 -53 basechar 0
AnchorPoint: "U" 692 495 basechar 0
LayerCount: 2
Fore
SplineSet
927 222 m 0
 927 90 820 -18 692 -18 c 0
 606 -18 532 29 492 98 c 0
 452 29 377 -18 289 -18 c 0
 188 -18 64 52 56 166 c 0
 120 202 173 221 223 221 c 0
 293 221 370 185 419 122 c 0
 442 149 456 182 456 222 c 0
 456 297 393 390 289 390 c 0
 230 390 170 358 129 292 c 0
 68 327 l 0
 105 412 197 461 289 461 c 0
 378 461 452 413 492 345 c 0
 532 415 606 461 692 461 c 0
 821 461 927 352 927 222 c 0
855 222 m 0
 855 313 782 390 692 390 c 0
 601 390 528 313 528 222 c 0
 528 130 603 54 692 54 c 0
 783 54 855 130 855 222 c 0
371 75 m 0
 340 122 287 156 226 156 c 0
 197 156 169 149 137 135 c 0
 175 76 234 54 289 54 c 0
 320 54 346 62 371 75 c 0
EndSplineSet
Ligature2: "LigatureSubstitutionlookup169 subtable" u1006 u103C
Ligature2: "LigatureSubstitutionlookup167 subtable" u1006 u103C u1031
Ligature2: "LigatureSubstitutionlookup167 subtable" u1006 u103C.wide u1031
Ligature2: "LigatureSubstitutionlookup167 subtable" u1006 u103C_u103D.narr u1031
Ligature2: "LigatureSubstitutionlookup167 subtable" u1006 u103C_u103D.wide u1031
Ligature2: "LigatureSubstitutionlookup165 subtable" u1006 u103C
Ligature2: "LigatureSubstitutionlookup165 subtable" u1006 u103C_u103D.narr
Ligature2: "LigatureSubstitutionlookup165 subtable" u1006 u103C_u102F.narr
Ligature2: "LigatureSubstitutionlookup163 subtable" u1006 u1031
Ligature2: "LigatureSubstitutionlookup163 subtable" u1006 u1084
Ligature2: "LigatureSubstitutionlookup162 subtable" u1006 u103D
Ligature2: "LigatureSubstitutionlookup162 subtable" u1006 u103E
Ligature2: "LigatureSubstitutionlookup162 subtable" u1006 u103D_u103E
Ligature2: "LigatureSubstitutionlookup162 subtable" u1006
Ligature2: "LigatureSubstitutionlookup162 subtable" u1006 u105F
Ligature2: "LigatureSubstitutionlookup162 subtable" u1006 u1060
Ligature2: "LigatureSubstitutionlookup162 subtable" u1006 u1082
Ligature2: "LigatureSubstitutionlookup158 subtable" u1006 u1039
Ligature2: "LigatureSubstitutionlookup130 subtable" u1004.kinzi u200D u1006
Ligature2: "LigatureSubstitutionlookup130 subtable" u101B.kinzi u200D u1006
Ligature2: "LigatureSubstitutionlookup127 subtable" u1004.kinzi u200D u1006
Ligature2: "LigatureSubstitutionlookup127 subtable" u101B.kinzi u200D u1006
Ligature2: "LigatureSubstitutionlookup124 subtable" u1004.kinzi u200D u1006
Ligature2: "LigatureSubstitutionlookup124 subtable" u101B.kinzi u200D u1006
MultipleSubs2: "MultipleSubstitutionlookup139 subtable" u200C u1031 u1006
MultipleSubs2: "MultipleSubstitutionlookup137 subtable" u200C u1084 u1006
MultipleSubs2: "MultipleSubstitutionlookup136 subtable" u200C u103C_u103D.wide u1006
MultipleSubs2: "MultipleSubstitutionlookup135 subtable" u200C u103C_u102F.wide u1006
MultipleSubs2: "MultipleSubstitutionlookup134 subtable" u200C u103C.wide u1006
MultipleSubs2: "MultipleSubstitutionlookup129 subtable" u1006 u101B.kinzi
MultipleSubs2: "MultipleSubstitutionlookup128 subtable" u1006 u1004.kinzi
Comment: "GDL_order: 1+AAoA-mark: 80+AAoA" 
EndChar

StartChar: u1006.med
Encoding: 122 -1 120
Width: 0
VWidth: 0
GlyphClass: 4
Flags: HW
AnchorPoint: "LLM" -877 -53 basemark 0
AnchorPoint: "BD" -391 -53 mark 0
AnchorPoint: "BSM" 94 -53 basemark 0
AnchorPoint: "LM" 95 -53 basemark 0
AnchorPoint: "BSM" 877 -53 mark 0
AnchorPoint: "BDM" -395 -53 mark 0
AnchorPoint: "BD" 394 -53 basemark 0
LayerCount: 2
Fore
SplineSet
-55 -272 m 0
 -55 -375 -137 -457 -236 -457 c 0
 -302 -457 -358 -420 -390 -368 c 0
 -421 -420 -479 -457 -547 -457 c 0
 -633 -457 -718 -396 -726 -315 c 0
 -676 -285 -634 -271 -597 -271 c 0
 -545 -271 -479 -302 -447 -349 c 0
 -427 -326 -417 -301 -417 -272 c 0
 -417 -213 -465 -143 -547 -143 c 0
 -590 -143 -636 -165 -668 -218 c 0
 -717 -191 l 0
 -682 -117 -602 -87 -547 -87 c 0
 -479 -87 -420 -125 -390 -177 c 0
 -359 -124 -302 -87 -236 -87 c 0
 -136 -87 -55 -170 -55 -272 c 0
-110 -272 m 0
 -110 -202 -167 -143 -236 -143 c 0
 -307 -143 -362 -202 -362 -272 c 0
 -362 -342 -305 -401 -236 -401 c 0
 -167 -401 -110 -342 -110 -272 c 0
-480 -384 m 0
 -501 -347 -548 -319 -597 -319 c 0
 -618 -319 -641 -325 -665 -336 c 0
 -639 -381 -588 -401 -546 -401 c 0
 -522 -401 -500 -394 -480 -384 c 0
EndSplineSet
Ligature2: "LigatureSubstitutionlookup179 subtable" u1006.med u102D
Ligature2: "LigatureSubstitutionlookup179 subtable" u1006.med u102E
Ligature2: "LigatureSubstitutionlookup179 subtable" u1006.med u1032
Ligature2: "LigatureSubstitutionlookup179 subtable" u1006.med u103A
Ligature2: "LigatureSubstitutionlookup171 subtable" u1006.med u103C u1031
Ligature2: "LigatureSubstitutionlookup159 subtable" u1006.med u1031
Ligature2: "LigatureSubstitutionlookup159 subtable" u1006.med u103C
Ligature2: "sub_ligature_cligmymr_0 subtable" u1039 u1006
MultipleSubs2: "MultipleSubstitutionlookup138 subtable" u1039 u1006.med
LCarets2: 2 0 0 
Comment: "GDL_order: 2+AAoA-mark: 80+AAoA" 
EndChar

StartChar: u1007
Encoding: 123 4103 121
Width: 622
VWidth: 0
GlyphClass: 2
Flags: HW
AnchorPoint: "R" 0 0 mark 0
AnchorPoint: "BS" 290 -53 basechar 0
AnchorPoint: "L" 290 -53 basechar 0
AnchorPoint: "U" 291 495 basechar 0
AnchorPoint: "BD" 286 -53 basechar 0
LayerCount: 2
Fore
SplineSet
581 154 m 0
 527 115 l 0
 514 140 494 175 477 200 c 0
 453 165 410 148 369 148 c 0
 313 148 262 181 262 241 c 0
 262 293 295 338 358 343 c 0
 372 343 386 340 401 333 c 0
 385 363 351 391 292 391 c 0
 201 391 127 310 127 222 c 0
 127 127 198 54 290 54 c 0
 345 54 382 71 419 103 c 0
 468 50 l 0
 420 6 374 -18 290 -18 c 0
 157 -18 55 90 55 222 c 0
 55 351 163 461 290 461 c 0
 402 461 490 391 498 289 c 0
 523 259 560 197 581 154 c 0
434 256 m 0
 414 275 396 283 367 283 c 0
 342 283 324 270 324 241 c 0
 324 220 347 210 369 210 c 0
 399 210 430 221 434 256 c 0
EndSplineSet
Ligature2: "LigatureSubstitutionlookup169 subtable" u1007 u103C
Ligature2: "LigatureSubstitutionlookup167 subtable" u1007 u103C u1031
Ligature2: "LigatureSubstitutionlookup167 subtable" u1007 u103C.wide u1031
Ligature2: "LigatureSubstitutionlookup167 subtable" u1007 u103C_u103D.narr u1031
Ligature2: "LigatureSubstitutionlookup167 subtable" u1007 u103C_u103D.wide u1031
Ligature2: "LigatureSubstitutionlookup165 subtable" u1007 u103C
Ligature2: "LigatureSubstitutionlookup165 subtable" u1007 u103C_u103D.narr
Ligature2: "LigatureSubstitutionlookup165 subtable" u1007 u103C_u102F.narr
Ligature2: "LigatureSubstitutionlookup163 subtable" u1007 u1031
Ligature2: "LigatureSubstitutionlookup163 subtable" u1007 u1084
Ligature2: "LigatureSubstitutionlookup162 subtable" u1007 u103D
Ligature2: "LigatureSubstitutionlookup162 subtable" u1007 u103E
Ligature2: "LigatureSubstitutionlookup162 subtable" u1007 u103D_u103E
Ligature2: "LigatureSubstitutionlookup162 subtable" u1007
Ligature2: "LigatureSubstitutionlookup162 subtable" u1007 u105F
Ligature2: "LigatureSubstitutionlookup162 subtable" u1007 u1060
Ligature2: "LigatureSubstitutionlookup162 subtable" u1007 u1082
Ligature2: "LigatureSubstitutionlookup158 subtable" u1007 u1039
Ligature2: "LigatureSubstitutionlookup130 subtable" u1004.kinzi u200D u1007
Ligature2: "LigatureSubstitutionlookup130 subtable" u101B.kinzi u200D u1007
Ligature2: "LigatureSubstitutionlookup127 subtable" u1004.kinzi u200D u1007
Ligature2: "LigatureSubstitutionlookup127 subtable" u101B.kinzi u200D u1007
Ligature2: "LigatureSubstitutionlookup124 subtable" u1004.kinzi u200D u1007
Ligature2: "LigatureSubstitutionlookup124 subtable" u101B.kinzi u200D u1007
MultipleSubs2: "MultipleSubstitutionlookup139 subtable" u200C u1031 u1007
MultipleSubs2: "MultipleSubstitutionlookup137 subtable" u200C u1084 u1007
MultipleSubs2: "MultipleSubstitutionlookup136 subtable" u200C u103C_u103D.narr u1007
MultipleSubs2: "MultipleSubstitutionlookup135 subtable" u200C u103C_u102F.narr u1007
MultipleSubs2: "MultipleSubstitutionlookup134 subtable" u200C u103C u1007
MultipleSubs2: "MultipleSubstitutionlookup129 subtable" u1007 u101B.kinzi
MultipleSubs2: "MultipleSubstitutionlookup128 subtable" u1007 u1004.kinzi
PairPos2: "PairwisePositioningkerninglooku subtable" uAA60.med.kham dx=-90 dy=0 dh=0 dv=0 dx=0 dy=0 dh=90 dv=0
PairPos2: "PairwisePositioningkerninglooku subtable" uAA60.med dx=-90 dy=0 dh=0 dv=0 dx=0 dy=0 dh=90 dv=0
PairPos2: "PairwisePositioningkerninglooku subtable" u1021.med dx=-90 dy=0 dh=0 dv=0 dx=0 dy=0 dh=90 dv=0
PairPos2: "PairwisePositioningkerninglooku subtable" u101E.med dx=-90 dy=0 dh=0 dv=0 dx=0 dy=0 dh=90 dv=0
PairPos2: "PairwisePositioningkerninglooku subtable" u101C.med dx=-90 dy=0 dh=0 dv=0 dx=0 dy=0 dh=90 dv=0
PairPos2: "PairwisePositioningkerninglooku subtable" u101A.med dx=-90 dy=0 dh=0 dv=0 dx=0 dy=0 dh=90 dv=0
PairPos2: "PairwisePositioningkerninglooku subtable" u1018.med dx=-90 dy=0 dh=0 dv=0 dx=0 dy=0 dh=90 dv=0
PairPos2: "PairwisePositioningkerninglooku subtable" u1011.med dx=-90 dy=0 dh=0 dv=0 dx=0 dy=0 dh=90 dv=0
PairPos2: "PairwisePositioningkerninglooku subtable" u1010.med dx=-90 dy=0 dh=0 dv=0 dx=0 dy=0 dh=90 dv=0
PairPos2: "PairwisePositioningkerninglooku subtable" u100F.med dx=-90 dy=0 dh=0 dv=0 dx=0 dy=0 dh=90 dv=0
PairPos2: "PairwisePositioningkerninglooku subtable" u100C.med dx=-90 dy=0 dh=0 dv=0 dx=0 dy=0 dh=90 dv=0
PairPos2: "PairwisePositioningkerninglooku subtable" u100A.med dx=-90 dy=0 dh=0 dv=0 dx=0 dy=0 dh=90 dv=0
PairPos2: "PairwisePositioningkerninglooku subtable" u1006.med dx=-90 dy=0 dh=0 dv=0 dx=0 dy=0 dh=90 dv=0
PairPos2: "PairwisePositioningkerninglooku subtable" u1003.med dx=-90 dy=0 dh=0 dv=0 dx=0 dy=0 dh=90 dv=0
PairPos2: "PairwisePositioningkerninglooku subtable" u1000.med dx=-90 dy=0 dh=0 dv=0 dx=0 dy=0 dh=90 dv=0
Position2: "SinglePositioninglookup48 per glyph data 0" dx=100 dy=0 dh=50 dv=0
Position2: "SinglePositioninglookup30 subtable" dx=140 dy=0 dh=140 dv=0
Comment: "GDL_order: 1+AAoA-mark: 80+AAoA" 
EndChar

StartChar: u1007.med
Encoding: 124 -1 122
Width: 0
VWidth: 0
GlyphClass: 4
Flags: HW
AnchorPoint: "BS" -287 -53 mark 0
AnchorPoint: "LLM" -612 -53 basemark 0
AnchorPoint: "BSM" -287 -53 mark 0
AnchorPoint: "LM" 34 -53 basemark 0
AnchorPoint: "BS" 224 -53 basemark 0
AnchorPoint: "BSM" 532 -53 basemark 0
LayerCount: 2
Fore
SplineSet
-56 -325 m 0
 -98 -355 l 0
 -107 -338 -128 -303 -137 -289 c 0
 -156 -315 -188 -329 -220 -329 c 0
 -263 -329 -303 -305 -303 -257 c 0
 -303 -216 -277 -182 -228 -179 c 0
 -218 -179 -206 -182 -195 -187 c 0
 -207 -164 -233 -143 -280 -143 c 0
 -350 -143 -407 -204 -407 -272 c 0
 -407 -345 -352 -401 -280 -401 c 0
 -238 -401 -212 -391 -181 -364 c 0
 -143 -405 l 0
 -180 -439 -218 -457 -281 -457 c 0
 -383 -457 -462 -375 -462 -272 c 0
 -462 -172 -378 -87 -280 -87 c 0
 -193 -87 -125 -140 -120 -224 c 0
 -97 -251 -76 -287 -56 -325 c 0
-170 -245 m 0
 -186 -229 -199 -225 -222 -225 c 0
 -243 -225 -255 -236 -255 -257 c 0
 -255 -272 -240 -281 -220 -281 c 0
 -196 -281 -175 -271 -170 -245 c 0
EndSplineSet
Ligature2: "LigatureSubstitutionlookup179 subtable" u1007.med u102D
Ligature2: "LigatureSubstitutionlookup179 subtable" u1007.med u102E
Ligature2: "LigatureSubstitutionlookup179 subtable" u1007.med u1032
Ligature2: "LigatureSubstitutionlookup179 subtable" u1007.med u103A
Ligature2: "LigatureSubstitutionlookup171 subtable" u1007.med u103C u1031
Ligature2: "LigatureSubstitutionlookup159 subtable" u1007.med u1031
Ligature2: "LigatureSubstitutionlookup159 subtable" u1007.med u103C
Ligature2: "sub_ligature_cligmymr_0 subtable" u1039 u1007
MultipleSubs2: "MultipleSubstitutionlookup138 subtable" u1039 u1007.med
Comment: "GDL_order: 2+AAoA-mark: 80+AAoA" 
EndChar

StartChar: u1008
Encoding: 125 4104 123
Width: 760
VWidth: 0
GlyphClass: 2
Flags: HW
AnchorPoint: "R" 0 0 mark 0
AnchorPoint: "BS" 841 -53 basechar 0
AnchorPoint: "LL" 196 -53 basechar 0
AnchorPoint: "L" 841 -53 basechar 0
AnchorPoint: "U" 541 489 basechar 0
AnchorPoint: "BD" 810 -53 basechar 0
LayerCount: 2
Fore
SplineSet
692 -457 m 0
 345 -371 l 0
 345 -10 l 0
 327 -15 310 -17 292 -17 c 0
 159 -17 55 90 55 222 c 0
 55 353 160 462 289 462 c 0
 422 462 525 353 525 222 c 0
 525 136 483 62 418 20 c 0
 418 -314 l 0
 620 -364 l 0
 620 451 l 0
 692 451 l 0
 692 -457 l 0
453 222 m 0
 453 313 382 389 294 390 c 0
 278 390 264 386 249 381 c 0
 294 330 309 271 309 222 c 0
 309 173 293 114 248 63 c 0
 261 57 276 54 292 54 c 0
 382 57 453 132 453 222 c 0
244 222 m 0
 244 257 232 308 189 353 c 0
 151 322 127 275 127 222 c 0
 127 169 150 123 187 92 c 0
 230 137 244 187 244 222 c 0
EndSplineSet
Ligature2: "LigatureSubstitutionlookup169 subtable" u1008 u103C
Ligature2: "LigatureSubstitutionlookup167 subtable" u1008 u103C u1031
Ligature2: "LigatureSubstitutionlookup167 subtable" u1008 u103C.wide u1031
Ligature2: "LigatureSubstitutionlookup167 subtable" u1008 u103C_u103D.narr u1031
Ligature2: "LigatureSubstitutionlookup167 subtable" u1008 u103C_u103D.wide u1031
Ligature2: "LigatureSubstitutionlookup165 subtable" u1008 u103C
Ligature2: "LigatureSubstitutionlookup165 subtable" u1008 u103C_u103D.narr
Ligature2: "LigatureSubstitutionlookup165 subtable" u1008 u103C_u102F.narr
Ligature2: "LigatureSubstitutionlookup163 subtable" u1008 u1031
Ligature2: "LigatureSubstitutionlookup163 subtable" u1008 u1084
Ligature2: "LigatureSubstitutionlookup162 subtable" u1008 u103D
Ligature2: "LigatureSubstitutionlookup162 subtable" u1008 u103E
Ligature2: "LigatureSubstitutionlookup162 subtable" u1008 u103D_u103E
Ligature2: "LigatureSubstitutionlookup162 subtable" u1008
Ligature2: "LigatureSubstitutionlookup162 subtable" u1008 u105F
Ligature2: "LigatureSubstitutionlookup162 subtable" u1008 u1060
Ligature2: "LigatureSubstitutionlookup162 subtable" u1008 u1082
Ligature2: "LigatureSubstitutionlookup158 subtable" u1008 u1039
Ligature2: "LigatureSubstitutionlookup130 subtable" u1004.kinzi u200D u1008
Ligature2: "LigatureSubstitutionlookup130 subtable" u101B.kinzi u200D u1008
Ligature2: "LigatureSubstitutionlookup127 subtable" u1004.kinzi u200D u1008
Ligature2: "LigatureSubstitutionlookup127 subtable" u101B.kinzi u200D u1008
Ligature2: "LigatureSubstitutionlookup124 subtable" u1004.kinzi u200D u1008
Ligature2: "LigatureSubstitutionlookup124 subtable" u101B.kinzi u200D u1008
MultipleSubs2: "MultipleSubstitutionlookup139 subtable" u200C u1031 u1008
MultipleSubs2: "MultipleSubstitutionlookup137 subtable" u200C u1084 u1008
MultipleSubs2: "MultipleSubstitutionlookup129 subtable" u1008 u101B.kinzi
MultipleSubs2: "MultipleSubstitutionlookup128 subtable" u1008 u1004.kinzi
Comment: "GDL_order: 1+AAoA-mark: 80+AAoA" 
EndChar

StartChar: u1008.med
Encoding: 126 -1 124
Width: 183
VWidth: 0
GlyphClass: 2
Flags: HW
AnchorPoint: "BS" 277 -53 basechar 0
AnchorPoint: "L" 277 -53 basechar 0
AnchorPoint: "dot" -221 -53 basechar 0
AnchorPoint: "U" 0 495 basechar 0
LayerCount: 2
Fore
SplineSet
127 -457 m 0
 -104 -397 l 0
 -136 -424 -175 -442 -220 -442 c 0
 -320 -442 -401 -358 -401 -257 c 0
 -401 -155 -324 -73 -224 -73 c 0
 -124 -73 -40 -155 -40 -257 c 0
 -40 -284 -46 -311 -60 -334 c 0
 55 -364 l 0
 55 444 l 0
 127 444 l 0
 127 -457 l 0
-95 -257 m 0
 -95 -188 -150 -130 -218 -129 c 0
 -230 -129 -242 -131 -252 -135 c 0
 -215 -173 -206 -218 -206 -257 c 0
 -206 -295 -218 -341 -253 -380 c 0
 -243 -384 -230 -386 -218 -386 c 0
 -150 -384 -95 -326 -95 -257 c 0
-252 -257 m 0
 -252 -231 -263 -190 -295 -155 c 0
 -327 -178 -346 -215 -346 -257 c 0
 -346 -299 -327 -337 -296 -358 c 0
 -264 -323 -252 -283 -252 -257 c 0
EndSplineSet
Ligature2: "LigatureSubstitutionlookup179 subtable" u1008.med u102D
Ligature2: "LigatureSubstitutionlookup179 subtable" u1008.med u102E
Ligature2: "LigatureSubstitutionlookup179 subtable" u1008.med u1032
Ligature2: "LigatureSubstitutionlookup179 subtable" u1008.med u103A
Ligature2: "LigatureSubstitutionlookup171 subtable" u1008.med u103C u1031
Ligature2: "LigatureSubstitutionlookup159 subtable" u1008.med u1031
Ligature2: "LigatureSubstitutionlookup159 subtable" u1008.med u103C
Ligature2: "sub_ligature_cligmymr_0 subtable" u1039 u1008
MultipleSubs2: "MultipleSubstitutionlookup138 subtable" u1039 u1008.med
Comment: "GDL_order: 2+AAoA-mark: 80+AAoA" 
EndChar

StartChar: u1009
Encoding: 127 4105 125
Width: 572
VWidth: 0
GlyphClass: 2
Flags: HW
AnchorPoint: "R" 0 0 mark 0
AnchorPoint: "BS" 450 -53 basechar 0
AnchorPoint: "LL" 724 -53 basechar 0
AnchorPoint: "L" 285 -53 basechar 0
AnchorPoint: "U" 277 495 basechar 0
AnchorPoint: "BD" 450 -53 basechar 0
LayerCount: 2
Fore
SplineSet
910 -292 m 0
 910 -346 l 0
 910 -392 904 -413 891 -428 c 0
 876 -447 857 -457 812 -457 c 0
 296 -457 l 0
 214 -457 160 -436 117 -392 c 0
 72 -346 55 -291 55 -217 c 0
 55 117 l 0
 119 151 l 0
 157 81 224 54 277 54 c 0
 369 54 445 130 445 222 c 0
 445 313 369 390 277 390 c 0
 224 390 157 362 119 292 c 0
 55 327 l 0
 97 419 193 461 277 461 c 0
 408 461 516 352 516 222 c 0
 516 90 408 -18 277 -18 c 0
 226 -18 171 0 127 33 c 0
 127 -202 l 0
 127 -261 136 -309 169 -342 c 0
 203 -376 251 -385 310 -385 c 0
 790 -385 l 0
 833 -385 838 -377 838 -332 c 0
 838 -292 l 0
 910 -292 l 0
EndSplineSet
Substitution2: "SingleSubstitutionlookup146 subtable" u1025
Ligature2: "LigatureSubstitutionlookup169 subtable" u1009 u103C
Ligature2: "LigatureSubstitutionlookup167 subtable" u1009 u103C u1031
Ligature2: "LigatureSubstitutionlookup167 subtable" u1009 u103C.wide u1031
Ligature2: "LigatureSubstitutionlookup167 subtable" u1009 u103C_u103D.narr u1031
Ligature2: "LigatureSubstitutionlookup167 subtable" u1009 u103C_u103D.wide u1031
Ligature2: "LigatureSubstitutionlookup165 subtable" u1009 u103C
Ligature2: "LigatureSubstitutionlookup165 subtable" u1009 u103C_u103D.narr
Ligature2: "LigatureSubstitutionlookup165 subtable" u1009 u103C_u102F.narr
Ligature2: "LigatureSubstitutionlookup163 subtable" u1009 u1031
Ligature2: "LigatureSubstitutionlookup163 subtable" u1009 u1084
Ligature2: "LigatureSubstitutionlookup162 subtable" u1009 u103D
Ligature2: "LigatureSubstitutionlookup162 subtable" u1009 u103E
Ligature2: "LigatureSubstitutionlookup162 subtable" u1009 u103D_u103E
Ligature2: "LigatureSubstitutionlookup162 subtable" u1009
Ligature2: "LigatureSubstitutionlookup162 subtable" u1009 u105F
Ligature2: "LigatureSubstitutionlookup162 subtable" u1009 u1060
Ligature2: "LigatureSubstitutionlookup162 subtable" u1009 u1082
Ligature2: "LigatureSubstitutionlookup158 subtable" u1009 u1039
Ligature2: "LigatureSubstitutionlookup130 subtable" u1004.kinzi u200D u1009
Ligature2: "LigatureSubstitutionlookup130 subtable" u101B.kinzi u200D u1009
Ligature2: "LigatureSubstitutionlookup127 subtable" u1004.kinzi u200D u1009
Ligature2: "LigatureSubstitutionlookup127 subtable" u101B.kinzi u200D u1009
Ligature2: "LigatureSubstitutionlookup124 subtable" u1004.kinzi u200D u1009
Ligature2: "LigatureSubstitutionlookup124 subtable" u101B.kinzi u200D u1009
MultipleSubs2: "MultipleSubstitutionlookup139 subtable" u200C u1031 u1009
MultipleSubs2: "MultipleSubstitutionlookup137 subtable" u200C u1084 u1009
MultipleSubs2: "MultipleSubstitutionlookup129 subtable" u1009 u101B.kinzi
MultipleSubs2: "MultipleSubstitutionlookup128 subtable" u1009 u1004.kinzi
Comment: "GDL_order: 1+AAoA-mark: 80+AAoA" 
EndChar

StartChar: u1009_u102C
Encoding: 128 -1 126
Width: 978
VWidth: 0
GlyphClass: 2
Flags: HW
AnchorPoint: "R" 0 0 mark 0
AnchorPoint: "BS" 1049 -53 basechar 0
AnchorPoint: "L" 670 -53 basechar 0
AnchorPoint: "U" 686 495 basechar 0
AnchorPoint: "BD" 1063 -53 basechar 0
LayerCount: 2
Fore
SplineSet
923 222 m 0
 923 90 815 -18 686 -18 c 0
 662 -18 637 -13 616 -4 c 0
 644 62 l 0
 657 56 673 54 686 54 c 0
 777 54 851 130 851 222 c 0
 851 313 777 390 686 390 c 0
 603 390 525 296 516 218 c 0
 515 202 l 0
 509 94 412 -18 277 -18 c 0
 226 -18 170 -1 127 34 c 0
 127 -202 l 0
 127 -261 136 -309 169 -342 c 0
 203 -376 251 -385 310 -385 c 0
 786 -385 l 0
 830 -385 835 -377 835 -332 c 0
 835 -292 l 0
 907 -292 l 0
 907 -346 l 0
 907 -392 901 -413 888 -428 c 0
 873 -447 854 -457 809 -457 c 0
 295 -457 l 0
 213 -457 160 -436 116 -392 c 0
 72 -346 55 -292 55 -218 c 0
 55 117 l 0
 119 151 l 0
 152 89 212 54 277 54 c 0
 365 54 445 128 445 222 c 0
 445 313 369 390 277 390 c 0
 224 390 157 362 119 292 c 0
 55 327 l 0
 97 419 193 461 277 461 c 0
 367 461 446 409 484 334 c 0
 527 406 599 461 686 461 c 0
 815 461 923 352 923 222 c 0
EndSplineSet
Ligature2: "sub_ligature_cligmymr_4 subtable" u1009 u102C
Comment: "GDL_order: 1+AAoA-mark: 80+AAoA" 
EndChar

StartChar: u100A
Encoding: 129 4106 127
Width: 978
VWidth: 0
GlyphClass: 2
Flags: HW
AnchorPoint: "R" 0 0 mark 0
AnchorPoint: "BS" 1056 -53 basechar 0
AnchorPoint: "L" 670 -53 basechar 0
AnchorPoint: "U" 686 495 basechar 0
AnchorPoint: "BD" 1063 -53 basechar 0
LayerCount: 2
Fore
SplineSet
923 222 m 0
 923 90 815 -18 686 -18 c 0
 599 -18 527 37 485 109 c 0
 446 34 367 -18 277 -18 c 0
 226 -18 170 -1 127 34 c 0
 127 -202 l 0
 127 -261 136 -309 169 -342 c 0
 203 -376 251 -385 310 -385 c 0
 786 -385 l 0
 830 -385 835 -377 835 -332 c 0
 835 -292 l 0
 907 -292 l 0
 907 -346 l 0
 907 -392 901 -413 888 -428 c 0
 873 -447 854 -457 809 -457 c 0
 296 -457 l 0
 214 -457 160 -436 117 -392 c 0
 72 -346 55 -291 55 -217 c 0
 55 117 l 0
 119 151 l 0
 152 87 214 54 277 54 c 0
 369 54 445 130 445 220 c 0
 445 303 374 390 277 390 c 0
 212 390 155 358 119 292 c 0
 55 327 l 0
 97 419 193 461 277 461 c 0
 405 461 513 353 516 225 c 0
 528 142 603 54 686 54 c 0
 777 54 851 130 851 222 c 0
 851 313 777 390 686 390 c 0
 673 390 656 386 644 381 c 0
 616 447 l 0
 636 455 664 461 686 461 c 0
 815 461 923 354 923 222 c 0
EndSplineSet
Substitution2: "SingleSubstitutionlookup143 subtable" u100A.alt
Ligature2: "LigatureSubstitutionlookup169 subtable" u100A u103C
Ligature2: "LigatureSubstitutionlookup167 subtable" u100A u103C u1031
Ligature2: "LigatureSubstitutionlookup167 subtable" u100A u103C.wide u1031
Ligature2: "LigatureSubstitutionlookup167 subtable" u100A u103C_u103D.narr u1031
Ligature2: "LigatureSubstitutionlookup167 subtable" u100A u103C_u103D.wide u1031
Ligature2: "LigatureSubstitutionlookup165 subtable" u100A u103C
Ligature2: "LigatureSubstitutionlookup165 subtable" u100A u103C_u103D.narr
Ligature2: "LigatureSubstitutionlookup165 subtable" u100A u103C_u102F.narr
Ligature2: "LigatureSubstitutionlookup163 subtable" u100A u1031
Ligature2: "LigatureSubstitutionlookup163 subtable" u100A u1084
Ligature2: "LigatureSubstitutionlookup162 subtable" u100A u103D
Ligature2: "LigatureSubstitutionlookup162 subtable" u100A u103E
Ligature2: "LigatureSubstitutionlookup162 subtable" u100A u103D_u103E
Ligature2: "LigatureSubstitutionlookup162 subtable" u100A
Ligature2: "LigatureSubstitutionlookup162 subtable" u100A u105F
Ligature2: "LigatureSubstitutionlookup162 subtable" u100A u1060
Ligature2: "LigatureSubstitutionlookup162 subtable" u100A u1082
Ligature2: "LigatureSubstitutionlookup158 subtable" u100A u1039
Ligature2: "LigatureSubstitutionlookup130 subtable" u1004.kinzi u200D u100A
Ligature2: "LigatureSubstitutionlookup130 subtable" u101B.kinzi u200D u100A
Ligature2: "LigatureSubstitutionlookup127 subtable" u1004.kinzi u200D u100A
Ligature2: "LigatureSubstitutionlookup127 subtable" u101B.kinzi u200D u100A
Ligature2: "LigatureSubstitutionlookup124 subtable" u1004.kinzi u200D u100A
Ligature2: "LigatureSubstitutionlookup124 subtable" u101B.kinzi u200D u100A
MultipleSubs2: "MultipleSubstitutionlookup139 subtable" u200C u1031 u100A
MultipleSubs2: "MultipleSubstitutionlookup137 subtable" u200C u1084 u100A
MultipleSubs2: "MultipleSubstitutionlookup136 subtable" u200C u103C_u103D.wide u100A
MultipleSubs2: "MultipleSubstitutionlookup135 subtable" u200C u103C_u102F.wide u100A
MultipleSubs2: "MultipleSubstitutionlookup134 subtable" u200C u103C.wide u100A
MultipleSubs2: "MultipleSubstitutionlookup129 subtable" u100A u101B.kinzi
MultipleSubs2: "MultipleSubstitutionlookup128 subtable" u100A u1004.kinzi
Comment: "GDL_order: 1+AAoA-mark: 80+AAoA" 
EndChar

StartChar: u100A.alt
Encoding: 130 -1 128
Width: 978
VWidth: 0
GlyphClass: 2
Flags: HW
AnchorPoint: "R" 0 0 mark 0
AnchorPoint: "BS" 686 -53 basechar 0
AnchorPoint: "L" 686 -53 basechar 0
AnchorPoint: "BD" 480 -53 basechar 0
AnchorPoint: "U" 686 495 basechar 0
LayerCount: 2
Fore
SplineSet
923 222 m 0
 923 90 815 -18 686 -18 c 0
 599 -18 527 37 485 109 c 0
 446 34 367 -18 277 -18 c 0
 226 -18 170 -1 127 34 c 0
 127 -264 l 0
 127 -303 138 -331 159 -351 c 0
 182 -374 210 -385 239 -385 c 0
 300 -385 l 0
 300 -457 l 0
 235 -457 l 0
 190 -457 142 -436 107 -401 c 0
 73 -367 55 -322 55 -275 c 0
 55 117 l 0
 119 151 l 0
 152 87 214 54 277 54 c 0
 369 54 445 130 445 220 c 0
 445 303 374 390 277 390 c 0
 212 390 155 358 119 292 c 0
 55 327 l 0
 97 419 193 461 277 461 c 0
 405 461 513 353 516 225 c 0
 528 142 603 54 686 54 c 0
 777 54 851 130 851 222 c 0
 851 313 777 390 686 390 c 0
 673 390 656 386 644 381 c 0
 616 447 l 0
 636 455 664 461 686 461 c 0
 815 461 923 354 923 222 c 0
EndSplineSet
Ligature2: "LigatureSubstitutionlookup169 subtable" u100A.alt u103C
Ligature2: "LigatureSubstitutionlookup167 subtable" u100A.alt u103C u1031
Ligature2: "LigatureSubstitutionlookup167 subtable" u100A.alt u103C.wide u1031
Ligature2: "LigatureSubstitutionlookup167 subtable" u100A.alt u103C_u103D.narr u1031
Ligature2: "LigatureSubstitutionlookup167 subtable" u100A.alt u103C_u103D.wide u1031
Ligature2: "LigatureSubstitutionlookup165 subtable" u100A.alt u103C
Ligature2: "LigatureSubstitutionlookup165 subtable" u100A.alt u103C_u103D.narr
Ligature2: "LigatureSubstitutionlookup165 subtable" u100A.alt u103C_u102F.narr
Ligature2: "LigatureSubstitutionlookup163 subtable" u100A.alt u1031
Ligature2: "LigatureSubstitutionlookup163 subtable" u100A.alt u1084
Ligature2: "LigatureSubstitutionlookup162 subtable" u100A.alt u103D
Ligature2: "LigatureSubstitutionlookup162 subtable" u100A.alt u103E
Ligature2: "LigatureSubstitutionlookup162 subtable" u100A.alt u103D_u103E
Ligature2: "LigatureSubstitutionlookup162 subtable" u100A.alt
Ligature2: "LigatureSubstitutionlookup162 subtable" u100A.alt u105F
Ligature2: "LigatureSubstitutionlookup162 subtable" u100A.alt u1060
Ligature2: "LigatureSubstitutionlookup162 subtable" u100A.alt u1082
Ligature2: "LigatureSubstitutionlookup158 subtable" u100A.alt u1039
Ligature2: "LigatureSubstitutionlookup130 subtable" u1004.kinzi u200D u100A.alt
Ligature2: "LigatureSubstitutionlookup130 subtable" u101B.kinzi u200D u100A.alt
Ligature2: "LigatureSubstitutionlookup127 subtable" u1004.kinzi u200D u100A.alt
Ligature2: "LigatureSubstitutionlookup127 subtable" u101B.kinzi u200D u100A.alt
Ligature2: "LigatureSubstitutionlookup124 subtable" u1004.kinzi u200D u100A.alt
Ligature2: "LigatureSubstitutionlookup124 subtable" u101B.kinzi u200D u100A.alt
MultipleSubs2: "MultipleSubstitutionlookup139 subtable" u200C u1031 u100A.alt
MultipleSubs2: "MultipleSubstitutionlookup137 subtable" u200C u1084 u100A.alt
MultipleSubs2: "MultipleSubstitutionlookup136 subtable" u200C u103C_u103D.wide u100A.alt
MultipleSubs2: "MultipleSubstitutionlookup135 subtable" u200C u103C_u102F.wide u100A.alt
MultipleSubs2: "MultipleSubstitutionlookup134 subtable" u200C u103C.wide u100A.alt
MultipleSubs2: "MultipleSubstitutionlookup129 subtable" u100A.alt u101B.kinzi
MultipleSubs2: "MultipleSubstitutionlookup128 subtable" u100A.alt u1004.kinzi
Comment: "GDL_order: 1+AAoA-mark: 80+AAoA" 
EndChar

StartChar: u100A.med
Encoding: 131 -1 129
Width: 0
VWidth: 0
GlyphClass: 4
Flags: HW
AnchorPoint: "LLM" -835 -53 basemark 0
AnchorPoint: "BD" -374 -53 mark 0
AnchorPoint: "BSM" 97 -53 basemark 0
AnchorPoint: "LM" 97 -53 basemark 0
AnchorPoint: "BSM" 839 -53 mark 0
AnchorPoint: "BDM" -368 -53 mark 0
AnchorPoint: "BD" 361 -53 basemark 0
LayerCount: 2
Fore
SplineSet
-69 -221 m 0
 -69 -302 -125 -349 -224 -349 c 0
 -286 -349 -326 -338 -367 -292 c 0
 -398 -334 -438 -349 -504 -349 c 0
 -545 -349 -583 -338 -616 -307 c 0
 -616 -381 -573 -407 -527 -407 c 0
 -159 -407 l 0
 -138 -407 -131 -401 -131 -377 c 0
 -131 -354 l 0
 -82 -354 l 0
 -82 -376 l 0
 -82 -429 -102 -457 -157 -457 c 0
 -531 -457 l 0
 -615 -457 -665 -395 -665 -310 c 0
 -665 -297 -664 -273 -663 -259 c 0
 -617 -238 l 0
 -594 -277 -552 -299 -504 -299 c 0
 -441 -299 -392 -271 -392 -221 c 0
 -392 -182 -422 -136 -504 -136 c 0
 -542 -136 -583 -153 -611 -193 c 0
 -645 -154 l 0
 -618 -117 -566 -87 -504 -87 c 0
 -406 -87 -343 -139 -343 -221 c 0
 -343 -271 -285 -299 -224 -299 c 0
 -154 -299 -118 -269 -118 -221 c 0
 -118 -164 -157 -136 -217 -136 c 0
 -233 -136 -254 -142 -266 -149 c 0
 -287 -104 l 0
 -268 -94 -233 -87 -217 -87 c 0
 -125 -87 -69 -140 -69 -221 c 0
EndSplineSet
Ligature2: "LigatureSubstitutionlookup179 subtable" u100A.med u102D
Ligature2: "LigatureSubstitutionlookup179 subtable" u100A.med u102E
Ligature2: "LigatureSubstitutionlookup179 subtable" u100A.med u1032
Ligature2: "LigatureSubstitutionlookup179 subtable" u100A.med u103A
Ligature2: "LigatureSubstitutionlookup171 subtable" u100A.med u103C u1031
Ligature2: "LigatureSubstitutionlookup159 subtable" u100A.med u1031
Ligature2: "LigatureSubstitutionlookup159 subtable" u100A.med u103C
Ligature2: "sub_ligature_cligmymr_0 subtable" u1039 u100A
MultipleSubs2: "MultipleSubstitutionlookup138 subtable" u1039 u100A.med
Comment: "GDL_order: 2+AAoA-mark: 80+AAoA" 
EndChar

StartChar: u100A_u100A
Encoding: 132 -1 130
Width: 1385
VWidth: 0
GlyphClass: 2
Flags: HW
AnchorPoint: "R" 0 0 mark 0
AnchorPoint: "BS" 1056 -53 basechar 0
AnchorPoint: "L" 670 -53 basechar 0
AnchorPoint: "U" 686 495 basechar 0
AnchorPoint: "BD" 1063 -53 basechar 0
LayerCount: 2
Fore
SplineSet
1330 222 m 0
 1330 90 1222 -18 1093 -18 c 0
 1006 -18 934 37 892 109 c 0
 853 33 775 -18 686 -18 c 0
 599 -18 527 37 485 109 c 0
 446 34 367 -18 277 -18 c 0
 226 -18 170 -1 127 34 c 0
 127 -202 l 0
 127 -261 136 -309 169 -342 c 0
 203 -376 251 -385 310 -385 c 0
 1192 -385 l 0
 1236 -385 1241 -377 1241 -332 c 0
 1241 -292 l 0
 1313 -292 l 0
 1313 -346 l 0
 1313 -392 1307 -413 1294 -428 c 0
 1278 -447 1259 -457 1214 -457 c 0
 296 -457 l 0
 214 -457 160 -436 117 -392 c 0
 72 -346 55 -291 55 -217 c 0
 55 117 l 0
 119 151 l 0
 152 87 214 54 277 54 c 0
 369 54 445 130 445 220 c 0
 445 303 374 390 277 390 c 0
 212 390 155 358 119 292 c 0
 55 327 l 0
 97 419 193 461 277 461 c 0
 405 461 513 353 516 225 c 0
 528 142 603 54 686 54 c 0
 777 54 851 130 851 222 c 0
 851 313 777 390 686 390 c 0
 673 390 656 386 644 381 c 0
 616 447 l 0
 636 455 664 461 686 461 c 0
 813 461 923 354 923 225 c 0
 934 142 1010 54 1093 54 c 0
 1184 54 1258 130 1258 222 c 0
 1258 313 1184 390 1093 390 c 0
 1080 390 1063 386 1051 381 c 0
 1023 447 l 0
 1043 455 1071 461 1093 461 c 0
 1222 461 1330 354 1330 222 c 0
EndSplineSet
Ligature2: "LigatureSubstitutionlookup169 subtable" u100A_u100A u103C
Ligature2: "LigatureSubstitutionlookup167 subtable" u100A_u100A u103C u1031
Ligature2: "LigatureSubstitutionlookup167 subtable" u100A_u100A u103C.wide u1031
Ligature2: "LigatureSubstitutionlookup167 subtable" u100A_u100A u103C_u103D.narr u1031
Ligature2: "LigatureSubstitutionlookup167 subtable" u100A_u100A u103C_u103D.wide u1031
Ligature2: "LigatureSubstitutionlookup165 subtable" u100A_u100A u103C
Ligature2: "LigatureSubstitutionlookup165 subtable" u100A_u100A u103C_u103D.narr
Ligature2: "LigatureSubstitutionlookup165 subtable" u100A_u100A u103C_u102F.narr
Ligature2: "LigatureSubstitutionlookup163 subtable" u100A_u100A u1031
Ligature2: "LigatureSubstitutionlookup163 subtable" u100A_u100A u1084
Ligature2: "LigatureSubstitutionlookup162 subtable" u100A_u100A u103D
Ligature2: "LigatureSubstitutionlookup162 subtable" u100A_u100A u103E
Ligature2: "LigatureSubstitutionlookup162 subtable" u100A_u100A u103D_u103E
Ligature2: "LigatureSubstitutionlookup162 subtable" u100A_u100A
Ligature2: "LigatureSubstitutionlookup162 subtable" u100A_u100A u105F
Ligature2: "LigatureSubstitutionlookup162 subtable" u100A_u100A u1060
Ligature2: "LigatureSubstitutionlookup162 subtable" u100A_u100A u1082
Ligature2: "LigatureSubstitutionlookup158 subtable" u100A_u100A u1039
Ligature2: "LigatureSubstitutionlookup130 subtable" u1004.kinzi u200D u100A_u100A
Ligature2: "LigatureSubstitutionlookup130 subtable" u101B.kinzi u200D u100A_u100A
Ligature2: "LigatureSubstitutionlookup127 subtable" u1004.kinzi u200D u100A_u100A
Ligature2: "LigatureSubstitutionlookup127 subtable" u101B.kinzi u200D u100A_u100A
Ligature2: "LigatureSubstitutionlookup124 subtable" u1004.kinzi u200D u100A_u100A
Ligature2: "LigatureSubstitutionlookup124 subtable" u101B.kinzi u200D u100A_u100A
Ligature2: "sub_ligature_cligmymr_4 subtable" u100A u100A.med
MultipleSubs2: "MultipleSubstitutionlookup139 subtable" u200C u1031 u100A_u100A
MultipleSubs2: "MultipleSubstitutionlookup137 subtable" u200C u1084 u100A_u100A
MultipleSubs2: "MultipleSubstitutionlookup129 subtable" u100A_u100A u101B.kinzi
MultipleSubs2: "MultipleSubstitutionlookup128 subtable" u100A_u100A u1004.kinzi
Comment: "GDL_order: 1+AAoA-mark: 80+AAoA" 
EndChar

StartChar: u100B
Encoding: 133 4107 131
Width: 595
VWidth: 0
GlyphClass: 2
Flags: HW
AnchorPoint: "R" 0 0 mark 0
AnchorPoint: "BS" 666 -53 basechar 0
AnchorPoint: "L" 666 -53 basechar 0
AnchorPoint: "U" 295 495 basechar 0
AnchorPoint: "BD" 657 -53 basechar 0
LayerCount: 2
Fore
SplineSet
596 -426 m 0
 569 -440 527 -457 511 -457 c 0
 465 -457 444 -427 444 -381 c 0
 444 -281 l 0
 397 -299 346 -305 294 -305 c 0
 221 -305 147 -289 86 -251 c 0
 86 -23 l 0
 146 -65 214 -95 294 -95 c 0
 348 -95 398 -80 444 -56 c 0
 444 33 l 0
 400 0 345 -18 294 -18 c 0
 163 -18 55 90 55 222 c 0
 55 352 163 461 294 461 c 0
 378 461 474 419 516 327 c 0
 453 292 l 0
 419 354 358 390 294 390 c 0
 203 390 127 313 127 222 c 0
 127 130 203 54 294 54 c 0
 359 54 419 89 453 151 c 0
 516 117 l 0
 516 -92 l 0
 448 -138 374 -164 294 -164 c 0
 247 -164 200 -155 157 -138 c 0
 157 -208 l 0
 201 -227 247 -236 294 -236 c 0
 373 -236 441 -217 516 -177 c 0
 516 -352 l 0
 516 -369 518 -375 527 -375 c 0
 538 -375 565 -364 578 -357 c 0
 596 -426 l 0
EndSplineSet
Ligature2: "LigatureSubstitutionlookup169 subtable" u100B u103C
Ligature2: "LigatureSubstitutionlookup167 subtable" u100B u103C u1031
Ligature2: "LigatureSubstitutionlookup167 subtable" u100B u103C.wide u1031
Ligature2: "LigatureSubstitutionlookup167 subtable" u100B u103C_u103D.narr u1031
Ligature2: "LigatureSubstitutionlookup167 subtable" u100B u103C_u103D.wide u1031
Ligature2: "LigatureSubstitutionlookup165 subtable" u100B u103C
Ligature2: "LigatureSubstitutionlookup165 subtable" u100B u103C_u103D.narr
Ligature2: "LigatureSubstitutionlookup165 subtable" u100B u103C_u102F.narr
Ligature2: "LigatureSubstitutionlookup163 subtable" u100B u1031
Ligature2: "LigatureSubstitutionlookup163 subtable" u100B u1084
Ligature2: "LigatureSubstitutionlookup162 subtable" u100B u103D
Ligature2: "LigatureSubstitutionlookup162 subtable" u100B u103E
Ligature2: "LigatureSubstitutionlookup162 subtable" u100B u103D_u103E
Ligature2: "LigatureSubstitutionlookup162 subtable" u100B
Ligature2: "LigatureSubstitutionlookup162 subtable" u100B u105F
Ligature2: "LigatureSubstitutionlookup162 subtable" u100B u1060
Ligature2: "LigatureSubstitutionlookup162 subtable" u100B u1082
Ligature2: "LigatureSubstitutionlookup158 subtable" u100B u1039
Ligature2: "LigatureSubstitutionlookup130 subtable" u1004.kinzi u200D u100B
Ligature2: "LigatureSubstitutionlookup130 subtable" u101B.kinzi u200D u100B
Ligature2: "LigatureSubstitutionlookup127 subtable" u1004.kinzi u200D u100B
Ligature2: "LigatureSubstitutionlookup127 subtable" u101B.kinzi u200D u100B
Ligature2: "LigatureSubstitutionlookup124 subtable" u1004.kinzi u200D u100B
Ligature2: "LigatureSubstitutionlookup124 subtable" u101B.kinzi u200D u100B
MultipleSubs2: "MultipleSubstitutionlookup139 subtable" u200C u1031 u100B
MultipleSubs2: "MultipleSubstitutionlookup137 subtable" u200C u1084 u100B
MultipleSubs2: "MultipleSubstitutionlookup129 subtable" u100B u101B.kinzi
MultipleSubs2: "MultipleSubstitutionlookup128 subtable" u100B u1004.kinzi
Comment: "GDL_order: 1+AAoA-mark: 80+AAoA" 
EndChar

StartChar: u100B.alt
Encoding: 134 -1 132
Width: 587
VWidth: 0
GlyphClass: 2
Flags: HW
AnchorPoint: "R" 0 0 mark 0
AnchorPoint: "BS" 189 -173 basechar 0
AnchorPoint: "LL" 294 -53 basechar 0
AnchorPoint: "L" 651 -53 basechar 0
AnchorPoint: "BD" 44 -173 basechar 0
AnchorPoint: "U" 294 495 basechar 0
LayerCount: 2
Fore
SplineSet
516 117 m 0
 474 25 378 -18 294 -18 c 0
 163 -18 55 90 55 222 c 0
 55 352 163 461 294 461 c 0
 378 461 474 419 516 327 c 0
 453 292 l 0
 419 353 360 390 294 390 c 0
 203 390 127 313 127 222 c 0
 127 130 203 54 294 54 c 0
 360 54 417 88 453 151 c 0
 516 117 l 0
573 -457 m 0
 430 -457 l 0
 430 -137 l 0
 386 -154 345 -164 294 -164 c 0
 221 -164 148 -143 86 -103 c 0
 86 -23 l 0
 146 -65 214 -95 294 -95 c 0
 382 -95 434 -67 501 -27 c 0
 501 -385 l 0
 573 -385 l 0
 573 -457 l 0
EndSplineSet
Comment: "GDL_order: 1+AAoA-mark: 80+AAoA" 
EndChar

StartChar: u100B.med
Encoding: 135 -1 133
Width: 0
VWidth: 0
GlyphClass: 4
Flags: HW
AnchorPoint: "BS" -170 -53 mark 0
AnchorPoint: "LLM" -443 -53 basemark 0
AnchorPoint: "BSM" -170 -53 mark 0
AnchorPoint: "LM" 74 -53 basemark 0
AnchorPoint: "BS" 166 -53 basemark 0
AnchorPoint: "BSM" 415 -53 basemark 0
LayerCount: 2
Fore
SplineSet
-36 -457 m 0
 -137 -457 l 0
 -137 -393 l 0
 -145 -393 -160 -394 -169 -394 c 0
 -216 -394 -293 -375 -293 -297 c 0
 -293 -220 -216 -200 -164 -200 c 0
 -126 -200 -93 -205 -63 -225 c 0
 -90 -269 l 0
 -114 -257 -134 -255 -164 -255 c 0
 -195 -255 -238 -266 -238 -297 c 0
 -238 -328 -195 -339 -169 -339 c 0
 -138 -339 -115 -336 -90 -327 c 0
 -90 -403 l 0
 -36 -403 l 0
 -36 -457 l 0
EndSplineSet
Ligature2: "LigatureSubstitutionlookup179 subtable" u100B.med u102D
Ligature2: "LigatureSubstitutionlookup179 subtable" u100B.med u102E
Ligature2: "LigatureSubstitutionlookup179 subtable" u100B.med u1032
Ligature2: "LigatureSubstitutionlookup179 subtable" u100B.med u103A
Ligature2: "LigatureSubstitutionlookup171 subtable" u100B.med u103C u1031
Ligature2: "LigatureSubstitutionlookup159 subtable" u100B.med u1031
Ligature2: "LigatureSubstitutionlookup159 subtable" u100B.med u103C
Ligature2: "sub_ligature_cligmymr_0 subtable" u1039 u100B
MultipleSubs2: "MultipleSubstitutionlookup138 subtable" u1039 u100B.med
Comment: "GDL_order: 2+AAoA-mark: 80+AAoA" 
EndChar

StartChar: u100B_u100B
Encoding: 136 -1 134
Width: 593
VWidth: 0
GlyphClass: 2
Flags: HW
AnchorPoint: "R" 0 0 mark 0
AnchorPoint: "BS" 666 -53 basechar 0
AnchorPoint: "L" 666 -53 basechar 0
AnchorPoint: "U" 294 495 basechar 0
AnchorPoint: "BD" 657 -53 basechar 0
LayerCount: 2
Fore
SplineSet
516 117 m 0
 474 25 378 -18 294 -18 c 0
 163 -18 55 90 55 222 c 0
 55 352 163 461 294 461 c 0
 378 461 474 419 516 327 c 0
 453 292 l 0
 419 355 359 390 294 390 c 0
 203 390 127 313 127 222 c 0
 127 130 203 54 294 54 c 0
 358 54 417 87 453 151 c 0
 516 117 l 0
593 -457 m 0
 445 -457 l 0
 445 -131 l 0
 397 -152 346 -164 294 -164 c 0
 221 -164 148 -143 86 -103 c 0
 86 -23 l 0
 146 -65 214 -95 294 -95 c 0
 386 -95 451 -61 516 -13 c 0
 516 -385 l 0
 593 -385 l 0
 593 -457 l 0
388 -457 m 0
 288 -457 l 0
 288 -392 l 0
 281 -393 264 -394 254 -394 c 0
 221 -394 132 -379 132 -297 c 0
 132 -222 207 -200 260 -200 c 0
 289 -200 328 -202 362 -225 c 0
 334 -270 l 0
 307 -257 284 -255 260 -255 c 0
 230 -255 187 -264 187 -297 c 0
 187 -331 233 -339 254 -339 c 0
 288 -339 306 -336 334 -327 c 0
 334 -403 l 0
 388 -403 l 0
 388 -457 l 0
EndSplineSet
Ligature2: "LigatureSubstitutionlookup169 subtable" u100B_u100B u103C
Ligature2: "LigatureSubstitutionlookup167 subtable" u100B_u100B u103C u1031
Ligature2: "LigatureSubstitutionlookup167 subtable" u100B_u100B u103C.wide u1031
Ligature2: "LigatureSubstitutionlookup167 subtable" u100B_u100B u103C_u103D.narr u1031
Ligature2: "LigatureSubstitutionlookup167 subtable" u100B_u100B u103C_u103D.wide u1031
Ligature2: "LigatureSubstitutionlookup165 subtable" u100B_u100B u103C
Ligature2: "LigatureSubstitutionlookup165 subtable" u100B_u100B u103C_u103D.narr
Ligature2: "LigatureSubstitutionlookup165 subtable" u100B_u100B u103C_u102F.narr
Ligature2: "LigatureSubstitutionlookup163 subtable" u100B_u100B u1031
Ligature2: "LigatureSubstitutionlookup163 subtable" u100B_u100B u1084
Ligature2: "LigatureSubstitutionlookup162 subtable" u100B_u100B u103D
Ligature2: "LigatureSubstitutionlookup162 subtable" u100B_u100B u103E
Ligature2: "LigatureSubstitutionlookup162 subtable" u100B_u100B u103D_u103E
Ligature2: "LigatureSubstitutionlookup162 subtable" u100B_u100B
Ligature2: "LigatureSubstitutionlookup162 subtable" u100B_u100B u105F
Ligature2: "LigatureSubstitutionlookup162 subtable" u100B_u100B u1060
Ligature2: "LigatureSubstitutionlookup162 subtable" u100B_u100B u1082
Ligature2: "LigatureSubstitutionlookup158 subtable" u100B_u100B u1039
Ligature2: "LigatureSubstitutionlookup130 subtable" u1004.kinzi u200D u100B_u100B
Ligature2: "LigatureSubstitutionlookup130 subtable" u101B.kinzi u200D u100B_u100B
Ligature2: "LigatureSubstitutionlookup127 subtable" u1004.kinzi u200D u100B_u100B
Ligature2: "LigatureSubstitutionlookup127 subtable" u101B.kinzi u200D u100B_u100B
Ligature2: "LigatureSubstitutionlookup124 subtable" u1004.kinzi u200D u100B_u100B
Ligature2: "LigatureSubstitutionlookup124 subtable" u101B.kinzi u200D u100B_u100B
Ligature2: "sub_ligature_cligmymr_4 subtable" u100B u100B.med
MultipleSubs2: "MultipleSubstitutionlookup139 subtable" u200C u1031 u100B_u100B
MultipleSubs2: "MultipleSubstitutionlookup137 subtable" u200C u1084 u100B_u100B
MultipleSubs2: "MultipleSubstitutionlookup129 subtable" u100B_u100B u101B.kinzi
MultipleSubs2: "MultipleSubstitutionlookup128 subtable" u100B_u100B u1004.kinzi
Comment: "GDL_order: 1+AAoA-mark: 80+AAoA" 
EndChar

StartChar: u100B_u100C
Encoding: 137 -1 135
Width: 564
VWidth: 0
GlyphClass: 2
Flags: HW
AnchorPoint: "R" 0 0 mark 0
AnchorPoint: "BS" 656 -53 basechar 0
AnchorPoint: "L" 656 -53 basechar 0
AnchorPoint: "U" 294 495 basechar 0
AnchorPoint: "BD" 642 -53 basechar 0
LayerCount: 2
Fore
SplineSet
506 -26 m 0
 506 -277 l 0
 506 -339 484 -379 464 -402 c 0
 439 -432 399 -457 346 -457 c 0
 174 -457 l 0
 97 -457 60 -401 60 -344 c 0
 60 -284 104 -233 180 -233 c 0
 216 -233 239 -244 256 -260 c 0
 217 -314 l 0
 205 -306 193 -298 180 -298 c 0
 144 -298 125 -318 125 -344 c 0
 125 -370 147 -390 181 -390 c 0
 311 -390 l 0
 362 -390 376 -384 402 -360 c 0
 424 -341 434 -313 434 -273 c 0
 434 -140 l 0
 390 -159 346 -169 294 -169 c 0
 221 -169 148 -148 86 -108 c 0
 86 -28 l 0
 146 -70 214 -100 294 -100 c 0
 381 -100 440 -69 506 -26 c 0
516 117 m 0
 474 25 378 -18 294 -18 c 0
 163 -18 55 90 55 222 c 0
 55 352 163 461 294 461 c 0
 378 461 474 419 516 327 c 0
 453 292 l 0
 414 361 348 390 294 390 c 0
 203 390 127 313 127 222 c 0
 127 130 203 54 294 54 c 0
 356 54 416 86 453 151 c 0
 516 117 l 0
EndSplineSet
Ligature2: "LigatureSubstitutionlookup169 subtable" u100B_u100C u103C
Ligature2: "LigatureSubstitutionlookup167 subtable" u100B_u100C u103C u1031
Ligature2: "LigatureSubstitutionlookup167 subtable" u100B_u100C u103C.wide u1031
Ligature2: "LigatureSubstitutionlookup167 subtable" u100B_u100C u103C_u103D.narr u1031
Ligature2: "LigatureSubstitutionlookup167 subtable" u100B_u100C u103C_u103D.wide u1031
Ligature2: "LigatureSubstitutionlookup165 subtable" u100B_u100C u103C
Ligature2: "LigatureSubstitutionlookup165 subtable" u100B_u100C u103C_u103D.narr
Ligature2: "LigatureSubstitutionlookup165 subtable" u100B_u100C u103C_u102F.narr
Ligature2: "LigatureSubstitutionlookup163 subtable" u100B_u100C u1031
Ligature2: "LigatureSubstitutionlookup163 subtable" u100B_u100C u1084
Ligature2: "LigatureSubstitutionlookup162 subtable" u100B_u100C u103D
Ligature2: "LigatureSubstitutionlookup162 subtable" u100B_u100C u103E
Ligature2: "LigatureSubstitutionlookup162 subtable" u100B_u100C u103D_u103E
Ligature2: "LigatureSubstitutionlookup162 subtable" u100B_u100C
Ligature2: "LigatureSubstitutionlookup162 subtable" u100B_u100C u105F
Ligature2: "LigatureSubstitutionlookup162 subtable" u100B_u100C u1060
Ligature2: "LigatureSubstitutionlookup162 subtable" u100B_u100C u1082
Ligature2: "LigatureSubstitutionlookup158 subtable" u100B_u100C u1039
Ligature2: "LigatureSubstitutionlookup130 subtable" u1004.kinzi u200D u100B_u100C
Ligature2: "LigatureSubstitutionlookup130 subtable" u101B.kinzi u200D u100B_u100C
Ligature2: "LigatureSubstitutionlookup127 subtable" u1004.kinzi u200D u100B_u100C
Ligature2: "LigatureSubstitutionlookup127 subtable" u101B.kinzi u200D u100B_u100C
Ligature2: "LigatureSubstitutionlookup124 subtable" u1004.kinzi u200D u100B_u100C
Ligature2: "LigatureSubstitutionlookup124 subtable" u101B.kinzi u200D u100B_u100C
Ligature2: "sub_ligature_cligmymr_4 subtable" u100B u100C.med
MultipleSubs2: "MultipleSubstitutionlookup139 subtable" u200C u1031 u100B_u100C
MultipleSubs2: "MultipleSubstitutionlookup137 subtable" u200C u1084 u100B_u100C
MultipleSubs2: "MultipleSubstitutionlookup129 subtable" u100B_u100C u101B.kinzi
MultipleSubs2: "MultipleSubstitutionlookup128 subtable" u100B_u100C u1004.kinzi
Comment: "GDL_order: 1+AAoA-mark: 80+AAoA" 
EndChar

StartChar: u100C
Encoding: 138 4108 136
Width: 571
VWidth: 0
GlyphClass: 2
Flags: HW
AnchorPoint: "R" 0 0 mark 0
AnchorPoint: "BS" 666 -53 basechar 0
AnchorPoint: "L" 666 -53 basechar 0
AnchorPoint: "U" 294 495 basechar 0
AnchorPoint: "BD" 657 -53 basechar 0
LayerCount: 2
Fore
SplineSet
516 117 m 0
 516 -272 l 0
 516 -331 492 -372 463 -401 c 0
 433 -432 392 -457 336 -457 c 0
 184 -457 l 0
 106 -457 70 -391 70 -335 c 0
 70 -273 120 -216 195 -216 c 0
 231 -216 255 -225 272 -240 c 0
 233 -300 l 0
 220 -292 209 -288 195 -288 c 0
 164 -288 141 -306 141 -335 c 0
 141 -362 162 -385 193 -385 c 0
 308 -385 l 0
 364 -385 383 -378 411 -352 c 0
 432 -332 444 -297 444 -262 c 0
 444 33 l 0
 400 0 345 -18 294 -18 c 0
 163 -18 55 90 55 222 c 0
 55 352 163 461 294 461 c 0
 378 461 474 419 516 327 c 0
 453 292 l 0
 417 356 357 390 294 390 c 0
 203 390 127 313 127 222 c 0
 127 130 203 54 294 54 c 0
 357 54 417 86 453 151 c 0
 516 117 l 0
EndSplineSet
Ligature2: "LigatureSubstitutionlookup169 subtable" u100C u103C
Ligature2: "LigatureSubstitutionlookup167 subtable" u100C u103C u1031
Ligature2: "LigatureSubstitutionlookup167 subtable" u100C u103C.wide u1031
Ligature2: "LigatureSubstitutionlookup167 subtable" u100C u103C_u103D.narr u1031
Ligature2: "LigatureSubstitutionlookup167 subtable" u100C u103C_u103D.wide u1031
Ligature2: "LigatureSubstitutionlookup165 subtable" u100C u103C
Ligature2: "LigatureSubstitutionlookup165 subtable" u100C u103C_u103D.narr
Ligature2: "LigatureSubstitutionlookup165 subtable" u100C u103C_u102F.narr
Ligature2: "LigatureSubstitutionlookup163 subtable" u100C u1031
Ligature2: "LigatureSubstitutionlookup163 subtable" u100C u1084
Ligature2: "LigatureSubstitutionlookup162 subtable" u100C u103D
Ligature2: "LigatureSubstitutionlookup162 subtable" u100C u103E
Ligature2: "LigatureSubstitutionlookup162 subtable" u100C u103D_u103E
Ligature2: "LigatureSubstitutionlookup162 subtable" u100C
Ligature2: "LigatureSubstitutionlookup162 subtable" u100C u105F
Ligature2: "LigatureSubstitutionlookup162 subtable" u100C u1060
Ligature2: "LigatureSubstitutionlookup162 subtable" u100C u1082
Ligature2: "LigatureSubstitutionlookup158 subtable" u100C u1039
Ligature2: "LigatureSubstitutionlookup130 subtable" u1004.kinzi u200D u100C
Ligature2: "LigatureSubstitutionlookup130 subtable" u101B.kinzi u200D u100C
Ligature2: "LigatureSubstitutionlookup127 subtable" u1004.kinzi u200D u100C
Ligature2: "LigatureSubstitutionlookup127 subtable" u101B.kinzi u200D u100C
Ligature2: "LigatureSubstitutionlookup124 subtable" u1004.kinzi u200D u100C
Ligature2: "LigatureSubstitutionlookup124 subtable" u101B.kinzi u200D u100C
MultipleSubs2: "MultipleSubstitutionlookup139 subtable" u200C u1031 u100C
MultipleSubs2: "MultipleSubstitutionlookup137 subtable" u200C u1084 u100C
MultipleSubs2: "MultipleSubstitutionlookup129 subtable" u100C u101B.kinzi
MultipleSubs2: "MultipleSubstitutionlookup128 subtable" u100C u1004.kinzi
Comment: "GDL_order: 1+AAoA-mark: 80+AAoA" 
EndChar

StartChar: u100C.med
Encoding: 139 -1 137
Width: 0
VWidth: 0
GlyphClass: 4
Flags: HW
AnchorPoint: "LLM" -913 -53 basemark 0
AnchorPoint: "BD" -409 -53 mark 0
AnchorPoint: "BSM" 95 -53 basemark 0
AnchorPoint: "LM" 94 -53 basemark 0
AnchorPoint: "BSM" 900 -53 mark 0
AnchorPoint: "BDM" -405 -53 mark 0
AnchorPoint: "BD" 406 -53 basemark 0
LayerCount: 2
Fore
SplineSet
-56 -287 m 0
 -56 -350 -89 -425 -159 -457 c 0
 -185 -409 l 0
 -136 -381 -111 -333 -111 -287 c 0
 -111 -215 -170 -158 -240 -158 c 0
 -310 -158 -369 -215 -369 -287 c 0
 -369 -333 -344 -381 -294 -409 c 0
 -320 -457 l 0
 -624 -457 l 0
 -667 -457 -703 -437 -721 -417 c 0
 -742 -395 -763 -361 -763 -314 c 0
 -763 -202 l 0
 -763 -143 -713 -114 -669 -114 c 0
 -618 -114 -577 -153 -577 -210 c 0
 -577 -235 -585 -256 -597 -270 c 0
 -642 -240 l 0
 -634 -230 -632 -220 -632 -210 c 0
 -632 -185 -650 -169 -669 -169 c 0
 -688 -169 -708 -183 -708 -208 c 0
 -708 -296 l 0
 -708 -341 -701 -353 -681 -376 c 0
 -666 -393 -641 -402 -616 -402 c 0
 -385 -402 l 0
 -412 -369 -424 -326 -424 -287 c 0
 -424 -185 -341 -103 -240 -103 c 0
 -138 -103 -56 -185 -56 -287 c 0
EndSplineSet
Ligature2: "LigatureSubstitutionlookup179 subtable" u100C.med u102D
Ligature2: "LigatureSubstitutionlookup179 subtable" u100C.med u102E
Ligature2: "LigatureSubstitutionlookup179 subtable" u100C.med u1032
Ligature2: "LigatureSubstitutionlookup179 subtable" u100C.med u103A
Ligature2: "LigatureSubstitutionlookup171 subtable" u100C.med u103C u1031
Ligature2: "LigatureSubstitutionlookup159 subtable" u100C.med u1031
Ligature2: "LigatureSubstitutionlookup159 subtable" u100C.med u103C
Ligature2: "sub_ligature_cligmymr_0 subtable" u1039 u100C
MultipleSubs2: "MultipleSubstitutionlookup138 subtable" u1039 u100C.med
Comment: "GDL_order: 2+AAoA-mark: 80+AAoA" 
EndChar

StartChar: u100D
Encoding: 140 4109 138
Width: 579
VWidth: 0
GlyphClass: 2
Flags: HW
AnchorPoint: "BS" 154 -173 basechar 0
AnchorPoint: "LL" 280 -52 basechar 0
AnchorPoint: "L" 622 -53 basechar 0
AnchorPoint: "BD" 14 -173 basechar 0
AnchorPoint: "U" 277 495 basechar 0
AnchorPoint: "R" 0 0 mark 0
LayerCount: 2
Fore
SplineSet
546 -457 m 0
 400 -457 l 0
 400 -147 l 0
 360 -162 322 -169 277 -169 c 0
 201 -169 118 -147 55 -101 c 0
 55 117 l 0
 119 151 l 0
 154 86 215 54 277 54 c 0
 369 54 445 130 445 222 c 0
 445 313 369 390 277 390 c 0
 215 390 154 356 119 292 c 0
 55 327 l 0
 97 419 193 461 277 461 c 0
 408 461 516 352 516 222 c 0
 516 90 408 -18 277 -18 c 0
 226 -18 171 0 127 33 c 0
 127 -61 l 0
 174 -85 223 -100 277 -100 c 0
 355 -100 421 -71 472 -39 c 0
 472 -385 l 0
 546 -385 l 0
 546 -457 l 0
EndSplineSet
Ligature2: "LigatureSubstitutionlookup169 subtable" u100D u103C
Ligature2: "LigatureSubstitutionlookup167 subtable" u100D u103C u1031
Ligature2: "LigatureSubstitutionlookup167 subtable" u100D u103C.wide u1031
Ligature2: "LigatureSubstitutionlookup167 subtable" u100D u103C_u103D.narr u1031
Ligature2: "LigatureSubstitutionlookup167 subtable" u100D u103C_u103D.wide u1031
Ligature2: "LigatureSubstitutionlookup165 subtable" u100D u103C
Ligature2: "LigatureSubstitutionlookup165 subtable" u100D u103C_u103D.narr
Ligature2: "LigatureSubstitutionlookup165 subtable" u100D u103C_u102F.narr
Ligature2: "LigatureSubstitutionlookup163 subtable" u100D u1031
Ligature2: "LigatureSubstitutionlookup163 subtable" u100D u1084
Ligature2: "LigatureSubstitutionlookup162 subtable" u100D u103D
Ligature2: "LigatureSubstitutionlookup162 subtable" u100D u103E
Ligature2: "LigatureSubstitutionlookup162 subtable" u100D u103D_u103E
Ligature2: "LigatureSubstitutionlookup162 subtable" u100D
Ligature2: "LigatureSubstitutionlookup162 subtable" u100D u105F
Ligature2: "LigatureSubstitutionlookup162 subtable" u100D u1060
Ligature2: "LigatureSubstitutionlookup162 subtable" u100D u1082
Ligature2: "LigatureSubstitutionlookup158 subtable" u100D u1039
Ligature2: "LigatureSubstitutionlookup130 subtable" u1004.kinzi u200D u100D
Ligature2: "LigatureSubstitutionlookup130 subtable" u101B.kinzi u200D u100D
Ligature2: "LigatureSubstitutionlookup127 subtable" u1004.kinzi u200D u100D
Ligature2: "LigatureSubstitutionlookup127 subtable" u101B.kinzi u200D u100D
Ligature2: "LigatureSubstitutionlookup124 subtable" u1004.kinzi u200D u100D
Ligature2: "LigatureSubstitutionlookup124 subtable" u101B.kinzi u200D u100D
MultipleSubs2: "MultipleSubstitutionlookup139 subtable" u200C u1031 u100D
MultipleSubs2: "MultipleSubstitutionlookup137 subtable" u200C u1084 u100D
MultipleSubs2: "MultipleSubstitutionlookup129 subtable" u100D u101B.kinzi
MultipleSubs2: "MultipleSubstitutionlookup128 subtable" u100D u1004.kinzi
Comment: "GDL_order: 1+AAoA-mark: 80+AAoA" 
EndChar

StartChar: u100D.med
Encoding: 141 -1 139
Width: 0
VWidth: 0
GlyphClass: 4
Flags: HW
AnchorPoint: "BS" -204 -53 mark 0
AnchorPoint: "LLM" -469 -53 basemark 0
AnchorPoint: "BSM" -204 -53 mark 0
AnchorPoint: "LM" 53 -53 basemark 0
AnchorPoint: "BS" 172 -53 basemark 0
AnchorPoint: "BSM" 426 -53 basemark 0
LayerCount: 2
Fore
SplineSet
-55 -447 m 0
 -137 -447 l 0
 -137 -392 l 0
 -153 -398 -167 -402 -205 -402 c 0
 -229 -402 -286 -394 -310 -386 c 0
 -310 -280 l 0
 -275 -291 -240 -292 -205 -292 c 0
 -174 -292 -131 -280 -131 -256 c 0
 -131 -231 -175 -220 -205 -220 c 0
 -252 -220 -279 -223 -305 -233 c 0
 -319 -200 l 0
 -291 -189 -253 -183 -205 -183 c 0
 -167 -183 -94 -196 -94 -256 c 0
 -94 -314 -166 -329 -205 -329 c 0
 -229 -329 -258 -327 -274 -323 c 0
 -274 -357 l 0
 -259 -361 -231 -365 -205 -365 c 0
 -156 -365 -127 -354 -101 -339 c 0
 -101 -411 l 0
 -55 -411 l 0
 -55 -447 l 0
EndSplineSet
Ligature2: "LigatureSubstitutionlookup179 subtable" u100D.med u102D
Ligature2: "LigatureSubstitutionlookup179 subtable" u100D.med u102E
Ligature2: "LigatureSubstitutionlookup179 subtable" u100D.med u1032
Ligature2: "LigatureSubstitutionlookup179 subtable" u100D.med u103A
Ligature2: "LigatureSubstitutionlookup171 subtable" u100D.med u103C u1031
Ligature2: "LigatureSubstitutionlookup159 subtable" u100D.med u1031
Ligature2: "LigatureSubstitutionlookup159 subtable" u100D.med u103C
Ligature2: "sub_ligature_cligmymr_0 subtable" u1039 u100D
MultipleSubs2: "MultipleSubstitutionlookup138 subtable" u1039 u100D.med
Comment: "GDL_order: 2+AAoA-mark: 80+AAoA" 
EndChar

StartChar: u100D_u100D
Encoding: 142 -1 140
Width: 579
VWidth: 0
GlyphClass: 2
Flags: HW
AnchorPoint: "R" 0 0 mark 0
AnchorPoint: "BS" 632 -53 basechar 0
AnchorPoint: "L" 632 -53 basechar 0
AnchorPoint: "U" 277 495 basechar 0
AnchorPoint: "BD" 627 -53 basechar 0
LayerCount: 2
Fore
SplineSet
558 -457 m 0
 410 -457 l 0
 410 -143 l 0
 368 -161 322 -169 277 -169 c 0
 201 -169 118 -147 55 -101 c 0
 55 117 l 0
 119 151 l 0
 153 87 214 54 277 54 c 0
 369 54 445 130 445 222 c 0
 445 313 369 390 277 390 c 0
 214 390 152 354 119 292 c 0
 55 327 l 0
 97 419 193 461 277 461 c 0
 408 461 516 352 516 222 c 0
 516 90 408 -18 277 -18 c 0
 226 -18 171 0 127 33 c 0
 127 -61 l 0
 174 -85 223 -100 277 -100 c 0
 355 -100 425 -72 482 -32 c 0
 482 -385 l 0
 558 -385 l 0
 558 -457 l 0
370 -457 m 0
 288 -457 l 0
 288 -402 l 0
 272 -408 258 -412 220 -412 c 0
 196 -412 139 -404 115 -396 c 0
 115 -290 l 0
 150 -301 184 -302 220 -302 c 0
 250 -302 294 -290 294 -266 c 0
 294 -241 250 -230 220 -230 c 0
 173 -230 146 -232 120 -242 c 0
 106 -209 l 0
 134 -198 172 -193 220 -193 c 0
 258 -193 331 -206 331 -266 c 0
 331 -324 259 -339 220 -339 c 0
 196 -339 166 -337 150 -333 c 0
 150 -367 l 0
 166 -371 193 -375 220 -375 c 0
 269 -375 298 -364 324 -349 c 0
 324 -421 l 0
 370 -421 l 0
 370 -457 l 0
EndSplineSet
Ligature2: "LigatureSubstitutionlookup169 subtable" u100D_u100D u103C
Ligature2: "LigatureSubstitutionlookup167 subtable" u100D_u100D u103C u1031
Ligature2: "LigatureSubstitutionlookup167 subtable" u100D_u100D u103C.wide u1031
Ligature2: "LigatureSubstitutionlookup167 subtable" u100D_u100D u103C_u103D.narr u1031
Ligature2: "LigatureSubstitutionlookup167 subtable" u100D_u100D u103C_u103D.wide u1031
Ligature2: "LigatureSubstitutionlookup165 subtable" u100D_u100D u103C
Ligature2: "LigatureSubstitutionlookup165 subtable" u100D_u100D u103C_u103D.narr
Ligature2: "LigatureSubstitutionlookup165 subtable" u100D_u100D u103C_u102F.narr
Ligature2: "LigatureSubstitutionlookup163 subtable" u100D_u100D u1031
Ligature2: "LigatureSubstitutionlookup163 subtable" u100D_u100D u1084
Ligature2: "LigatureSubstitutionlookup162 subtable" u100D_u100D u103D
Ligature2: "LigatureSubstitutionlookup162 subtable" u100D_u100D u103E
Ligature2: "LigatureSubstitutionlookup162 subtable" u100D_u100D u103D_u103E
Ligature2: "LigatureSubstitutionlookup162 subtable" u100D_u100D
Ligature2: "LigatureSubstitutionlookup162 subtable" u100D_u100D u105F
Ligature2: "LigatureSubstitutionlookup162 subtable" u100D_u100D u1060
Ligature2: "LigatureSubstitutionlookup162 subtable" u100D_u100D u1082
Ligature2: "LigatureSubstitutionlookup158 subtable" u100D_u100D u1039
Ligature2: "LigatureSubstitutionlookup130 subtable" u1004.kinzi u200D u100D_u100D
Ligature2: "LigatureSubstitutionlookup130 subtable" u101B.kinzi u200D u100D_u100D
Ligature2: "LigatureSubstitutionlookup127 subtable" u1004.kinzi u200D u100D_u100D
Ligature2: "LigatureSubstitutionlookup127 subtable" u101B.kinzi u200D u100D_u100D
Ligature2: "LigatureSubstitutionlookup124 subtable" u1004.kinzi u200D u100D_u100D
Ligature2: "LigatureSubstitutionlookup124 subtable" u101B.kinzi u200D u100D_u100D
Ligature2: "sub_ligature_cligmymr_4 subtable" u100D u100D.med
MultipleSubs2: "MultipleSubstitutionlookup139 subtable" u200C u1031 u100D_u100D
MultipleSubs2: "MultipleSubstitutionlookup137 subtable" u200C u1084 u100D_u100D
MultipleSubs2: "MultipleSubstitutionlookup129 subtable" u100D_u100D u101B.kinzi
MultipleSubs2: "MultipleSubstitutionlookup128 subtable" u100D_u100D u1004.kinzi
Comment: "GDL_order: 1+AAoA-mark: 80+AAoA" 
EndChar

StartChar: u100D_u100E
Encoding: 143 -1 141
Width: 582
VWidth: 0
GlyphClass: 2
Flags: HW
AnchorPoint: "R" 0 0 mark 0
AnchorPoint: "BS" 548 -53 basechar 0
AnchorPoint: "LL" 105 -53 basechar 0
AnchorPoint: "L" 475 -53 basechar 0
AnchorPoint: "U" 287 495 basechar 0
AnchorPoint: "BD" 528 -53 basechar 0
LayerCount: 2
Fore
SplineSet
527 240 m 0
 527 101 438 2 322 -15 c 0
 322 -385 l 0
 400 -385 l 0
 400 -457 l 0
 255 -457 l 0
 255 -15 l 0
 131 -1 55 92 55 172 c 0
 55 297 178 311 178 360 c 0
 178 378 171 394 148 394 c 0
 126 394 111 375 107 367 c 0
 55 398 l 0
 59 423 100 459 148 459 c 0
 208 459 245 421 245 360 c 0
 245 272 122 259 122 172 c 0
 122 130 162 64 255 51 c 0
 254 90 246 108 232 114 c 0
 232 159 l 0
 244 155 263 152 277 152 c 0
 307 152 332 165 332 187 c 0
 332 208 306 222 274 222 c 0
 260 222 244 220 232 216 c 0
 232 262 l 0
 245 269 262 273 280 273 c 0
 330 273 386 248 386 187 c 0
 386 128 329 113 311 110 c 0
 317 99 321 81 322 53 c 0
 396 67 460 133 460 240 c 0
 460 312 436 364 393 404 c 0
 432 460 l 0
 491 415 527 347 527 240 c 0
EndSplineSet
Ligature2: "LigatureSubstitutionlookup169 subtable" u100D_u100E u103C
Ligature2: "LigatureSubstitutionlookup167 subtable" u100D_u100E u103C u1031
Ligature2: "LigatureSubstitutionlookup167 subtable" u100D_u100E u103C.wide u1031
Ligature2: "LigatureSubstitutionlookup167 subtable" u100D_u100E u103C_u103D.narr u1031
Ligature2: "LigatureSubstitutionlookup167 subtable" u100D_u100E u103C_u103D.wide u1031
Ligature2: "LigatureSubstitutionlookup165 subtable" u100D_u100E u103C
Ligature2: "LigatureSubstitutionlookup165 subtable" u100D_u100E u103C_u103D.narr
Ligature2: "LigatureSubstitutionlookup165 subtable" u100D_u100E u103C_u102F.narr
Ligature2: "LigatureSubstitutionlookup163 subtable" u100D_u100E u1031
Ligature2: "LigatureSubstitutionlookup163 subtable" u100D_u100E u1084
Ligature2: "LigatureSubstitutionlookup162 subtable" u100D_u100E u103D
Ligature2: "LigatureSubstitutionlookup162 subtable" u100D_u100E u103E
Ligature2: "LigatureSubstitutionlookup162 subtable" u100D_u100E u103D_u103E
Ligature2: "LigatureSubstitutionlookup162 subtable" u100D_u100E
Ligature2: "LigatureSubstitutionlookup162 subtable" u100D_u100E u105F
Ligature2: "LigatureSubstitutionlookup162 subtable" u100D_u100E u1060
Ligature2: "LigatureSubstitutionlookup162 subtable" u100D_u100E u1082
Ligature2: "LigatureSubstitutionlookup158 subtable" u100D_u100E u1039
Ligature2: "LigatureSubstitutionlookup130 subtable" u1004.kinzi u200D u100D_u100E
Ligature2: "LigatureSubstitutionlookup130 subtable" u101B.kinzi u200D u100D_u100E
Ligature2: "LigatureSubstitutionlookup127 subtable" u1004.kinzi u200D u100D_u100E
Ligature2: "LigatureSubstitutionlookup127 subtable" u101B.kinzi u200D u100D_u100E
Ligature2: "LigatureSubstitutionlookup124 subtable" u1004.kinzi u200D u100D_u100E
Ligature2: "LigatureSubstitutionlookup124 subtable" u101B.kinzi u200D u100D_u100E
Ligature2: "sub_ligature_cligmymr_4 subtable" u100D u100E.med
MultipleSubs2: "MultipleSubstitutionlookup139 subtable" u200C u1031 u100D_u100E
MultipleSubs2: "MultipleSubstitutionlookup137 subtable" u200C u1084 u100D_u100E
MultipleSubs2: "MultipleSubstitutionlookup129 subtable" u100D_u100E u101B.kinzi
MultipleSubs2: "MultipleSubstitutionlookup128 subtable" u100D_u100E u1004.kinzi
Comment: "GDL_order: 1+AAoA-mark: 80+AAoA" 
EndChar

StartChar: u100E
Encoding: 144 4110 142
Width: 582
VWidth: 0
GlyphClass: 2
Flags: HW
AnchorPoint: "R" 0 0 mark 0
AnchorPoint: "BS" 287 -53 basechar 0
AnchorPoint: "L" 287 -53 basechar 0
AnchorPoint: "U" 287 495 basechar 0
AnchorPoint: "BD" 285 -53 basechar 0
LayerCount: 2
Fore
SplineSet
527 240 m 0
 527 86 418 -18 287 -18 c 0
 145 -18 55 86 55 167 c 0
 55 302 194 285 194 340 c 0
 194 379 171 392 149 392 c 0
 130 392 115 376 112 369 c 0
 55 404 l 0
 60 424 102 459 148 459 c 0
 208 459 261 419 261 340 c 0
 261 239 127 249 127 167 c 0
 127 140 176 54 287 54 c 0
 369 54 455 120 455 240 c 0
 455 309 431 362 390 400 c 0
 432 460 l 0
 490 415 527 349 527 240 c 0
EndSplineSet
Ligature2: "LigatureSubstitutionlookup169 subtable" u100E u103C
Ligature2: "LigatureSubstitutionlookup167 subtable" u100E u103C u1031
Ligature2: "LigatureSubstitutionlookup167 subtable" u100E u103C.wide u1031
Ligature2: "LigatureSubstitutionlookup167 subtable" u100E u103C_u103D.narr u1031
Ligature2: "LigatureSubstitutionlookup167 subtable" u100E u103C_u103D.wide u1031
Ligature2: "LigatureSubstitutionlookup165 subtable" u100E u103C
Ligature2: "LigatureSubstitutionlookup165 subtable" u100E u103C_u103D.narr
Ligature2: "LigatureSubstitutionlookup165 subtable" u100E u103C_u102F.narr
Ligature2: "LigatureSubstitutionlookup163 subtable" u100E u1031
Ligature2: "LigatureSubstitutionlookup163 subtable" u100E u1084
Ligature2: "LigatureSubstitutionlookup162 subtable" u100E u103D
Ligature2: "LigatureSubstitutionlookup162 subtable" u100E u103E
Ligature2: "LigatureSubstitutionlookup162 subtable" u100E u103D_u103E
Ligature2: "LigatureSubstitutionlookup162 subtable" u100E
Ligature2: "LigatureSubstitutionlookup162 subtable" u100E u105F
Ligature2: "LigatureSubstitutionlookup162 subtable" u100E u1060
Ligature2: "LigatureSubstitutionlookup162 subtable" u100E u1082
Ligature2: "LigatureSubstitutionlookup158 subtable" u100E u1039
Ligature2: "LigatureSubstitutionlookup130 subtable" u1004.kinzi u200D u100E
Ligature2: "LigatureSubstitutionlookup130 subtable" u101B.kinzi u200D u100E
Ligature2: "LigatureSubstitutionlookup127 subtable" u1004.kinzi u200D u100E
Ligature2: "LigatureSubstitutionlookup127 subtable" u101B.kinzi u200D u100E
Ligature2: "LigatureSubstitutionlookup124 subtable" u1004.kinzi u200D u100E
Ligature2: "LigatureSubstitutionlookup124 subtable" u101B.kinzi u200D u100E
MultipleSubs2: "MultipleSubstitutionlookup139 subtable" u200C u1031 u100E
MultipleSubs2: "MultipleSubstitutionlookup137 subtable" u200C u1084 u100E
MultipleSubs2: "MultipleSubstitutionlookup136 subtable" u200C u103C_u103D.narr u100E
MultipleSubs2: "MultipleSubstitutionlookup135 subtable" u200C u103C_u102F.narr u100E
MultipleSubs2: "MultipleSubstitutionlookup134 subtable" u200C u103C u100E
MultipleSubs2: "MultipleSubstitutionlookup129 subtable" u100E u101B.kinzi
MultipleSubs2: "MultipleSubstitutionlookup128 subtable" u100E u1004.kinzi
PairPos2: "PairwisePositioningkerninglooku subtable" uAA60.med.kham dx=-90 dy=0 dh=0 dv=0 dx=0 dy=0 dh=90 dv=0
PairPos2: "PairwisePositioningkerninglooku subtable" uAA60.med dx=-90 dy=0 dh=0 dv=0 dx=0 dy=0 dh=90 dv=0
PairPos2: "PairwisePositioningkerninglooku subtable" u1021.med dx=-90 dy=0 dh=0 dv=0 dx=0 dy=0 dh=90 dv=0
PairPos2: "PairwisePositioningkerninglooku subtable" u101E.med dx=-90 dy=0 dh=0 dv=0 dx=0 dy=0 dh=90 dv=0
PairPos2: "PairwisePositioningkerninglooku subtable" u101C.med dx=-90 dy=0 dh=0 dv=0 dx=0 dy=0 dh=90 dv=0
PairPos2: "PairwisePositioningkerninglooku subtable" u101A.med dx=-90 dy=0 dh=0 dv=0 dx=0 dy=0 dh=90 dv=0
PairPos2: "PairwisePositioningkerninglooku subtable" u1018.med dx=-90 dy=0 dh=0 dv=0 dx=0 dy=0 dh=90 dv=0
PairPos2: "PairwisePositioningkerninglooku subtable" u1011.med dx=-90 dy=0 dh=0 dv=0 dx=0 dy=0 dh=90 dv=0
PairPos2: "PairwisePositioningkerninglooku subtable" u1010.med dx=-90 dy=0 dh=0 dv=0 dx=0 dy=0 dh=90 dv=0
PairPos2: "PairwisePositioningkerninglooku subtable" u100F.med dx=-90 dy=0 dh=0 dv=0 dx=0 dy=0 dh=90 dv=0
PairPos2: "PairwisePositioningkerninglooku subtable" u100C.med dx=-90 dy=0 dh=0 dv=0 dx=0 dy=0 dh=90 dv=0
PairPos2: "PairwisePositioningkerninglooku subtable" u100A.med dx=-90 dy=0 dh=0 dv=0 dx=0 dy=0 dh=90 dv=0
PairPos2: "PairwisePositioningkerninglooku subtable" u1006.med dx=-90 dy=0 dh=0 dv=0 dx=0 dy=0 dh=90 dv=0
PairPos2: "PairwisePositioningkerninglooku subtable" u1003.med dx=-90 dy=0 dh=0 dv=0 dx=0 dy=0 dh=90 dv=0
PairPos2: "PairwisePositioningkerninglooku subtable" u1000.med dx=-90 dy=0 dh=0 dv=0 dx=0 dy=0 dh=90 dv=0
Position2: "SinglePositioninglookup48 per glyph data 0" dx=100 dy=0 dh=50 dv=0
Position2: "SinglePositioninglookup30 subtable" dx=140 dy=0 dh=140 dv=0
Comment: "GDL_order: 1+AAoA-mark: 80+AAoA" 
EndChar

StartChar: u100E.med
Encoding: 145 -1 143
Width: 0
VWidth: 0
GlyphClass: 4
Flags: HW
AnchorPoint: "BS" -236 -53 mark 0
AnchorPoint: "LLM" -559 -53 basemark 0
AnchorPoint: "BSM" 84 -53 basemark 0
AnchorPoint: "LM" 103 -53 basemark 0
AnchorPoint: "BS" 232 -53 basemark 0
AnchorPoint: "BSM" -238 -53 mark 0
LayerCount: 2
Fore
SplineSet
-52 -259 m 0
 -52 -385 -145 -457 -236 -457 c 0
 -345 -457 -415 -376 -415 -315 c 0
 -415 -210 -308 -223 -308 -181 c 0
 -308 -148 -327 -141 -341 -141 c 0
 -358 -141 -369 -154 -371 -162 c 0
 -415 -136 l 0
 -411 -112 -375 -89 -341 -89 c 0
 -297 -89 -256 -120 -256 -181 c 0
 -256 -259 -360 -250 -360 -315 c 0
 -360 -336 -322 -401 -236 -401 c 0
 -163 -401 -108 -340 -108 -259 c 0
 -108 -200 -126 -167 -158 -135 c 0
 -124 -88 l 0
 -79 -128 -52 -174 -52 -259 c 0
EndSplineSet
Ligature2: "LigatureSubstitutionlookup179 subtable" u100E.med u102D
Ligature2: "LigatureSubstitutionlookup179 subtable" u100E.med u102E
Ligature2: "LigatureSubstitutionlookup179 subtable" u100E.med u1032
Ligature2: "LigatureSubstitutionlookup179 subtable" u100E.med u103A
Ligature2: "LigatureSubstitutionlookup171 subtable" u100E.med u103C u1031
Ligature2: "LigatureSubstitutionlookup159 subtable" u100E.med u1031
Ligature2: "LigatureSubstitutionlookup159 subtable" u100E.med u103C
Ligature2: "sub_ligature_cligmymr_0 subtable" u1039 u100E
MultipleSubs2: "MultipleSubstitutionlookup138 subtable" u1039 u100E.med
Comment: "GDL_order: 5+AAoA-mark: 80+AAoA" 
EndChar

StartChar: u100F
Encoding: 146 4111 144
Width: 1039
VWidth: 0
GlyphClass: 2
Flags: HW
AnchorPoint: "R" 0 0 mark 0
AnchorPoint: "BS" 763 -53 basechar 0
AnchorPoint: "L" 763 -53 basechar 0
AnchorPoint: "BD" 521 -53 basechar 0
AnchorPoint: "U" 763 495 basechar 0
LayerCount: 2
Fore
SplineSet
984 222 m 0
 984 90 902 -18 773 -18 c 0
 756 -18 733 -15 719 -6 c 0
 745 61 l 0
 754 56 763 54 773 54 c 0
 864 54 912 130 912 222 c 0
 912 313 853 390 763 390 c 0
 675 390 632 312 632 222 c 0
 632 167 652 149 652 103 c 0
 652 31 589 -18 521 -18 c 0
 456 -18 389 31 389 103 c 0
 389 151 411 167 411 222 c 0
 411 313 364 390 276 390 c 0
 186 390 127 313 127 222 c 0
 127 130 175 54 266 54 c 0
 280 54 289 56 296 61 c 0
 320 -6 l 0
 307 -15 283 -18 266 -18 c 0
 137 -18 55 90 55 222 c 0
 55 352 146 461 276 461 c 0
 319 461 362 446 396 421 c 0
 427 446 464 461 521 461 c 0
 576 461 615 446 645 421 c 0
 681 447 721 461 763 461 c 0
 892 461 984 352 984 222 c 0
597 365 m 0
 577 379 549 390 521 390 c 0
 494 390 464 379 444 365 c 0
 468 326 482 277 482 222 c 0
 482 193 462 135 462 115 c 0
 462 73 488 54 521 54 c 0
 546 54 579 73 579 115 c 0
 579 145 560 193 560 222 c 0
 560 276 573 325 597 365 c 0
EndSplineSet
Ligature2: "LigatureSubstitutionlookup169 subtable" u100F u103C
Ligature2: "LigatureSubstitutionlookup167 subtable" u100F u103C u1031
Ligature2: "LigatureSubstitutionlookup167 subtable" u100F u103C.wide u1031
Ligature2: "LigatureSubstitutionlookup167 subtable" u100F u103C_u103D.narr u1031
Ligature2: "LigatureSubstitutionlookup167 subtable" u100F u103C_u103D.wide u1031
Ligature2: "LigatureSubstitutionlookup165 subtable" u100F u103C
Ligature2: "LigatureSubstitutionlookup165 subtable" u100F u103C_u103D.narr
Ligature2: "LigatureSubstitutionlookup165 subtable" u100F u103C_u102F.narr
Ligature2: "LigatureSubstitutionlookup163 subtable" u100F u1031
Ligature2: "LigatureSubstitutionlookup163 subtable" u100F u1084
Ligature2: "LigatureSubstitutionlookup162 subtable" u100F u103D
Ligature2: "LigatureSubstitutionlookup162 subtable" u100F u103E
Ligature2: "LigatureSubstitutionlookup162 subtable" u100F u103D_u103E
Ligature2: "LigatureSubstitutionlookup162 subtable" u100F
Ligature2: "LigatureSubstitutionlookup162 subtable" u100F u105F
Ligature2: "LigatureSubstitutionlookup162 subtable" u100F u1060
Ligature2: "LigatureSubstitutionlookup162 subtable" u100F u1082
Ligature2: "LigatureSubstitutionlookup158 subtable" u100F u1039
Ligature2: "LigatureSubstitutionlookup130 subtable" u1004.kinzi u200D u100F
Ligature2: "LigatureSubstitutionlookup130 subtable" u101B.kinzi u200D u100F
Ligature2: "LigatureSubstitutionlookup127 subtable" u1004.kinzi u200D u100F
Ligature2: "LigatureSubstitutionlookup127 subtable" u101B.kinzi u200D u100F
Ligature2: "LigatureSubstitutionlookup124 subtable" u1004.kinzi u200D u100F
Ligature2: "LigatureSubstitutionlookup124 subtable" u101B.kinzi u200D u100F
MultipleSubs2: "MultipleSubstitutionlookup139 subtable" u200C u1031 u100F
MultipleSubs2: "MultipleSubstitutionlookup137 subtable" u200C u1084 u100F
MultipleSubs2: "MultipleSubstitutionlookup136 subtable" u200C u103C_u103D.wide u100F
MultipleSubs2: "MultipleSubstitutionlookup135 subtable" u200C u103C_u102F.wide u100F
MultipleSubs2: "MultipleSubstitutionlookup134 subtable" u200C u103C.wide u100F
MultipleSubs2: "MultipleSubstitutionlookup129 subtable" u100F u101B.kinzi
MultipleSubs2: "MultipleSubstitutionlookup128 subtable" u100F u1004.kinzi
Comment: "GDL_order: 1+AAoA-mark: 80+AAoA" 
EndChar

StartChar: u100F.med
Encoding: 147 -1 145
Width: 0
VWidth: 0
GlyphClass: 4
Flags: HW
AnchorPoint: "LLM" -920 -53 basemark 0
AnchorPoint: "BD" -413 -53 mark 0
AnchorPoint: "BSM" 78 -53 basemark 0
AnchorPoint: "LM" 94 -53 basemark 0
AnchorPoint: "BSM" 907 -53 mark 0
AnchorPoint: "BDM" -410 -53 mark 0
AnchorPoint: "BD" 409 -53 basemark 0
LayerCount: 2
Fore
SplineSet
-55 -272 m 0
 -55 -375 -118 -457 -217 -457 c 0
 -236 -457 -252 -452 -260 -448 c 0
 -239 -396 l 0
 -233 -399 -225 -401 -217 -401 c 0
 -148 -401 -110 -342 -110 -272 c 0
 -110 -202 -155 -143 -225 -143 c 0
 -291 -143 -327 -203 -327 -272 c 0
 -327 -314 -311 -328 -311 -363 c 0
 -311 -419 -359 -457 -412 -457 c 0
 -460 -457 -512 -419 -512 -363 c 0
 -512 -327 -497 -314 -497 -272 c 0
 -497 -202 -532 -143 -600 -143 c 0
 -670 -143 -715 -202 -715 -272 c 0
 -715 -342 -676 -401 -607 -401 c 0
 -600 -401 -591 -399 -586 -396 c 0
 -565 -448 l 0
 -574 -454 -592 -457 -607 -457 c 0
 -706 -457 -770 -375 -770 -272 c 0
 -770 -170 -701 -87 -600 -87 c 0
 -567 -87 -534 -97 -507 -119 c 0
 -483 -98 -454 -87 -412 -87 c 0
 -371 -87 -338 -98 -316 -118 c 0
 -288 -97 -256 -87 -225 -87 c 0
 -124 -87 -55 -170 -55 -272 c 0
-353 -162 m 0
 -369 -151 -387 -143 -412 -143 c 0
 -436 -143 -454 -151 -471 -162 c 0
 -451 -192 -441 -228 -441 -272 c 0
 -441 -294 -457 -339 -457 -354 c 0
 -457 -388 -438 -401 -412 -401 c 0
 -392 -401 -367 -388 -367 -354 c 0
 -367 -330 -382 -296 -382 -272 c 0
 -382 -228 -372 -192 -353 -162 c 0
EndSplineSet
Ligature2: "LigatureSubstitutionlookup179 subtable" u100F.med u102D
Ligature2: "LigatureSubstitutionlookup179 subtable" u100F.med u102E
Ligature2: "LigatureSubstitutionlookup179 subtable" u100F.med u1032
Ligature2: "LigatureSubstitutionlookup179 subtable" u100F.med u103A
Ligature2: "LigatureSubstitutionlookup171 subtable" u100F.med u103C u1031
Ligature2: "LigatureSubstitutionlookup159 subtable" u100F.med u1031
Ligature2: "LigatureSubstitutionlookup159 subtable" u100F.med u103C
Ligature2: "sub_ligature_cligmymr_0 subtable" u1039 u100F
MultipleSubs2: "MultipleSubstitutionlookup138 subtable" u1039 u100F.med
Comment: "GDL_order: 2+AAoA-mark: 80+AAoA" 
EndChar

StartChar: u100F_u100B
Encoding: 148 -1 146
Width: 1039
VWidth: 0
GlyphClass: 2
Flags: HW
AnchorPoint: "R" 0 0 mark 0
AnchorPoint: "BS" 1043 -53 basechar 0
AnchorPoint: "LL" 371 -53 basechar 0
AnchorPoint: "L" 946 -53 basechar 0
AnchorPoint: "U" 763 495 basechar 0
AnchorPoint: "BD" 1027 -53 basechar 0
LayerCount: 2
Fore
SplineSet
883 -457 m 0
 758 -457 l 0
 758 -343 l 0
 736 -349 713 -352 687 -352 c 0
 604 -352 519 -323 519 -220 c 0
 519 -117 605 -90 687 -90 c 0
 725 -90 772 -98 823 -116 c 0
 813 -170 l 0
 777 -158 736 -146 687 -146 c 0
 631 -146 576 -163 576 -221 c 0
 576 -278 627 -296 687 -296 c 0
 733 -296 778 -288 813 -276 c 0
 813 -401 l 0
 883 -401 l 0
 883 -457 l 0
984 222 m 0
 984 90 902 -18 773 -18 c 0
 756 -18 733 -15 719 -6 c 0
 745 61 l 0
 754 56 763 54 773 54 c 0
 864 54 912 130 912 222 c 0
 912 313 853 390 763 390 c 0
 675 390 632 312 632 222 c 0
 632 167 652 149 652 103 c 0
 652 31 589 -18 521 -18 c 0
 456 -18 389 31 389 103 c 0
 389 151 411 167 411 222 c 0
 411 313 364 390 276 390 c 0
 186 390 127 313 127 222 c 0
 127 130 175 54 266 54 c 0
 280 54 289 56 296 61 c 0
 320 -6 l 0
 307 -15 283 -18 266 -18 c 0
 137 -18 55 90 55 222 c 0
 55 352 146 461 276 461 c 0
 319 461 362 446 396 421 c 0
 427 446 464 461 521 461 c 0
 576 461 615 446 645 421 c 0
 681 447 721 461 763 461 c 0
 892 461 984 352 984 222 c 0
597 365 m 0
 577 379 549 390 521 390 c 0
 494 390 464 379 444 365 c 0
 468 326 482 277 482 222 c 0
 482 193 462 135 462 115 c 0
 462 73 488 54 521 54 c 0
 546 54 579 73 579 115 c 0
 579 145 560 193 560 222 c 0
 560 276 573 325 597 365 c 0
EndSplineSet
Ligature2: "LigatureSubstitutionlookup169 subtable" u100F_u100B u103C
Ligature2: "LigatureSubstitutionlookup167 subtable" u100F_u100B u103C u1031
Ligature2: "LigatureSubstitutionlookup167 subtable" u100F_u100B u103C.wide u1031
Ligature2: "LigatureSubstitutionlookup167 subtable" u100F_u100B u103C_u103D.narr u1031
Ligature2: "LigatureSubstitutionlookup167 subtable" u100F_u100B u103C_u103D.wide u1031
Ligature2: "LigatureSubstitutionlookup165 subtable" u100F_u100B u103C
Ligature2: "LigatureSubstitutionlookup165 subtable" u100F_u100B u103C_u103D.narr
Ligature2: "LigatureSubstitutionlookup165 subtable" u100F_u100B u103C_u102F.narr
Ligature2: "LigatureSubstitutionlookup163 subtable" u100F_u100B u1031
Ligature2: "LigatureSubstitutionlookup163 subtable" u100F_u100B u1084
Ligature2: "LigatureSubstitutionlookup162 subtable" u100F_u100B u103D
Ligature2: "LigatureSubstitutionlookup162 subtable" u100F_u100B u103E
Ligature2: "LigatureSubstitutionlookup162 subtable" u100F_u100B u103D_u103E
Ligature2: "LigatureSubstitutionlookup162 subtable" u100F_u100B
Ligature2: "LigatureSubstitutionlookup162 subtable" u100F_u100B u105F
Ligature2: "LigatureSubstitutionlookup162 subtable" u100F_u100B u1060
Ligature2: "LigatureSubstitutionlookup162 subtable" u100F_u100B u1082
Ligature2: "LigatureSubstitutionlookup158 subtable" u100F_u100B u1039
Ligature2: "LigatureSubstitutionlookup130 subtable" u1004.kinzi u200D u100F_u100B
Ligature2: "LigatureSubstitutionlookup130 subtable" u101B.kinzi u200D u100F_u100B
Ligature2: "LigatureSubstitutionlookup127 subtable" u1004.kinzi u200D u100F_u100B
Ligature2: "LigatureSubstitutionlookup127 subtable" u101B.kinzi u200D u100F_u100B
Ligature2: "LigatureSubstitutionlookup124 subtable" u1004.kinzi u200D u100F_u100B
Ligature2: "LigatureSubstitutionlookup124 subtable" u101B.kinzi u200D u100F_u100B
Ligature2: "sub_ligature_cligmymr_4 subtable" u100F u100B.med
MultipleSubs2: "MultipleSubstitutionlookup139 subtable" u200C u1031 u100F_u100B
MultipleSubs2: "MultipleSubstitutionlookup137 subtable" u200C u1084 u100F_u100B
MultipleSubs2: "MultipleSubstitutionlookup129 subtable" u100F_u100B u101B.kinzi
MultipleSubs2: "MultipleSubstitutionlookup128 subtable" u100F_u100B u1004.kinzi
Comment: "GDL_order: 1+AAoA-mark: 80+AAoA" 
EndChar

StartChar: u100F_u100D
Encoding: 149 -1 147
Width: 1039
VWidth: 0
GlyphClass: 2
Flags: HW
AnchorPoint: "R" 0 0 mark 0
AnchorPoint: "BS" -33 -53 basechar 0
AnchorPoint: "LL" 48 -53 basechar 0
AnchorPoint: "L" 987 -53 basechar 0
AnchorPoint: "U" 763 495 basechar 0
AnchorPoint: "BD" -30 -53 basechar 0
LayerCount: 2
Fore
SplineSet
879 -191 m 0
 641 -191 l 0
 652 -220 657 -251 657 -286 c 0
 657 -350 639 -408 605 -457 c 0
 437 -457 l 0
 411 -409 l 0
 460 -380 486 -333 486 -286 c 0
 486 -215 428 -157 356 -157 c 0
 285 -157 228 -215 228 -286 c 0
 228 -333 252 -380 302 -409 c 0
 275 -457 l 0
 204 -425 173 -349 173 -286 c 0
 173 -185 255 -102 356 -102 c 0
 458 -102 541 -185 541 -286 c 0
 541 -326 529 -368 501 -402 c 0
 574 -402 l 0
 593 -367 604 -328 604 -286 c 0
 604 -228 587 -183 556 -136 c 0
 824 -136 l 0
 824 -82 l 0
 879 -82 l 0
 879 -191 l 0
984 222 m 0
 984 90 902 -18 773 -18 c 0
 756 -18 733 -15 719 -6 c 0
 745 61 l 0
 754 56 763 54 773 54 c 0
 864 54 912 130 912 222 c 0
 912 313 853 390 763 390 c 0
 675 390 632 312 632 222 c 0
 632 167 652 149 652 103 c 0
 652 31 589 -18 521 -18 c 0
 456 -18 389 31 389 103 c 0
 389 151 411 167 411 222 c 0
 411 313 364 390 276 390 c 0
 186 390 127 313 127 222 c 0
 127 130 175 54 266 54 c 0
 280 54 289 56 296 61 c 0
 320 -6 l 0
 307 -15 283 -18 266 -18 c 0
 137 -18 55 90 55 222 c 0
 55 352 146 461 276 461 c 0
 319 461 362 446 396 421 c 0
 427 446 464 461 521 461 c 0
 576 461 615 446 645 421 c 0
 681 447 721 461 763 461 c 0
 892 461 984 352 984 222 c 0
597 365 m 0
 577 379 549 390 521 390 c 0
 494 390 464 379 444 365 c 0
 468 326 482 277 482 222 c 0
 482 193 462 135 462 115 c 0
 462 73 488 54 521 54 c 0
 546 54 579 73 579 115 c 0
 579 145 560 193 560 222 c 0
 560 276 573 325 597 365 c 0
EndSplineSet
Ligature2: "LigatureSubstitutionlookup169 subtable" u100F_u100D u103C
Ligature2: "LigatureSubstitutionlookup167 subtable" u100F_u100D u103C u1031
Ligature2: "LigatureSubstitutionlookup167 subtable" u100F_u100D u103C.wide u1031
Ligature2: "LigatureSubstitutionlookup167 subtable" u100F_u100D u103C_u103D.narr u1031
Ligature2: "LigatureSubstitutionlookup167 subtable" u100F_u100D u103C_u103D.wide u1031
Ligature2: "LigatureSubstitutionlookup165 subtable" u100F_u100D u103C
Ligature2: "LigatureSubstitutionlookup165 subtable" u100F_u100D u103C_u103D.narr
Ligature2: "LigatureSubstitutionlookup165 subtable" u100F_u100D u103C_u102F.narr
Ligature2: "LigatureSubstitutionlookup163 subtable" u100F_u100D u1031
Ligature2: "LigatureSubstitutionlookup163 subtable" u100F_u100D u1084
Ligature2: "LigatureSubstitutionlookup162 subtable" u100F_u100D u103D
Ligature2: "LigatureSubstitutionlookup162 subtable" u100F_u100D u103E
Ligature2: "LigatureSubstitutionlookup162 subtable" u100F_u100D u103D_u103E
Ligature2: "LigatureSubstitutionlookup162 subtable" u100F_u100D
Ligature2: "LigatureSubstitutionlookup162 subtable" u100F_u100D u105F
Ligature2: "LigatureSubstitutionlookup162 subtable" u100F_u100D u1060
Ligature2: "LigatureSubstitutionlookup162 subtable" u100F_u100D u1082
Ligature2: "LigatureSubstitutionlookup158 subtable" u100F_u100D u1039
Ligature2: "LigatureSubstitutionlookup130 subtable" u1004.kinzi u200D u100F_u100D
Ligature2: "LigatureSubstitutionlookup130 subtable" u101B.kinzi u200D u100F_u100D
Ligature2: "LigatureSubstitutionlookup127 subtable" u1004.kinzi u200D u100F_u100D
Ligature2: "LigatureSubstitutionlookup127 subtable" u101B.kinzi u200D u100F_u100D
Ligature2: "LigatureSubstitutionlookup124 subtable" u1004.kinzi u200D u100F_u100D
Ligature2: "LigatureSubstitutionlookup124 subtable" u101B.kinzi u200D u100F_u100D
Ligature2: "sub_ligature_cligmymr_4 subtable" u100F u100D.med
MultipleSubs2: "MultipleSubstitutionlookup139 subtable" u200C u1031 u100F_u100D
MultipleSubs2: "MultipleSubstitutionlookup137 subtable" u200C u1084 u100F_u100D
MultipleSubs2: "MultipleSubstitutionlookup129 subtable" u100F_u100D u101B.kinzi
MultipleSubs2: "MultipleSubstitutionlookup128 subtable" u100F_u100D u1004.kinzi
Comment: "GDL_order: 1+AAoA-mark: 80+AAoA" 
EndChar

StartChar: u1010
Encoding: 150 4112 148
Width: 987
VWidth: 0
GlyphClass: 2
Flags: HW
AnchorPoint: "R" 0 0 mark 0
AnchorPoint: "BS" 695 -53 basechar 0
AnchorPoint: "L" 695 -53 basechar 0
AnchorPoint: "BD" 495 -53 basechar 0
AnchorPoint: "U" 695 495 basechar 0
LayerCount: 2
Fore
SplineSet
932 222 m 0
 932 90 823 -18 695 -18 c 0
 671 -18 645 -14 625 -4 c 0
 654 62 l 0
 667 56 682 54 695 54 c 0
 787 54 860 130 860 222 c 0
 860 313 787 390 695 390 c 0
 591 390 528 270 525 213 c 0
 525 112 436 -18 292 -18 c 0
 159 -18 55 90 55 222 c 0
 55 352 160 461 289 461 c 0
 378 461 456 410 495 334 c 0
 536 405 611 461 695 461 c 0
 823 461 932 352 932 222 c 0
453 219 m 0
 453 311 383 390 292 390 c 0
 200 390 127 313 127 222 c 0
 127 130 200 54 289 54 c 0
 384 54 453 135 453 219 c 0
EndSplineSet
Substitution2: "sub_single_cligmymr_2 subtable" u1010.kham
Ligature2: "LigatureSubstitutionlookup169 subtable" u1010 u103C
Ligature2: "LigatureSubstitutionlookup167 subtable" u1010 u103C u1031
Ligature2: "LigatureSubstitutionlookup167 subtable" u1010 u103C.wide u1031
Ligature2: "LigatureSubstitutionlookup167 subtable" u1010 u103C_u103D.narr u1031
Ligature2: "LigatureSubstitutionlookup167 subtable" u1010 u103C_u103D.wide u1031
Ligature2: "LigatureSubstitutionlookup165 subtable" u1010 u103C
Ligature2: "LigatureSubstitutionlookup165 subtable" u1010 u103C_u103D.narr
Ligature2: "LigatureSubstitutionlookup165 subtable" u1010 u103C_u102F.narr
Ligature2: "LigatureSubstitutionlookup163 subtable" u1010 u1031
Ligature2: "LigatureSubstitutionlookup163 subtable" u1010 u1084
Ligature2: "LigatureSubstitutionlookup162 subtable" u1010 u103D
Ligature2: "LigatureSubstitutionlookup162 subtable" u1010 u103E
Ligature2: "LigatureSubstitutionlookup162 subtable" u1010 u103D_u103E
Ligature2: "LigatureSubstitutionlookup162 subtable" u1010
Ligature2: "LigatureSubstitutionlookup162 subtable" u1010 u105F
Ligature2: "LigatureSubstitutionlookup162 subtable" u1010 u1060
Ligature2: "LigatureSubstitutionlookup162 subtable" u1010 u1082
Ligature2: "LigatureSubstitutionlookup158 subtable" u1010 u1039
Ligature2: "LigatureSubstitutionlookup130 subtable" u1004.kinzi u200D u1010
Ligature2: "LigatureSubstitutionlookup130 subtable" u101B.kinzi u200D u1010
Ligature2: "LigatureSubstitutionlookup127 subtable" u1004.kinzi u200D u1010
Ligature2: "LigatureSubstitutionlookup127 subtable" u101B.kinzi u200D u1010
Ligature2: "LigatureSubstitutionlookup124 subtable" u1004.kinzi u200D u1010
Ligature2: "LigatureSubstitutionlookup124 subtable" u101B.kinzi u200D u1010
MultipleSubs2: "MultipleSubstitutionlookup139 subtable" u200C u1031 u1010
MultipleSubs2: "MultipleSubstitutionlookup137 subtable" u200C u1084 u1010
MultipleSubs2: "MultipleSubstitutionlookup136 subtable" u200C u103C_u103D.wide u1010
MultipleSubs2: "MultipleSubstitutionlookup135 subtable" u200C u103C_u102F.wide u1010
MultipleSubs2: "MultipleSubstitutionlookup134 subtable" u200C u103C.wide u1010
MultipleSubs2: "MultipleSubstitutionlookup129 subtable" u1010 u101B.kinzi
MultipleSubs2: "MultipleSubstitutionlookup128 subtable" u1010 u1004.kinzi
Comment: "GDL_order: 1+AAoA-mark: 80+AAoA" 
EndChar

StartChar: u1010.med
Encoding: 151 -1 149
Width: 0
VWidth: 0
GlyphClass: 4
Flags: HW
AnchorPoint: "LLM" -870 -53 basemark 0
AnchorPoint: "BD" -381 -53 mark 0
AnchorPoint: "BSM" 105 -53 basemark 0
AnchorPoint: "LM" 105 -53 basemark 0
AnchorPoint: "BSM" 867 -53 mark 0
AnchorPoint: "BDM" -379 -53 mark 0
AnchorPoint: "BD" 384 -53 basemark 0
LayerCount: 2
Fore
SplineSet
-45 -272 m 0
 -45 -375 -127 -457 -227 -457 c 0
 -247 -457 -266 -454 -282 -446 c 0
 -259 -395 l 0
 -249 -401 -237 -401 -227 -401 c 0
 -157 -401 -100 -342 -100 -272 c 0
 -100 -202 -157 -143 -227 -143 c 0
 -304 -143 -355 -233 -357 -279 c 0
 -357 -347 -422 -457 -538 -457 c 0
 -639 -457 -720 -375 -720 -272 c 0
 -720 -170 -639 -87 -539 -87 c 0
 -471 -87 -412 -127 -381 -185 c 0
 -348 -130 -292 -87 -227 -87 c 0
 -127 -87 -45 -170 -45 -272 c 0
-413 -274 m 0
 -413 -204 -466 -143 -538 -143 c 0
 -609 -143 -665 -202 -665 -272 c 0
 -665 -342 -608 -401 -539 -401 c 0
 -465 -401 -413 -338 -413 -274 c 0
EndSplineSet
Ligature2: "LigatureSubstitutionlookup179 subtable" u1010.med u102D
Ligature2: "LigatureSubstitutionlookup179 subtable" u1010.med u102E
Ligature2: "LigatureSubstitutionlookup179 subtable" u1010.med u1032
Ligature2: "LigatureSubstitutionlookup179 subtable" u1010.med u103A
Ligature2: "LigatureSubstitutionlookup171 subtable" u1010.med u103C u1031
Ligature2: "LigatureSubstitutionlookup159 subtable" u1010.med u1031
Ligature2: "LigatureSubstitutionlookup159 subtable" u1010.med u103C
Ligature2: "sub_ligature_cligmymr_0 subtable" u1039 u1010
MultipleSubs2: "MultipleSubstitutionlookup138 subtable" u1039 u1010.med
Comment: "GDL_order: 2+AAoA-mark: 80+AAoA" 
EndChar

StartChar: u1010_u103D.med
Encoding: 152 -1 150
Width: 0
VWidth: 0
GlyphClass: 4
Flags: HW
AnchorPoint: "BS" -230 -53 mark 0
AnchorPoint: "LLM" -558 -53 basemark 0
AnchorPoint: "BSM" -230 -53 mark 0
AnchorPoint: "LM" 95 -53 basemark 0
AnchorPoint: "BS" 235 -53 basemark 0
AnchorPoint: "BSM" 555 -53 basemark 0
LayerCount: 2
Fore
SplineSet
-65 -369 m 0
 -65 -416 -104 -457 -152 -457 c 0
 -202 -457 -240 -417 -240 -368 c 0
 -240 -320 -202 -278 -152 -278 c 0
 -100 -278 -65 -321 -65 -369 c 0
-103 -369 m 0
 -103 -342 -126 -315 -152 -315 c 0
 -179 -315 -203 -339 -203 -368 c 0
 -203 -397 -180 -420 -152 -420 c 0
 -125 -420 -103 -395 -103 -369 c 0
-55 -157 m 0
 -55 -210 -96 -256 -152 -256 c 0
 -164 -256 -175 -255 -182 -251 c 0
 -166 -210 l 0
 -161 -212 -157 -212 -152 -212 c 0
 -123 -212 -99 -186 -99 -157 c 0
 -99 -127 -124 -99 -152 -99 c 0
 -187 -99 -211 -140 -213 -166 c 0
 -216 -214 -254 -255 -309 -255 c 0
 -365 -255 -408 -208 -408 -155 c 0
 -408 -103 -365 -55 -309 -55 c 0
 -275 -55 -248 -72 -230 -98 c 0
 -211 -70 -183 -56 -152 -56 c 0
 -97 -56 -55 -105 -55 -157 c 0
-253 -156 m 0
 -253 -126 -279 -98 -309 -98 c 0
 -338 -98 -364 -126 -364 -155 c 0
 -364 -184 -339 -211 -309 -211 c 0
 -279 -211 -253 -185 -253 -156 c 0
EndSplineSet
Substitution2: "sub_single_cligmymr_4 subtable" u1010_u103D.med.tri
Ligature2: "sub_ligature_cligmymr_4 subtable" u1010.med u103D
Ligature2: "sub_ligature_cligmymr_4 subtable" u1039 u1010 u103D
Comment: "GDL_order: 2+AAoA-mark: 80+AAoA" 
EndChar

StartChar: u1011
Encoding: 153 4113 151
Width: 980
VWidth: 0
GlyphClass: 2
Flags: HW
AnchorPoint: "R" 0 0 mark 0
AnchorPoint: "BS" 690 -53 basechar 0
AnchorPoint: "L" 690 -53 basechar 0
AnchorPoint: "BD" 490 -53 basechar 0
AnchorPoint: "U" 690 495 basechar 0
LayerCount: 2
Fore
SplineSet
925 222 m 0
 925 90 818 -18 690 -18 c 0
 605 -18 529 28 490 98 c 0
 448 29 376 -18 292 -18 c 0
 159 -18 55 90 55 222 c 0
 55 352 160 461 289 461 c 0
 375 461 448 414 490 345 c 0
 529 414 605 461 689 461 c 0
 818 461 925 352 925 222 c 0
853 222 m 0
 853 313 780 390 690 390 c 0
 600 390 527 313 527 222 c 0
 527 130 600 54 689 54 c 0
 780 54 853 130 853 222 c 0
453 222 m 0
 453 313 380 390 292 390 c 0
 200 390 127 313 127 222 c 0
 127 130 200 54 289 54 c 0
 380 54 453 130 453 222 c 0
EndSplineSet
Ligature2: "LigatureSubstitutionlookup169 subtable" u1011 u103C
Ligature2: "LigatureSubstitutionlookup167 subtable" u1011 u103C u1031
Ligature2: "LigatureSubstitutionlookup167 subtable" u1011 u103C.wide u1031
Ligature2: "LigatureSubstitutionlookup167 subtable" u1011 u103C_u103D.narr u1031
Ligature2: "LigatureSubstitutionlookup167 subtable" u1011 u103C_u103D.wide u1031
Ligature2: "LigatureSubstitutionlookup165 subtable" u1011 u103C
Ligature2: "LigatureSubstitutionlookup165 subtable" u1011 u103C_u103D.narr
Ligature2: "LigatureSubstitutionlookup165 subtable" u1011 u103C_u102F.narr
Ligature2: "LigatureSubstitutionlookup163 subtable" u1011 u1031
Ligature2: "LigatureSubstitutionlookup163 subtable" u1011 u1084
Ligature2: "LigatureSubstitutionlookup162 subtable" u1011 u103D
Ligature2: "LigatureSubstitutionlookup162 subtable" u1011 u103E
Ligature2: "LigatureSubstitutionlookup162 subtable" u1011 u103D_u103E
Ligature2: "LigatureSubstitutionlookup162 subtable" u1011
Ligature2: "LigatureSubstitutionlookup162 subtable" u1011 u105F
Ligature2: "LigatureSubstitutionlookup162 subtable" u1011 u1060
Ligature2: "LigatureSubstitutionlookup162 subtable" u1011 u1082
Ligature2: "LigatureSubstitutionlookup158 subtable" u1011 u1039
Ligature2: "LigatureSubstitutionlookup130 subtable" u1004.kinzi u200D u1011
Ligature2: "LigatureSubstitutionlookup130 subtable" u101B.kinzi u200D u1011
Ligature2: "LigatureSubstitutionlookup127 subtable" u1004.kinzi u200D u1011
Ligature2: "LigatureSubstitutionlookup127 subtable" u101B.kinzi u200D u1011
Ligature2: "LigatureSubstitutionlookup124 subtable" u1004.kinzi u200D u1011
Ligature2: "LigatureSubstitutionlookup124 subtable" u101B.kinzi u200D u1011
MultipleSubs2: "MultipleSubstitutionlookup139 subtable" u200C u1031 u1011
MultipleSubs2: "MultipleSubstitutionlookup137 subtable" u200C u1084 u1011
MultipleSubs2: "MultipleSubstitutionlookup136 subtable" u200C u103C_u103D.wide u1011
MultipleSubs2: "MultipleSubstitutionlookup135 subtable" u200C u103C_u102F.wide u1011
MultipleSubs2: "MultipleSubstitutionlookup134 subtable" u200C u103C.wide u1011
MultipleSubs2: "MultipleSubstitutionlookup129 subtable" u1011 u101B.kinzi
MultipleSubs2: "MultipleSubstitutionlookup128 subtable" u1011 u1004.kinzi
Comment: "GDL_order: 1+AAoA-mark: 80+AAoA" 
EndChar

StartChar: u1011.med
Encoding: 154 -1 152
Width: 0
VWidth: 0
GlyphClass: 4
Flags: HW
AnchorPoint: "LLM" 95 -53 basemark 0
AnchorPoint: "BD" -390 -53 mark 0
AnchorPoint: "BSM" 95 -53 basemark 0
AnchorPoint: "LM" -872 -53 basemark 0
AnchorPoint: "BSM" 877 -53 mark 0
AnchorPoint: "BDM" -395 -53 mark 0
AnchorPoint: "BD" -395 -53 basemark 0
LayerCount: 2
Fore
SplineSet
-55 -272 m 0
 -55 -375 -138 -457 -237 -457 c 0
 -303 -457 -359 -420 -390 -367 c 0
 -422 -420 -478 -457 -544 -457 c 0
 -644 -457 -726 -375 -726 -272 c 0
 -726 -170 -644 -87 -544 -87 c 0
 -478 -87 -422 -124 -390 -178 c 0
 -359 -124 -303 -87 -237 -87 c 0
 -138 -87 -55 -170 -55 -272 c 0
-114 -272 m 0
 -114 -202 -170 -143 -240 -143 c 0
 -310 -143 -365 -202 -365 -272 c 0
 -365 -342 -310 -401 -240 -401 c 0
 -169 -401 -114 -342 -114 -272 c 0
-418 -272 m 0
 -418 -202 -475 -143 -544 -143 c 0
 -614 -143 -671 -202 -671 -272 c 0
 -671 -342 -614 -401 -544 -401 c 0
 -475 -401 -418 -342 -418 -272 c 0
EndSplineSet
Ligature2: "LigatureSubstitutionlookup179 subtable" u1011.med u102D
Ligature2: "LigatureSubstitutionlookup179 subtable" u1011.med u102E
Ligature2: "LigatureSubstitutionlookup179 subtable" u1011.med u1032
Ligature2: "LigatureSubstitutionlookup179 subtable" u1011.med u103A
Ligature2: "LigatureSubstitutionlookup171 subtable" u1011.med u103C u1031
Ligature2: "LigatureSubstitutionlookup159 subtable" u1011.med u1031
Ligature2: "LigatureSubstitutionlookup159 subtable" u1011.med u103C
Ligature2: "sub_ligature_cligmymr_0 subtable" u1039 u1011
MultipleSubs2: "MultipleSubstitutionlookup138 subtable" u1039 u1011.med
Comment: "GDL_order: 2+AAoA-mark: 80+AAoA" 
EndChar

StartChar: u1012
Encoding: 155 4114 153
Width: 540
VWidth: 0
GlyphClass: 2
Flags: HW
AnchorPoint: "R" 0 0 mark 0
AnchorPoint: "BS" 270 -53 basechar 0
AnchorPoint: "L" 270 -53 basechar 0
AnchorPoint: "U" 270 495 basechar 0
AnchorPoint: "BD" 267 -53 basechar 0
LayerCount: 2
Fore
SplineSet
485 126 m 0
 485 47 420 -18 270 -18 c 0
 128 -18 55 39 55 117 c 0
 123 143 l 0
 123 93 174 55 270 54 c 0
 339 54 413 72 413 127 c 0
 413 173 338 187 280 190 c 0
 280 254 l 0
 338 257 413 270 413 317 c 0
 413 371 339 390 270 390 c 0
 174 390 123 351 123 301 c 0
 55 326 l 0
 55 404 130 461 270 461 c 0
 420 461 485 396 485 317 c 0
 485 274 459 236 416 221 c 0
 459 206 485 168 485 126 c 0
EndSplineSet
Ligature2: "LigatureSubstitutionlookup169 subtable" u1012 u103C
Ligature2: "LigatureSubstitutionlookup167 subtable" u1012 u103C u1031
Ligature2: "LigatureSubstitutionlookup167 subtable" u1012 u103C.wide u1031
Ligature2: "LigatureSubstitutionlookup167 subtable" u1012 u103C_u103D.narr u1031
Ligature2: "LigatureSubstitutionlookup167 subtable" u1012 u103C_u103D.wide u1031
Ligature2: "LigatureSubstitutionlookup165 subtable" u1012 u103C
Ligature2: "LigatureSubstitutionlookup165 subtable" u1012 u103C_u103D.narr
Ligature2: "LigatureSubstitutionlookup165 subtable" u1012 u103C_u102F.narr
Ligature2: "LigatureSubstitutionlookup163 subtable" u1012 u1031
Ligature2: "LigatureSubstitutionlookup163 subtable" u1012 u1084
Ligature2: "LigatureSubstitutionlookup162 subtable" u1012 u103D
Ligature2: "LigatureSubstitutionlookup162 subtable" u1012 u103E
Ligature2: "LigatureSubstitutionlookup162 subtable" u1012 u103D_u103E
Ligature2: "LigatureSubstitutionlookup162 subtable" u1012
Ligature2: "LigatureSubstitutionlookup162 subtable" u1012 u105F
Ligature2: "LigatureSubstitutionlookup162 subtable" u1012 u1060
Ligature2: "LigatureSubstitutionlookup162 subtable" u1012 u1082
Ligature2: "LigatureSubstitutionlookup158 subtable" u1012 u1039
Ligature2: "LigatureSubstitutionlookup130 subtable" u1004.kinzi u200D u1012
Ligature2: "LigatureSubstitutionlookup130 subtable" u101B.kinzi u200D u1012
Ligature2: "LigatureSubstitutionlookup127 subtable" u1004.kinzi u200D u1012
Ligature2: "LigatureSubstitutionlookup127 subtable" u101B.kinzi u200D u1012
Ligature2: "LigatureSubstitutionlookup124 subtable" u1004.kinzi u200D u1012
Ligature2: "LigatureSubstitutionlookup124 subtable" u101B.kinzi u200D u1012
MultipleSubs2: "MultipleSubstitutionlookup139 subtable" u200C u1031 u1012
MultipleSubs2: "MultipleSubstitutionlookup137 subtable" u200C u1084 u1012
MultipleSubs2: "MultipleSubstitutionlookup136 subtable" u200C u103C_u103D.narr u1012
MultipleSubs2: "MultipleSubstitutionlookup135 subtable" u200C u103C_u102F.narr u1012
MultipleSubs2: "MultipleSubstitutionlookup134 subtable" u200C u103C u1012
MultipleSubs2: "MultipleSubstitutionlookup129 subtable" u1012 u101B.kinzi
MultipleSubs2: "MultipleSubstitutionlookup128 subtable" u1012 u1004.kinzi
PairPos2: "PairwisePositioningkerninglooku subtable" uAA60.med.kham dx=-90 dy=0 dh=0 dv=0 dx=0 dy=0 dh=90 dv=0
PairPos2: "PairwisePositioningkerninglooku subtable" uAA60.med dx=-90 dy=0 dh=0 dv=0 dx=0 dy=0 dh=90 dv=0
PairPos2: "PairwisePositioningkerninglooku subtable" u1021.med dx=-90 dy=0 dh=0 dv=0 dx=0 dy=0 dh=90 dv=0
PairPos2: "PairwisePositioningkerninglooku subtable" u101E.med dx=-90 dy=0 dh=0 dv=0 dx=0 dy=0 dh=90 dv=0
PairPos2: "PairwisePositioningkerninglooku subtable" u101C.med dx=-90 dy=0 dh=0 dv=0 dx=0 dy=0 dh=90 dv=0
PairPos2: "PairwisePositioningkerninglooku subtable" u101A.med dx=-90 dy=0 dh=0 dv=0 dx=0 dy=0 dh=90 dv=0
PairPos2: "PairwisePositioningkerninglooku subtable" u1018.med dx=-90 dy=0 dh=0 dv=0 dx=0 dy=0 dh=90 dv=0
PairPos2: "PairwisePositioningkerninglooku subtable" u1011.med dx=-90 dy=0 dh=0 dv=0 dx=0 dy=0 dh=90 dv=0
PairPos2: "PairwisePositioningkerninglooku subtable" u1010.med dx=-90 dy=0 dh=0 dv=0 dx=0 dy=0 dh=90 dv=0
PairPos2: "PairwisePositioningkerninglooku subtable" u100F.med dx=-90 dy=0 dh=0 dv=0 dx=0 dy=0 dh=90 dv=0
PairPos2: "PairwisePositioningkerninglooku subtable" u100C.med dx=-90 dy=0 dh=0 dv=0 dx=0 dy=0 dh=90 dv=0
PairPos2: "PairwisePositioningkerninglooku subtable" u100A.med dx=-90 dy=0 dh=0 dv=0 dx=0 dy=0 dh=90 dv=0
PairPos2: "PairwisePositioningkerninglooku subtable" u1006.med dx=-90 dy=0 dh=0 dv=0 dx=0 dy=0 dh=90 dv=0
PairPos2: "PairwisePositioningkerninglooku subtable" u1003.med dx=-90 dy=0 dh=0 dv=0 dx=0 dy=0 dh=90 dv=0
PairPos2: "PairwisePositioningkerninglooku subtable" u1000.med dx=-90 dy=0 dh=0 dv=0 dx=0 dy=0 dh=90 dv=0
Position2: "SinglePositioninglookup48 per glyph data 0" dx=100 dy=0 dh=50 dv=0
Position2: "SinglePositioninglookup30 subtable" dx=140 dy=0 dh=140 dv=0
Comment: "GDL_order: 1+AAoA-mark: 80+AAoA" 
EndChar

StartChar: u1012.med
Encoding: 156 -1 154
Width: 0
VWidth: 0
GlyphClass: 4
Flags: HW
AnchorPoint: "BS" -225 -53 mark 0
AnchorPoint: "LLM" -541 -53 basemark 0
AnchorPoint: "BSM" -225 -53 mark 0
AnchorPoint: "LM" 90 -53 basemark 0
AnchorPoint: "BS" 219 -53 basemark 0
AnchorPoint: "BSM" 526 -53 basemark 0
LayerCount: 2
Fore
SplineSet
-60 -346 m 0
 -60 -406 -110 -457 -225 -457 c 0
 -335 -457 -391 -413 -391 -353 c 0
 -339 -333 l 0
 -339 -370 -302 -401 -225 -402 c 0
 -172 -402 -116 -389 -115 -345 c 0
 -115 -311 -174 -300 -218 -297 c 0
 -218 -248 l 0
 -175 -248 -115 -234 -115 -199 c 0
 -116 -155 -172 -142 -225 -142 c 0
 -302 -142 -339 -175 -339 -212 c 0
 -391 -191 l 0
 -391 -131 -334 -87 -225 -87 c 0
 -110 -87 -60 -137 -60 -199 c 0
 -60 -232 -80 -262 -113 -273 c 0
 -80 -282 -60 -314 -60 -346 c 0
EndSplineSet
Ligature2: "LigatureSubstitutionlookup179 subtable" u1012.med u102D
Ligature2: "LigatureSubstitutionlookup179 subtable" u1012.med u102E
Ligature2: "LigatureSubstitutionlookup179 subtable" u1012.med u1032
Ligature2: "LigatureSubstitutionlookup179 subtable" u1012.med u103A
Ligature2: "LigatureSubstitutionlookup171 subtable" u1012.med u103C u1031
Ligature2: "LigatureSubstitutionlookup159 subtable" u1012.med u1031
Ligature2: "LigatureSubstitutionlookup159 subtable" u1012.med u103C
Ligature2: "sub_ligature_cligmymr_0 subtable" u1039 u1012
MultipleSubs2: "MultipleSubstitutionlookup138 subtable" u1039 u1012.med
Comment: "GDL_order: 2+AAoA-mark: 80+AAoA" 
EndChar

StartChar: u1013
Encoding: 157 4115 155
Width: 581
VWidth: 0
GlyphClass: 2
Flags: HW
AnchorPoint: "R" 0 0 mark 0
AnchorPoint: "BS" 291 -53 basechar 0
AnchorPoint: "L" 291 -53 basechar 0
AnchorPoint: "U" 291 495 basechar 0
AnchorPoint: "BD" 288 -53 basechar 0
LayerCount: 2
Fore
SplineSet
525 222 m 0
 525 90 421 -18 292 -18 c 0
 158 -18 55 90 55 222 c 0
 55 352 159 461 289 461 c 0
 422 461 525 352 525 222 c 0
453 225 m 0
 451 314 379 390 292 390 c 0
 202 390 128 315 127 225 c 0
 127 208 130 192 136 178 c 0
 184 223 242 237 290 237 c 0
 339 237 397 222 444 179 c 0
 450 193 453 209 453 225 c 0
418 119 m 0
 374 161 327 172 292 172 c 0
 258 172 209 159 162 117 c 0
 193 78 238 54 289 54 c 0
 342 54 388 80 418 119 c 0
EndSplineSet
Ligature2: "LigatureSubstitutionlookup169 subtable" u1013 u103C
Ligature2: "LigatureSubstitutionlookup167 subtable" u1013 u103C u1031
Ligature2: "LigatureSubstitutionlookup167 subtable" u1013 u103C.wide u1031
Ligature2: "LigatureSubstitutionlookup167 subtable" u1013 u103C_u103D.narr u1031
Ligature2: "LigatureSubstitutionlookup167 subtable" u1013 u103C_u103D.wide u1031
Ligature2: "LigatureSubstitutionlookup165 subtable" u1013 u103C
Ligature2: "LigatureSubstitutionlookup165 subtable" u1013 u103C_u103D.narr
Ligature2: "LigatureSubstitutionlookup165 subtable" u1013 u103C_u102F.narr
Ligature2: "LigatureSubstitutionlookup163 subtable" u1013 u1031
Ligature2: "LigatureSubstitutionlookup163 subtable" u1013 u1084
Ligature2: "LigatureSubstitutionlookup162 subtable" u1013 u103D
Ligature2: "LigatureSubstitutionlookup162 subtable" u1013 u103E
Ligature2: "LigatureSubstitutionlookup162 subtable" u1013 u103D_u103E
Ligature2: "LigatureSubstitutionlookup162 subtable" u1013
Ligature2: "LigatureSubstitutionlookup162 subtable" u1013 u105F
Ligature2: "LigatureSubstitutionlookup162 subtable" u1013 u1060
Ligature2: "LigatureSubstitutionlookup162 subtable" u1013 u1082
Ligature2: "LigatureSubstitutionlookup158 subtable" u1013 u1039
Ligature2: "LigatureSubstitutionlookup130 subtable" u1004.kinzi u200D u1013
Ligature2: "LigatureSubstitutionlookup130 subtable" u101B.kinzi u200D u1013
Ligature2: "LigatureSubstitutionlookup127 subtable" u1004.kinzi u200D u1013
Ligature2: "LigatureSubstitutionlookup127 subtable" u101B.kinzi u200D u1013
Ligature2: "LigatureSubstitutionlookup124 subtable" u1004.kinzi u200D u1013
Ligature2: "LigatureSubstitutionlookup124 subtable" u101B.kinzi u200D u1013
MultipleSubs2: "MultipleSubstitutionlookup139 subtable" u200C u1031 u1013
MultipleSubs2: "MultipleSubstitutionlookup137 subtable" u200C u1084 u1013
MultipleSubs2: "MultipleSubstitutionlookup136 subtable" u200C u103C_u103D.narr u1013
MultipleSubs2: "MultipleSubstitutionlookup135 subtable" u200C u103C_u102F.narr u1013
MultipleSubs2: "MultipleSubstitutionlookup134 subtable" u200C u103C u1013
MultipleSubs2: "MultipleSubstitutionlookup129 subtable" u1013 u101B.kinzi
MultipleSubs2: "MultipleSubstitutionlookup128 subtable" u1013 u1004.kinzi
PairPos2: "PairwisePositioningkerninglooku subtable" uAA60.med.kham dx=-90 dy=0 dh=0 dv=0 dx=0 dy=0 dh=90 dv=0
PairPos2: "PairwisePositioningkerninglooku subtable" uAA60.med dx=-90 dy=0 dh=0 dv=0 dx=0 dy=0 dh=90 dv=0
PairPos2: "PairwisePositioningkerninglooku subtable" u1021.med dx=-90 dy=0 dh=0 dv=0 dx=0 dy=0 dh=90 dv=0
PairPos2: "PairwisePositioningkerninglooku subtable" u101E.med dx=-90 dy=0 dh=0 dv=0 dx=0 dy=0 dh=90 dv=0
PairPos2: "PairwisePositioningkerninglooku subtable" u101C.med dx=-90 dy=0 dh=0 dv=0 dx=0 dy=0 dh=90 dv=0
PairPos2: "PairwisePositioningkerninglooku subtable" u101A.med dx=-90 dy=0 dh=0 dv=0 dx=0 dy=0 dh=90 dv=0
PairPos2: "PairwisePositioningkerninglooku subtable" u1018.med dx=-90 dy=0 dh=0 dv=0 dx=0 dy=0 dh=90 dv=0
PairPos2: "PairwisePositioningkerninglooku subtable" u1011.med dx=-90 dy=0 dh=0 dv=0 dx=0 dy=0 dh=90 dv=0
PairPos2: "PairwisePositioningkerninglooku subtable" u1010.med dx=-90 dy=0 dh=0 dv=0 dx=0 dy=0 dh=90 dv=0
PairPos2: "PairwisePositioningkerninglooku subtable" u100F.med dx=-90 dy=0 dh=0 dv=0 dx=0 dy=0 dh=90 dv=0
PairPos2: "PairwisePositioningkerninglooku subtable" u100C.med dx=-90 dy=0 dh=0 dv=0 dx=0 dy=0 dh=90 dv=0
PairPos2: "PairwisePositioningkerninglooku subtable" u100A.med dx=-90 dy=0 dh=0 dv=0 dx=0 dy=0 dh=90 dv=0
PairPos2: "PairwisePositioningkerninglooku subtable" u1006.med dx=-90 dy=0 dh=0 dv=0 dx=0 dy=0 dh=90 dv=0
PairPos2: "PairwisePositioningkerninglooku subtable" u1003.med dx=-90 dy=0 dh=0 dv=0 dx=0 dy=0 dh=90 dv=0
PairPos2: "PairwisePositioningkerninglooku subtable" u1000.med dx=-90 dy=0 dh=0 dv=0 dx=0 dy=0 dh=90 dv=0
Position2: "SinglePositioninglookup48 per glyph data 0" dx=100 dy=0 dh=50 dv=0
Position2: "SinglePositioninglookup30 subtable" dx=140 dy=0 dh=140 dv=0
Comment: "GDL_order: 1+AAoA-mark: 80+AAoA" 
EndChar

StartChar: u1013.med
Encoding: 158 -1 156
Width: 0
VWidth: 0
GlyphClass: 4
Flags: HW
AnchorPoint: "BS" -235 -53 mark 0
AnchorPoint: "LLM" -566 -53 basemark 0
AnchorPoint: "BSM" -235 -53 mark 0
AnchorPoint: "LM" 95 -53 basemark 0
AnchorPoint: "BS" 234 -53 basemark 0
AnchorPoint: "BSM" 556 -53 basemark 0
LayerCount: 2
Fore
SplineSet
-55 -272 m 0
 -55 -375 -136 -457 -235 -457 c 0
 -335 -457 -416 -375 -416 -272 c 0
 -416 -170 -335 -87 -236 -87 c 0
 -136 -87 -55 -170 -55 -272 c 0
-110 -269 m 0
 -112 -200 -167 -143 -235 -143 c 0
 -304 -143 -360 -201 -361 -270 c 0
 -361 -281 -359 -292 -354 -305 c 0
 -315 -270 -273 -260 -235 -260 c 0
 -198 -260 -154 -271 -116 -305 c 0
 -112 -294 -110 -283 -110 -269 c 0
-160 -340 m 0
 -187 -320 -215 -313 -239 -313 c 0
 -247 -313 -254 -314 -261 -315 c 0
 -274 -322 -292 -335 -310 -362 c 0
 -289 -380 -265 -391 -236 -391 c 0
 -228 -391 -219 -390 -210 -388 c 0
 -182 -383 -167 -364 -160 -340 c 0
EndSplineSet
Ligature2: "LigatureSubstitutionlookup179 subtable" u1013.med u102D
Ligature2: "LigatureSubstitutionlookup179 subtable" u1013.med u102E
Ligature2: "LigatureSubstitutionlookup179 subtable" u1013.med u1032
Ligature2: "LigatureSubstitutionlookup179 subtable" u1013.med u103A
Ligature2: "LigatureSubstitutionlookup171 subtable" u1013.med u103C u1031
Ligature2: "LigatureSubstitutionlookup159 subtable" u1013.med u1031
Ligature2: "LigatureSubstitutionlookup159 subtable" u1013.med u103C
Ligature2: "sub_ligature_cligmymr_0 subtable" u1039 u1013
MultipleSubs2: "MultipleSubstitutionlookup138 subtable" u1039 u1013.med
Comment: "GDL_order: 2+AAoA-mark: 80+AAoA" 
EndChar

StartChar: u1014
Encoding: 159 4116 157
Width: 542
VWidth: 0
GlyphClass: 2
Flags: HW
AnchorPoint: "R" 8 0 mark 0
AnchorPoint: "BS" 549 -53 basechar 0
AnchorPoint: "L" 502 -53 basechar 0
AnchorPoint: "U" 281 495 basechar 0
AnchorPoint: "BD" 531 -53 basechar 0
LayerCount: 2
Fore
SplineSet
491 143 m 0
 491 55 442 10 346 -9 c 0
 346 -457 l 0
 274 -457 l 0
 274 -18 l 0
 241 -18 l 0
 154 -18 52 -4 52 97 c 0
 52 157 111 209 188 209 c 0
 228 209 261 195 289 166 c 0
 317 137 334 102 342 59 c 0
 385 69 419 91 419 143 c 0
 419 258 143 236 143 361 c 0
 143 426 209 461 281 461 c 0
 328 461 365 447 392 423 c 0
 355 371 l 0
 343 381 314 396 281 396 c 0
 249 396 215 387 215 362 c 0
 215 300 491 314 491 143 c 0
271 48 m 0
 261 99 232 142 188 142 c 0
 154 142 119 124 119 97 c 0
 119 53 181 48 232 48 c 0
 271 48 l 0
EndSplineSet
Substitution2: "SingleSubstitutionlookup143 subtable" u1014.alt
Ligature2: "LigatureSubstitutionlookup169 subtable" u1014 u103C
Ligature2: "LigatureSubstitutionlookup167 subtable" u1014 u103C u1031
Ligature2: "LigatureSubstitutionlookup167 subtable" u1014 u103C.wide u1031
Ligature2: "LigatureSubstitutionlookup167 subtable" u1014 u103C_u103D.narr u1031
Ligature2: "LigatureSubstitutionlookup167 subtable" u1014 u103C_u103D.wide u1031
Ligature2: "LigatureSubstitutionlookup165 subtable" u1014 u103C
Ligature2: "LigatureSubstitutionlookup165 subtable" u1014 u103C_u103D.narr
Ligature2: "LigatureSubstitutionlookup165 subtable" u1014 u103C_u102F.narr
Ligature2: "LigatureSubstitutionlookup163 subtable" u1014 u1031
Ligature2: "LigatureSubstitutionlookup163 subtable" u1014 u1084
Ligature2: "LigatureSubstitutionlookup162 subtable" u1014 u103D
Ligature2: "LigatureSubstitutionlookup162 subtable" u1014 u103E
Ligature2: "LigatureSubstitutionlookup162 subtable" u1014 u103D_u103E
Ligature2: "LigatureSubstitutionlookup162 subtable" u1014
Ligature2: "LigatureSubstitutionlookup162 subtable" u1014 u105F
Ligature2: "LigatureSubstitutionlookup162 subtable" u1014 u1060
Ligature2: "LigatureSubstitutionlookup162 subtable" u1014 u1082
Ligature2: "LigatureSubstitutionlookup158 subtable" u1014 u1039
Ligature2: "LigatureSubstitutionlookup130 subtable" u1004.kinzi u200D u1014
Ligature2: "LigatureSubstitutionlookup130 subtable" u101B.kinzi u200D u1014
Ligature2: "LigatureSubstitutionlookup127 subtable" u1004.kinzi u200D u1014
Ligature2: "LigatureSubstitutionlookup127 subtable" u101B.kinzi u200D u1014
Ligature2: "LigatureSubstitutionlookup124 subtable" u1004.kinzi u200D u1014
Ligature2: "LigatureSubstitutionlookup124 subtable" u101B.kinzi u200D u1014
MultipleSubs2: "MultipleSubstitutionlookup139 subtable" u200C u1031 u1014
MultipleSubs2: "MultipleSubstitutionlookup137 subtable" u200C u1084 u1014
MultipleSubs2: "MultipleSubstitutionlookup136 subtable" u200C u103C_u103D.narr u1014
MultipleSubs2: "MultipleSubstitutionlookup135 subtable" u200C u103C_u102F.narr u1014
MultipleSubs2: "MultipleSubstitutionlookup134 subtable" u200C u103C u1014
MultipleSubs2: "MultipleSubstitutionlookup129 subtable" u1014 u101B.kinzi
MultipleSubs2: "MultipleSubstitutionlookup128 subtable" u1014 u1004.kinzi
PairPos2: "PairwisePositioningkerninglooku subtable" uAA60.med.kham dx=-90 dy=0 dh=0 dv=0 dx=0 dy=0 dh=90 dv=0
PairPos2: "PairwisePositioningkerninglooku subtable" uAA60.med dx=-90 dy=0 dh=0 dv=0 dx=0 dy=0 dh=90 dv=0
PairPos2: "PairwisePositioningkerninglooku subtable" u1021.med dx=-90 dy=0 dh=0 dv=0 dx=0 dy=0 dh=90 dv=0
PairPos2: "PairwisePositioningkerninglooku subtable" u101E.med dx=-90 dy=0 dh=0 dv=0 dx=0 dy=0 dh=90 dv=0
PairPos2: "PairwisePositioningkerninglooku subtable" u101C.med dx=-90 dy=0 dh=0 dv=0 dx=0 dy=0 dh=90 dv=0
PairPos2: "PairwisePositioningkerninglooku subtable" u101A.med dx=-90 dy=0 dh=0 dv=0 dx=0 dy=0 dh=90 dv=0
PairPos2: "PairwisePositioningkerninglooku subtable" u1018.med dx=-90 dy=0 dh=0 dv=0 dx=0 dy=0 dh=90 dv=0
PairPos2: "PairwisePositioningkerninglooku subtable" u1011.med dx=-90 dy=0 dh=0 dv=0 dx=0 dy=0 dh=90 dv=0
PairPos2: "PairwisePositioningkerninglooku subtable" u1010.med dx=-90 dy=0 dh=0 dv=0 dx=0 dy=0 dh=90 dv=0
PairPos2: "PairwisePositioningkerninglooku subtable" u100F.med dx=-90 dy=0 dh=0 dv=0 dx=0 dy=0 dh=90 dv=0
PairPos2: "PairwisePositioningkerninglooku subtable" u100C.med dx=-90 dy=0 dh=0 dv=0 dx=0 dy=0 dh=90 dv=0
PairPos2: "PairwisePositioningkerninglooku subtable" u100A.med dx=-90 dy=0 dh=0 dv=0 dx=0 dy=0 dh=90 dv=0
PairPos2: "PairwisePositioningkerninglooku subtable" u1006.med dx=-90 dy=0 dh=0 dv=0 dx=0 dy=0 dh=90 dv=0
PairPos2: "PairwisePositioningkerninglooku subtable" u1003.med dx=-90 dy=0 dh=0 dv=0 dx=0 dy=0 dh=90 dv=0
PairPos2: "PairwisePositioningkerninglooku subtable" u1000.med dx=-90 dy=0 dh=0 dv=0 dx=0 dy=0 dh=90 dv=0
Position2: "SinglePositioninglookup48 per glyph data 0" dx=100 dy=0 dh=50 dv=0
Position2: "SinglePositioninglookup30 subtable" dx=140 dy=0 dh=140 dv=0
Comment: "GDL_order: 1+AAoA-mark: 80+AAoA" 
EndChar

